<?xml version="1.0" encoding="utf-8"?>
<!-- Generator: Adobe Illustrator 27.5.0, SVG Export Plug-In . SVG Version: 6.00 Build 0)  -->
<svg version="1.1" xmlns="http://www.w3.org/2000/svg" xmlns:xlink="http://www.w3.org/1999/xlink" x="0px" y="0px"
	 viewBox="0 0 500 500" style="enable-background:new 0 0 500 500;" xml:space="preserve">
<g id="BACKGROUND">
</g>
<g id="OBJECTS">
	<g>
		<path style="opacity:0.75;fill:#FBF9E6;" d="M402.772,155.349c-5.526-9.496-13.827-17.566-24.82-20.035
			c-12.553-2.819-25.445,1.758-36.642,7.164c-12.879,6.217-25.28,13.625-37.307,21.343c-6.176,3.963-12.253,8.079-18.222,12.348
			c-5.875,4.202-11.606,8.625-17.789,12.377c-2.995,1.817-6.118,3.503-9.368,4.86c-0.025-0.005-0.051-0.006-0.076-0.011
			c-6.193-1.14-12.002-3.841-17.189-7.364c-10.082-6.847-17.771-16.499-24.438-26.565c-7.364-11.118-13.904-22.912-22.873-32.868
			c-7.737-8.588-17.262-15.141-28.129-19.117c-20.957-7.668-44.855-6.047-65.448,2.003c-11.9,4.652-23.181,11.435-31.506,21.268
			c-7.305,8.629-12.16,19.16-14.663,30.148c-5.568,24.444,0.802,49.466,13.733,70.526c6.971,11.353,15.65,21.625,25.313,30.774
			c8.585,8.129,18.171,15.48,29.074,20.21c5.589,2.424,11.516,4.11,17.583,4.746c6.851,0.718,13.744,0.046,20.554-0.762
			c12.739-1.511,26.285-3.478,38.324,2.297c5.758,2.762,10.296,7.301,12.771,13.224c2.723,6.517,2.901,13.788,3.019,20.744
			c0.111,6.524,0.059,13.142,1.499,19.542c1.41,6.264,4.193,12.113,7.664,17.487c7.323,11.338,17.288,21.245,26.808,30.74
			c9.194,9.169,19.415,17.688,31.711,22.303c12.043,4.521,24.502,4.273,36.335-0.788c6.572-2.81,12.688-6.625,18.627-10.572
			c5.486-3.646,10.806-7.575,15.657-12.04c9.746-8.97,16.24-19.868,20.686-32.279c4.651-12.985,8.076-26.389,12.607-39.424
			c9.574-27.544,20.837-54.768,25.722-83.666c2.353-13.921,3.251-28.175,1.711-42.238
			C412.327,179.184,409.164,166.334,402.772,155.349z"/>
		<path style="opacity:0.6;fill:#FBF9E6;" d="M448.55,188.185c-7.241-7.98-16.112-14.419-26.184-18.326
			c-9.911-3.845-20.503-5.433-30.92-7.256c-10.269-1.797-20.78-3.764-30.102-8.648c-11.329-5.935-18.309-16.075-23.283-27.581
			c-5.007-11.582-8.411-24.02-15.477-34.61c-6.057-9.078-14.861-15.752-24.903-19.891c-20.517-8.457-44.739-7.508-65.779-1.549
			c-22.201,6.289-42.855,19.79-52.97,41.125c-10.247,21.614-9.266,46.314-11.929,69.551c-5.58,48.682-25.693,95.705-57.228,133.232
			c-1.577,1.877-3.193,3.727-4.848,5.542c-5.12,2.014-10.482,3.372-15.858,4.538c-12.157,2.637-25.164,4.369-35.735,11.433
			c-9.157,6.119-14.813,15.909-17.144,26.534c-2.648,12.071-0.864,24.513,2.694,36.204c3.612,11.868,8.547,23.721,14.632,34.542
			c5.381,9.567,12.355,18.638,21.986,24.227c10.893,6.32,23.891,6.818,36.162,6.172c13.314-0.7,26.49-3.299,39.185-7.34
			c25.645-8.165,49.261-22.056,70.349-38.629c21.437-16.848,41.453-37.234,67.141-47.614c11.974-4.839,24.702-6.728,37.538-5.173
			c10.907,1.322,21.463,4.561,31.961,7.673c20.229,5.996,42.115,11.854,62.107,1.786c11.481-5.782,20.682-15.293,28.106-25.632
			c6.787-9.452,12.348-19.793,16.601-30.621c8.465-21.549,11.791-45.134,9.382-68.173
			C471.706,227.441,463.768,204.956,448.55,188.185z"/>
	</g>
	<g>
		<g style="opacity:0.26;">
			<g>
				<path style="fill:#D1AEC7;" d="M411.372,138.14c4.596-8.116,7.27-17.129,9.899-26.024c0.099-0.337-0.245-0.747-0.604-0.618
					c-29.655,10.618-58.986,24.057-83.116,44.67c-6.948,5.936-13.37,12.451-19.163,19.519c-0.073,0.09-0.101,0.186-0.109,0.282
					c0.255,0.007,0.511,0.023,0.766,0.037c0.003,0.002,0.005,0.005,0.008,0.006c1.737,0.88,3.712,0.967,5.468,0.272
					c7.35-1.079,14.809-1.171,22.196-2.018c8.874-1.018,17.618-3.143,25.97-6.312C388.119,162.099,403.051,152.833,411.372,138.14z"
					/>
				<path style="fill:#EED3E3;" d="M411.372,138.14c4.596-8.116,7.27-17.129,9.899-26.024c0.099-0.337-0.245-0.747-0.604-0.618
					c-29.655,10.618-58.986,24.057-83.116,44.67c-6.948,5.936-13.37,12.451-19.163,19.519c-0.073,0.09-0.101,0.186-0.109,0.282
					c0.255,0.007,0.511,0.023,0.766,0.037c0.003,0.002,0.005,0.005,0.008,0.006c1.737,0.88,3.712,0.967,5.468,0.272
					c7.35-1.079,14.809-1.171,22.196-2.018c8.874-1.018,17.618-3.143,25.97-6.312C388.119,162.099,403.051,152.833,411.372,138.14z
					 M347.907,173.121c-7.245,0.916-14.574,1.011-21.809,1.922c-0.055-0.319-0.372-0.585-0.706-0.35
					c-0.34,0.238-0.7,0.425-1.068,0.585c-0.093,0.014-0.186,0.023-0.279,0.037c25.127-16.021,54.814-24.135,78.075-43.205
					c6.218-5.097,11.769-10.929,16.335-17.555c0.365-0.53-0.501-1.03-0.865-0.502c-22.544,32.708-64.419,40.822-96.003,61.674
					c-0.541-0.049-1.077-0.182-1.6-0.395c19.97-23.888,46.972-40.422,75.262-52.766c8.141-3.552,16.422-6.766,24.777-9.775
					c-2.237,7.565-4.54,15.173-8.118,22.228c-3.77,7.435-9.059,13.778-15.616,18.918
					C382.611,164.664,365.047,170.955,347.907,173.121z"/>
			</g>
			<g>
				<path style="fill:#D1AEC7;" d="M420.146,177.097c-17.369-3.458-35.202-1.449-52.691-3.811
					c-17.011-2.298-35.531-7.291-51.471,1.825c-0.519,0.297-0.301,1.059,0.15,1.102c-0.002,0.184,0.072,0.375,0.213,0.496
					c7.236,6.221,8.848,16.9,17.484,21.799c7.97,4.522,18.04,4.306,26.708,2.293c20.895-4.852,37.908-20.513,59.612-22.583
					C420.82,178.154,420.748,177.217,420.146,177.097z"/>
				<path style="fill:#EED3E3;" d="M420.146,177.097c-17.369-3.458-35.202-1.449-52.691-3.811
					c-17.011-2.298-35.531-7.291-51.471,1.825c-0.519,0.297-0.301,1.059,0.15,1.102c-0.002,0.184,0.072,0.375,0.213,0.496
					c7.236,6.221,8.848,16.9,17.484,21.799c7.97,4.522,18.04,4.306,26.708,2.293c20.895-4.852,37.908-20.513,59.612-22.583
					C420.82,178.154,420.748,177.217,420.146,177.097z M363.781,198.788c-9.173,2.68-19.962,3.659-28.73-0.897
					c-8.691-4.515-10.541-14.943-17.265-21.371c6.259-1.664,12.911,1.315,18.876,3.035c5.742,1.656,11.53,3.175,17.389,4.363
					c12.014,2.436,24.35,3.376,36.47,1.139c0.714-0.132,0.565-1.253-0.152-1.121c-12.991,2.398-26.184,1.094-38.995-1.737
					c-6.521-1.441-12.947-3.264-19.341-5.184c-4.614-1.386-9.337-2.761-14.073-1.694c16.071-8.211,34.462-2.698,51.409-0.651
					c15.604,1.885,31.448,0.473,46.984,2.907C397.497,180.715,381.999,193.465,363.781,198.788z"/>
			</g>
		</g>
		<g style="opacity:0.5;">
			<path style="fill:#F9E8F3;" d="M317.716,171.804c8.047,2.458,16.494,2.327,24.68,0.61c8.554-1.794,17.119-4.942,24.37-9.882
				c6.702-4.566,11.85-10.903,16.6-17.387c1.872-2.555,4.604-5.373,4.96-8.669c0.23-2.128-0.374-4.109,0.452-6.195
				c0.544-1.374,1.405-2.585,1.752-4.041c0.872-3.661-0.038-7.981-0.266-11.676c-0.287-4.644-0.574-9.288-0.861-13.931
				c-0.324-5.24-0.62-12.632-5.74-15.683c-2.846-1.696-6.133-1.034-9.176-0.323c-3.764,0.88-7.477,1.979-11.115,3.285
				c-7.51,2.696-14.706,6.276-21.401,10.617c-6.695,4.34-12.886,9.457-18.4,15.225c-2.529,2.645-5.28,5.434-6.901,8.76
				c-0.794,1.629-1.141,3.421-1.88,5.069c-0.911,2.032-3.861,5.058-6.115,2.546c-0.34-0.379-0.9-0.152-0.898,0.35
				c0.032,13.607,3.409,26.928,9.789,38.911c-0.135,0.634-0.195,1.298-0.147,2.005C317.43,171.558,317.555,171.755,317.716,171.804z
				"/>
			<path style="fill:#EED3E3;" d="M317.716,171.804c8.047,2.458,16.494,2.327,24.68,0.61c8.554-1.794,17.119-4.942,24.37-9.882
				c6.702-4.566,11.85-10.903,16.6-17.387c1.872-2.555,4.604-5.373,4.96-8.669c0.23-2.128-0.374-4.109,0.452-6.195
				c0.544-1.374,1.405-2.585,1.752-4.041c0.872-3.661-0.038-7.981-0.266-11.676c-0.287-4.644-0.574-9.288-0.861-13.931
				c-0.324-5.24-0.62-12.632-5.74-15.683c-2.846-1.696-6.133-1.034-9.176-0.323c-3.764,0.88-7.477,1.979-11.115,3.285
				c-7.51,2.696-14.706,6.276-21.401,10.617c-6.695,4.34-12.886,9.457-18.4,15.225c-2.529,2.645-5.28,5.434-6.901,8.76
				c-0.794,1.629-1.141,3.421-1.88,5.069c-0.911,2.032-3.861,5.058-6.115,2.546c-0.34-0.379-0.9-0.152-0.898,0.35
				c0.032,13.607,3.409,26.928,9.789,38.911c-0.135,0.634-0.195,1.298-0.147,2.005C317.43,171.558,317.555,171.755,317.716,171.804z
				 M319.575,171.316c-0.027-0.014-0.044-0.03-0.07-0.044c0.054-0.137,0.06-0.295-0.029-0.452c-0.305-0.538-0.597-1.083-0.889-1.627
				c0.089-0.319,0.226-0.654,0.393-1.005c0.866-1.819,2.438-3.26,3.834-4.668c1.28-1.292,2.558-2.575,3.528-4.125
				c1.345-2.148,2.058-4.597,2.951-6.948c3.847-10.132,10.624-19.268,16.769-28.117c6.141-8.843,12.927-17.295,21.52-23.882
				c0.511-0.391-0.086-1.194-0.598-0.802c-12.779,9.795-21.653,23.59-30.3,36.938c-2.052,3.167-4.045,6.384-5.759,9.749
				c-1.847,3.625-2.876,7.579-4.69,11.198c-1.915,3.819-6.608,6.568-8.247,10.532c-5.864-11.31-8.995-23.824-9.194-36.58
				c2.103,1.239,4.867-0.048,6.195-2.106c1.416-2.193,1.711-4.916,2.985-7.193c1.49-2.663,3.7-4.958,5.777-7.168
				c8.389-8.93,18.441-16.308,29.437-21.704c4.749-2.33,9.678-4.297,14.73-5.866c4.629-1.438,11.989-4.556,16.241-0.907
				c3.592,3.082,3.916,8.826,4.19,13.202c0.374,5.97,0.738,11.941,1.107,17.912c0.167,2.702,0.747,5.771,0.089,8.431
				c-0.57,2.305-2.157,4.049-2.271,6.493c-0.058,1.242,0.213,2.503,0.067,3.743c-0.176,1.495-0.884,2.739-1.707,3.976
				c-1.449,2.179-3.061,4.277-4.635,6.367c-3.335,4.427-6.913,8.726-11.174,12.299c-4.518,3.789-9.743,6.598-15.216,8.745
				c-9.73,3.817-20.581,6.135-31.025,4.466C322.362,171.978,320.692,171.885,319.575,171.316z"/>
		</g>
	</g>
	<g>
		<g style="opacity:0.43;">
			<g>
				<path style="fill:#D1AEC7;" d="M433.769,399.708c8.493-3.856,15.96-9.568,23.321-15.212c0.278-0.214,0.242-0.748-0.125-0.855
					c-30.224-8.871-61.845-15.272-93.486-12.811c-9.111,0.708-18.137,2.196-26.981,4.5c-0.112,0.029-0.191,0.091-0.254,0.164
					c0.202,0.156,0.399,0.319,0.597,0.48c0.002,0.004,0.001,0.006,0.003,0.01c0.886,1.734,2.432,2.966,4.26,3.439
					c6.577,3.454,12.661,7.77,19.131,11.433c7.773,4.401,16.093,7.829,24.71,10.184
					C400.869,405.389,418.394,406.688,433.769,399.708z"/>
				<path style="fill:#EED3E3;" d="M433.769,399.708c8.493-3.856,15.96-9.568,23.321-15.212c0.278-0.214,0.242-0.748-0.125-0.855
					c-30.224-8.871-61.845-15.272-93.486-12.811c-9.111,0.708-18.137,2.196-26.981,4.5c-0.112,0.029-0.191,0.091-0.254,0.164
					c0.202,0.156,0.399,0.319,0.597,0.48c0.002,0.004,0.001,0.006,0.003,0.01c0.886,1.734,2.432,2.966,4.26,3.439
					c6.577,3.454,12.661,7.77,19.131,11.433c7.773,4.401,16.093,7.829,24.71,10.184
					C400.869,405.389,418.394,406.688,433.769,399.708z M361.874,390.631c-6.396-3.524-12.377-7.761-18.762-11.284
					c0.143-0.29,0.043-0.691-0.365-0.699c-0.415-0.007-0.816-0.068-1.207-0.156c-0.083-0.044-0.164-0.091-0.247-0.134
					c29.743,1.839,58.518,12.753,88.548,11.028c8.027-0.461,15.947-1.908,23.539-4.577c0.607-0.213,0.201-1.128-0.404-0.915
					c-37.477,13.172-76.106-4.916-113.912-6.649c-0.408-0.358-0.764-0.781-1.061-1.261c30.205-7.557,61.766-5.03,91.902,1.643
					c8.672,1.92,17.259,4.196,25.784,6.682c-6.261,4.798-12.601,9.593-19.647,13.191c-7.424,3.792-15.433,5.807-23.76,6.102
					C394.906,404.221,377.005,398.969,361.874,390.631z"/>
			</g>
			<g>
				<path style="fill:#D1AEC7;" d="M417.932,436.366c-12.006-13.019-27.605-21.892-40.353-34.096
					c-12.4-11.87-24.432-26.808-42.685-28.821c-0.595-0.065-0.866,0.68-0.527,0.979c-0.109,0.147-0.163,0.345-0.12,0.526
					c2.188,9.289-2.794,18.87,1.303,27.914c3.781,8.347,12.049,14.099,20.242,17.574c19.748,8.376,42.72,5.73,61.484,16.832
					C417.854,437.617,418.348,436.817,417.932,436.366z"/>
				<path style="fill:#EED3E3;" d="M417.932,436.366c-12.006-13.019-27.605-21.892-40.353-34.096
					c-12.4-11.87-24.432-26.808-42.685-28.821c-0.595-0.065-0.866,0.68-0.527,0.979c-0.109,0.147-0.163,0.345-0.12,0.526
					c2.188,9.289-2.794,18.87,1.303,27.914c3.781,8.347,12.049,14.099,20.242,17.574c19.748,8.376,42.72,5.73,61.484,16.832
					C417.854,437.617,418.348,436.817,417.932,436.366z M359.598,420.724c-8.993-3.232-18.291-8.792-22.698-17.636
					c-4.368-8.766,0.275-18.285-1.378-27.439c6.04,2.339,9.663,8.663,13.473,13.564c3.668,4.719,7.452,9.353,11.489,13.762
					c8.279,9.041,17.698,17.062,28.813,22.387c0.655,0.314,1.194-0.681,0.537-0.995c-11.914-5.708-21.811-14.528-30.502-24.357
					c-4.423-5.003-8.546-10.259-12.584-15.575c-2.914-3.836-5.923-7.728-10.38-9.653c17.825,2.822,29.448,18.103,41.943,29.734
					c11.505,10.708,25.145,18.893,36.272,30.005C397.493,425.959,377.459,427.145,359.598,420.724z"/>
			</g>
		</g>
		<g style="opacity:0.43;">
			<path style="fill:#D1AEC7;" d="M440.723,296.706c-0.025-0.339-0.467-0.642-0.769-0.392
				c-24.794,20.486-59.475,24.534-82.409,47.774c-6.109,6.191-10.859,13.513-13.448,21.846c-0.113,0.366,0.187,0.577,0.489,0.561
				l-0.128,0.888c-1.443,3.596-1.35,7.705,1.325,10.82c0.365,0.425,0.899-0.103,0.813-0.524c-0.999-4.851,5.46-6.712,9.108-6.701
				c2.897,0.009,5.812,0.432,8.681-0.176c2.639-0.559,4.22-1.916,5.65-4.123c1.819-2.806,4.496-1.94,7.312-1.49
				c2.18,0.349,4.36,0.698,6.539,1.047c0.346,0.055,0.726-0.277,0.576-0.645c-2.608-6.386,2.434-14.113,9.343-14.261
				c0.279-0.006,0.474-0.266,0.47-0.528c-0.081-6.564,8.248-4.613,11.887-3.225c0.34,0.13,0.754-0.064,0.726-0.475
				c-0.174-2.603-0.245-5.548,0.996-7.93c1.458-2.798,3.823-2.547,6.46-3.01c3.835-0.672,3.943-4.092,3.13-7.181
				c6.474,1.072,12.194-3.21,15.555-8.492c2.436-3.828,4.068-8.2,5.634-12.44C440.019,304.378,441.012,300.648,440.723,296.706z"/>
			<path style="fill:#EED3E3;" d="M440.723,296.706c-0.025-0.339-0.467-0.642-0.769-0.392
				c-24.794,20.486-59.475,24.534-82.409,47.774c-6.109,6.191-10.859,13.513-13.448,21.846c-0.113,0.366,0.187,0.577,0.489,0.561
				l-0.128,0.888c-1.443,3.596-1.35,7.705,1.325,10.82c0.365,0.425,0.899-0.103,0.813-0.524c-0.999-4.851,5.46-6.712,9.108-6.701
				c2.897,0.009,5.812,0.432,8.681-0.176c2.639-0.559,4.22-1.916,5.65-4.123c1.819-2.806,4.496-1.94,7.312-1.49
				c2.18,0.349,4.36,0.698,6.539,1.047c0.346,0.055,0.726-0.277,0.576-0.645c-2.608-6.386,2.434-14.113,9.343-14.261
				c0.279-0.006,0.474-0.266,0.47-0.528c-0.081-6.564,8.248-4.613,11.887-3.225c0.34,0.13,0.754-0.064,0.726-0.475
				c-0.174-2.603-0.245-5.548,0.996-7.93c1.458-2.798,3.823-2.547,6.46-3.01c3.835-0.672,3.943-4.092,3.13-7.181
				c6.474,1.072,12.194-3.21,15.555-8.492c2.436-3.828,4.068-8.2,5.634-12.44C440.019,304.378,441.012,300.648,440.723,296.706z
				 M433.521,317.628c-3.191,6.104-9.165,11.973-16.648,10.23c-0.372-0.086-0.687,0.294-0.576,0.645
				c0.623,1.97,1.146,3.713-0.254,5.394c-1.174,1.411-1.98,1.277-3.728,1.462c-1.437,0.152-2.769,0.467-3.885,1.441
				c-2.592,2.263-2.755,6.325-2.585,9.596c-2.73-1.025-5.758-1.994-8.6-0.946c-2.185,0.806-3.759,2.626-3.934,4.922
				c-7.016,0.456-12.167,8.086-10.058,14.752c-2.525-0.405-5.049-0.813-7.575-1.213c-1.474-0.233-3.183-0.659-4.582,0.102
				c-1.779,0.967-2.226,3.306-3.819,4.498c-1.79,1.34-4.139,1.585-6.307,1.624c-3.777,0.068-7.431-0.597-11.008,1.009
				c-2.306,1.036-4.147,2.748-4.41,5.09c-1.346-2.186-1.431-4.477-0.786-6.69c0.21-0.012,0.41-0.135,0.448-0.405l0.185-1.289
				c1.545-3.345,4.562-6.382,7.207-8.409c5.408-4.144,11.006-8.083,16.599-11.972c11.35-7.891,23.179-15.168,36.062-20.289
				c0.596-0.237,0.29-1.189-0.309-0.951c-14.628,5.816-27.88,14.37-40.652,23.469c-3.133,2.232-6.243,4.497-9.35,6.766
				c-3.154,2.303-6.458,4.613-8.787,7.806c-0.32,0.439-0.605,0.904-0.874,1.377c-0.016-0.005-0.031-0.011-0.047-0.015
				c10.214-31.729,46.588-41.497,73.283-54.685c7.497-3.704,14.715-7.948,21.228-13.208
				C439.91,304.51,436.574,311.786,433.521,317.628z"/>
		</g>
		<g style="opacity:0.5;">
			<path style="fill:#F9E8F3;" d="M332.894,351.895c8.022,2.537,16.47,2.49,24.673,0.854c8.571-1.709,17.167-4.773,24.467-9.64
				c6.746-4.499,11.957-10.786,16.771-17.222c1.897-2.536,4.657-5.327,5.046-8.62c0.251-2.126-0.333-4.113,0.514-6.19
				c0.558-1.368,1.431-2.571,1.792-4.023c0.908-3.652,0.041-7.981-0.151-11.678c-0.241-4.646-0.482-9.293-0.723-13.939
				c-0.272-5.243-0.495-12.638-5.585-15.739c-2.829-1.724-6.122-1.095-9.172-0.413c-3.772,0.843-7.496,1.905-11.147,3.175
				c-7.537,2.622-14.767,6.131-21.505,10.405c-6.738,4.274-12.979,9.329-18.55,15.042c-2.555,2.62-5.334,5.382-6.988,8.691
				c-0.81,1.621-1.175,3.41-1.93,5.05c-0.931,2.023-3.911,5.019-6.14,2.486c-0.337-0.383-0.898-0.161-0.902,0.341
				c-0.103,13.607,3.143,26.96,9.404,39.006c-0.142,0.633-0.208,1.296-0.167,2.004C332.611,351.646,332.734,351.844,332.894,351.895
				z"/>
			<path style="fill:#EED3E3;" d="M332.894,351.895c8.022,2.537,16.47,2.49,24.673,0.854c8.571-1.709,17.167-4.773,24.467-9.64
				c6.746-4.499,11.957-10.786,16.771-17.222c1.897-2.536,4.657-5.327,5.046-8.62c0.251-2.126-0.333-4.113,0.514-6.19
				c0.558-1.368,1.431-2.571,1.792-4.023c0.908-3.652,0.041-7.981-0.151-11.678c-0.241-4.646-0.482-9.293-0.723-13.939
				c-0.272-5.243-0.495-12.638-5.585-15.739c-2.829-1.724-6.122-1.095-9.172-0.413c-3.772,0.843-7.496,1.905-11.147,3.175
				c-7.537,2.622-14.767,6.131-21.505,10.405c-6.738,4.274-12.979,9.329-18.55,15.042c-2.555,2.62-5.334,5.382-6.988,8.691
				c-0.81,1.621-1.175,3.41-1.93,5.05c-0.931,2.023-3.911,5.019-6.14,2.486c-0.337-0.383-0.898-0.161-0.902,0.341
				c-0.103,13.607,3.143,26.96,9.404,39.006c-0.142,0.633-0.208,1.296-0.167,2.004C332.611,351.646,332.734,351.844,332.894,351.895
				z M334.758,351.425c-0.027-0.014-0.043-0.03-0.069-0.044c0.055-0.137,0.063-0.295-0.025-0.453
				c-0.3-0.541-0.586-1.089-0.873-1.635c0.092-0.318,0.233-0.651,0.403-1.002c0.883-1.811,2.47-3.235,3.88-4.63
				c1.293-1.279,2.583-2.55,3.568-4.09c1.366-2.135,2.103-4.576,3.019-6.919c3.947-10.093,10.813-19.162,17.046-27.949
				c6.228-8.782,13.098-17.167,21.755-23.668c0.514-0.386-0.074-1.195-0.59-0.808c-12.875,9.668-21.885,23.375-30.664,36.637
				c-2.083,3.147-4.108,6.344-5.856,9.691c-1.883,3.607-2.95,7.551-4.8,11.151c-1.952,3.8-6.673,6.502-8.35,10.45
				c-5.752-11.368-8.759-23.912-8.832-36.669c2.091,1.26,4.867,0,6.215-2.045c1.437-2.179,1.759-4.899,3.056-7.163
				c1.516-2.648,3.749-4.921,5.847-7.111c8.477-8.847,18.601-16.125,29.651-21.412c4.772-2.283,9.72-4.201,14.787-5.72
				c4.644-1.392,12.033-4.437,16.249-0.746c3.562,3.118,3.828,8.865,4.06,13.243c0.315,5.974,0.62,11.948,0.93,17.922
				c0.14,2.703,0.69,5.779,0.006,8.432c-0.593,2.299-2.197,4.027-2.335,6.47c-0.07,1.242,0.188,2.505,0.03,3.743
				c-0.191,1.493-0.911,2.73-1.746,3.959c-1.471,2.164-3.103,4.247-4.698,6.321c-3.378,4.394-6.999,8.658-11.295,12.188
				c-4.555,3.744-9.808,6.501-15.302,8.594c-9.768,3.72-20.641,5.931-31.068,4.159C337.539,352.114,335.87,352.004,334.758,351.425z
				"/>
		</g>
		<g style="opacity:0.5;">
			<path style="fill:#F9E8F3;" d="M336.591,360.897c4.455,7.137,10.913,12.585,18.215,16.665c7.63,4.263,16.157,7.513,24.869,8.548
				c8.052,0.957,16.097-0.443,23.937-2.214c3.09-0.698,7-1.03,9.433-3.282c1.571-1.454,2.416-3.345,4.408-4.375
				c1.313-0.679,2.757-1.027,3.974-1.897c3.062-2.189,5.212-6.045,7.465-8.981c2.833-3.691,5.665-7.382,8.498-11.073
				c3.196-4.165,7.827-9.935,5.968-15.598c-1.033-3.148-3.947-4.807-6.709-6.268c-3.417-1.807-6.939-3.417-10.54-4.82
				c-7.435-2.898-15.213-4.922-23.113-6.044c-7.9-1.122-15.929-1.328-23.875-0.598c-3.644,0.335-7.551,0.632-10.957,2.076
				c-1.669,0.707-3.107,1.832-4.746,2.589c-2.022,0.934-6.233,1.279-6.284-2.094c-0.008-0.509-0.578-0.706-0.908-0.326
				c-8.911,10.284-15.109,22.549-18.166,35.776c-0.518,0.389-1,0.851-1.427,1.416C336.537,360.524,336.501,360.754,336.591,360.897z
				"/>
			<path style="fill:#EED3E3;" d="M336.591,360.897c4.455,7.137,10.913,12.585,18.215,16.665c7.63,4.263,16.157,7.513,24.869,8.548
				c8.052,0.957,16.097-0.443,23.937-2.214c3.09-0.698,7-1.03,9.433-3.282c1.571-1.454,2.416-3.345,4.408-4.375
				c1.313-0.679,2.757-1.027,3.974-1.897c3.062-2.189,5.212-6.045,7.465-8.981c2.833-3.691,5.665-7.382,8.498-11.073
				c3.196-4.165,7.827-9.935,5.968-15.598c-1.033-3.148-3.947-4.807-6.709-6.268c-3.417-1.807-6.939-3.417-10.54-4.82
				c-7.435-2.898-15.213-4.922-23.113-6.044c-7.9-1.122-15.929-1.328-23.875-0.598c-3.644,0.335-7.551,0.632-10.957,2.076
				c-1.669,0.707-3.107,1.832-4.746,2.589c-2.022,0.934-6.233,1.279-6.284-2.094c-0.008-0.509-0.578-0.706-0.908-0.326
				c-8.911,10.284-15.109,22.549-18.166,35.776c-0.518,0.389-1,0.851-1.427,1.416C336.537,360.524,336.501,360.754,336.591,360.897z
				 M338.313,361.75c-0.011-0.028-0.013-0.051-0.024-0.079c0.131-0.068,0.239-0.184,0.275-0.36c0.123-0.607,0.261-1.208,0.397-1.811
				c0.276-0.182,0.6-0.345,0.957-0.5c1.848-0.804,3.979-0.858,5.956-1.004c1.814-0.134,3.62-0.263,5.369-0.795
				c2.425-0.737,4.57-2.116,6.788-3.303c9.554-5.116,20.664-7.558,31.109-10.197c10.438-2.637,21.106-4.557,31.912-3.883
				c0.642,0.04,0.719-0.957,0.076-0.997c-16.069-1.003-31.821,3.576-47.107,7.966c-3.627,1.042-7.242,2.159-10.745,3.571
				c-3.774,1.522-7.146,3.829-10.889,5.367c-3.952,1.623-9.296,0.615-13.135,2.529c3.004-12.381,8.858-23.875,17.084-33.628
				c0.773,2.316,3.702,3.159,6.056,2.479c2.508-0.725,4.518-2.584,6.974-3.465c2.872-1.03,6.046-1.31,9.064-1.614
				c12.191-1.228,24.617-0.192,36.454,2.958c5.112,1.361,10.121,3.113,14.962,5.247c4.436,1.955,12.033,4.436,12.845,9.98
				c0.685,4.684-2.842,9.228-5.508,12.709c-3.638,4.749-7.284,9.491-10.926,14.237c-1.648,2.147-3.226,4.843-5.469,6.418
				c-1.943,1.364-4.285,1.637-5.976,3.406c-0.859,0.899-1.483,2.028-2.407,2.867c-1.115,1.012-2.465,1.485-3.898,1.878
				c-2.524,0.692-5.117,1.216-7.676,1.759c-5.422,1.15-10.944,2.043-16.503,1.94c-5.895-0.109-11.681-1.421-17.219-3.395
				c-9.845-3.51-19.551-8.886-26.333-17.003C339.981,364.079,338.783,362.912,338.313,361.75z"/>
		</g>
	</g>
	<g>
		<g style="opacity:0.43;">
			<g>
				<path style="fill:#D1AEC7;" d="M106.201,238.526c-9.204,1.507-17.903,5.074-26.481,8.602c-0.325,0.134-0.428,0.659-0.103,0.858
					c26.864,16.447,55.721,30.874,86.908,36.752c8.98,1.692,18.082,2.611,27.221,2.693c0.116,0.001,0.208-0.039,0.288-0.092
					c-0.154-0.204-0.302-0.412-0.451-0.62c-0.001-0.004,0.001-0.007,0-0.01c-0.403-1.905-1.574-3.498-3.216-4.431
					c-5.449-5.05-10.196-10.803-15.487-16.027c-6.356-6.276-13.494-11.756-21.198-16.276
					C139.444,241.622,122.864,235.797,106.201,238.526z"/>
				<path style="fill:#EED3E3;" d="M106.201,238.526c-9.204,1.507-17.903,5.074-26.481,8.602c-0.325,0.134-0.428,0.659-0.103,0.858
					c26.864,16.447,55.721,30.874,86.908,36.752c8.98,1.692,18.082,2.611,27.221,2.693c0.116,0.001,0.208-0.039,0.288-0.092
					c-0.154-0.204-0.302-0.412-0.451-0.62c-0.001-0.004,0.001-0.007,0-0.01c-0.403-1.905-1.574-3.498-3.216-4.431
					c-5.449-5.05-10.196-10.803-15.487-16.027c-6.356-6.276-13.494-11.756-21.198-16.276
					C139.444,241.622,122.864,235.797,106.201,238.526z M173.241,266.041c5.255,5.071,9.924,10.72,15.169,15.787
					c-0.214,0.243-0.222,0.656,0.17,0.77c0.398,0.115,0.77,0.278,1.125,0.465c0.069,0.064,0.135,0.131,0.204,0.194
					c-28.234-9.533-53.167-27.575-82.607-33.742c-7.869-1.648-15.893-2.317-23.918-1.721c-0.642,0.048-0.488,1.036,0.151,0.988
					c39.615-2.941,72.189,24.597,108.235,36.131c0.301,0.452,0.533,0.953,0.695,1.494c-31.13-0.583-60.939-11.255-88.292-25.557
					c-7.871-4.116-15.567-8.552-23.149-13.176c7.296-2.999,14.667-5.975,22.407-7.61c8.156-1.724,16.414-1.58,24.529,0.306
					C144.896,244.306,160.808,254.045,173.241,266.041z"/>
			</g>
			<g>
				<path style="fill:#D1AEC7;" d="M131.051,207.267c8.195,15.7,20.939,28.334,30.063,43.441
					c8.874,14.693,16.594,32.253,33.69,38.957c0.557,0.218,1.014-0.43,0.764-0.808c0.144-0.114,0.248-0.291,0.254-0.477
					c0.311-9.538,7.62-17.488,6.023-27.288c-1.473-9.044-7.954-16.754-14.957-22.246c-16.88-13.237-39.747-16.674-54.966-32.286
					C131.453,206.08,130.768,206.724,131.051,207.267z"/>
				<path style="fill:#EED3E3;" d="M131.051,207.267c8.195,15.7,20.939,28.334,30.063,43.441
					c8.874,14.693,16.594,32.253,33.69,38.957c0.557,0.218,1.014-0.43,0.764-0.808c0.144-0.114,0.248-0.291,0.254-0.477
					c0.311-9.538,7.62-17.488,6.023-27.288c-1.473-9.044-7.954-16.754-14.957-22.246c-16.88-13.237-39.747-16.674-54.966-32.286
					C131.453,206.08,130.768,206.724,131.051,207.267z M183.287,237.583c7.839,5.466,15.365,13.258,17.313,22.946
					c1.93,9.602-5.034,17.58-5.827,26.848c-5.221-3.833-7.069-10.883-9.468-16.609c-2.31-5.512-4.754-10.974-7.502-16.283
					c-5.634-10.887-12.635-21.088-21.976-29.127c-0.551-0.474-1.33,0.346-0.778,0.821c10.013,8.618,17.267,19.714,23.093,31.47
					c2.965,5.984,5.574,12.133,8.086,18.318c1.813,4.464,3.703,9.005,7.503,12.026c-16.472-7.374-23.706-25.158-32.736-39.645
					c-8.314-13.339-19.347-24.798-27.19-38.428C148.069,222.645,167.718,226.726,183.287,237.583z"/>
			</g>
		</g>
		<g style="opacity:0.5;">
			<path style="fill:#F9E8F3;" d="M182.544,206.645c2.104-7.29,1.868-14.906,0.206-22.264c-1.737-7.688-4.695-15.368-9.251-21.838
				c-4.21-5.98-9.997-10.534-15.91-14.727c-2.33-1.653-4.909-4.077-7.887-4.352c-1.923-0.178-3.701,0.394-5.592-0.321
				c-1.247-0.471-2.35-1.231-3.668-1.523c-3.314-0.735-7.197,0.146-10.525,0.403c-4.183,0.324-8.367,0.647-12.551,0.971
				c-4.72,0.365-11.382,0.735-14.062,5.395c-1.489,2.59-0.847,5.545-0.163,8.279c0.846,3.382,1.889,6.715,3.117,9.977
				c2.536,6.735,5.865,13.173,9.872,19.15c4.007,5.977,8.708,11.488,13.985,16.38c2.42,2.244,4.974,4.686,7.996,6.101
				c1.48,0.693,3.101,0.981,4.597,1.624c1.845,0.793,4.614,3.411,2.381,5.479c-0.337,0.312-0.125,0.813,0.328,0.805
				c12.27-0.218,24.235-3.45,34.952-9.37c0.574,0.113,1.173,0.158,1.81,0.104C182.326,206.906,182.502,206.791,182.544,206.645z"/>
			<path style="fill:#EED3E3;" d="M182.544,206.645c2.104-7.29,1.868-14.906,0.206-22.264c-1.737-7.688-4.695-15.368-9.251-21.838
				c-4.21-5.98-9.997-10.534-15.91-14.727c-2.33-1.653-4.909-4.077-7.887-4.352c-1.923-0.178-3.701,0.394-5.592-0.321
				c-1.247-0.471-2.35-1.231-3.668-1.523c-3.314-0.735-7.197,0.146-10.525,0.403c-4.183,0.324-8.367,0.647-12.551,0.971
				c-4.72,0.365-11.382,0.735-14.062,5.395c-1.489,2.59-0.847,5.545-0.163,8.279c0.846,3.382,1.889,6.715,3.117,9.977
				c2.536,6.735,5.865,13.173,9.872,19.15c4.007,5.977,8.708,11.488,13.985,16.38c2.42,2.244,4.974,4.686,7.996,6.101
				c1.48,0.693,3.101,0.981,4.597,1.624c1.845,0.793,4.614,3.411,2.381,5.479c-0.337,0.312-0.125,0.813,0.328,0.805
				c12.27-0.218,24.235-3.45,34.952-9.37c0.574,0.113,1.173,0.158,1.81,0.104C182.326,206.906,182.502,206.791,182.544,206.645z
				 M182.078,204.975c-0.012,0.025-0.026,0.04-0.038,0.063c-0.124-0.046-0.267-0.05-0.408,0.033
				c-0.481,0.283-0.968,0.553-1.455,0.825c-0.289-0.075-0.592-0.195-0.912-0.341c-1.653-0.755-2.973-2.153-4.263-3.392
				c-1.183-1.137-2.358-2.27-3.769-3.124c-1.956-1.183-4.174-1.792-6.307-2.564c-9.19-3.327-17.523-9.311-25.588-14.729
				c-8.06-5.415-15.776-11.416-21.835-19.073c-0.36-0.455-1.076,0.094-0.715,0.551c9.011,11.386,21.574,19.196,33.732,26.808
				c2.885,1.806,5.813,3.559,8.871,5.058c3.295,1.615,6.875,2.487,10.163,4.073c3.471,1.673,6.015,5.867,9.613,7.29
				c-10.117,5.445-21.358,8.443-32.858,8.801c1.088-1.914-0.111-4.388-1.986-5.557c-1.997-1.246-4.457-1.474-6.528-2.591
				c-2.422-1.307-4.522-3.268-6.544-5.109c-8.17-7.44-14.963-16.402-19.982-26.242c-2.168-4.25-4.01-8.667-5.495-13.201
				c-1.361-4.155-4.275-10.747-1.044-14.632c2.729-3.282,7.904-3.654,11.847-3.963c5.378-0.421,10.758-0.832,16.137-1.248
				c2.434-0.188,5.194-0.754,7.602-0.198c2.086,0.482,3.681,1.889,5.886,1.957c1.121,0.035,2.254-0.227,3.374-0.112
				c1.351,0.138,2.482,0.759,3.609,1.484c1.985,1.277,3.9,2.701,5.806,4.091c4.039,2.945,7.965,6.112,11.246,9.904
				c3.479,4.021,6.086,8.694,8.098,13.599c3.577,8.721,5.819,18.473,4.46,27.914C182.636,202.453,182.575,203.96,182.078,204.975z"
				/>
		</g>
	</g>
	<g>
		<path style="opacity:0.88;fill:#1C101C;" d="M366.335,423.469c0,3.607-66.474,6.531-148.475,6.531s-148.475-2.924-148.475-6.531
			c0-3.607,66.474-6.531,148.475-6.531S366.335,419.862,366.335,423.469z"/>
		<g>
			<g>
				<g>
					<g>
						<path style="fill:#190323;" d="M351.235,243.774c0,53.687,0.005,107.373-0.004,161.06
							c-0.001,9.747-5.965,17.226-15.213,19.044c-1.49,0.293-3.053,0.297-4.583,0.297c-43.424,0.015-86.85-0.202-130.271,0.15
							c-12.051,0.098-20.915-8.452-20.889-20.843c0.191-90.688,0.103-181.376,0.103-272.064c0-16.406-0.031-32.813,0.014-49.219
							c0.025-9.099,5.547-16.391,14.017-18.553c1.67-0.426,3.444-0.618,5.171-0.619c44.122-0.033,88.244-0.031,132.367-0.022
							c11.196,0.002,19.279,8.071,19.282,19.289C351.243,136.121,351.235,189.947,351.235,243.774z"/>
						<path style="fill:#FFFFFF;" d="M183.956,243.524c0,53.478,0.11,106.956-0.095,160.433
							c-0.04,10.423,7.491,16.924,16.793,16.869c37.629-0.222,75.259-0.092,112.889-0.092c6.353,0,12.706,0.067,19.058-0.024
							c5.57-0.08,9.913-2.521,12.906-7.257c1.779-2.816,2.238-5.949,2.237-9.219c-0.013-51.523-0.009-103.046-0.009-154.569
							c0-55.642,0.004-111.284-0.004-166.926c-0.001-9.836-6.255-16.15-16.038-16.21c-5.724-0.035-11.449-0.018-17.174,0
							c-2.505,0.008-2.948,0.453-3.05,2.872c-0.234,5.595-4.331,9.849-9.898,9.864c-23.737,0.066-47.474,0.063-71.21,0.007
							c-5.538-0.013-9.611-4.088-9.941-9.581c-0.168-2.791-0.522-3.16-3.222-3.166c-5.934-0.013-11.869-0.034-17.802,0.02
							c-1.383,0.012-2.792,0.184-4.14,0.497c-5.469,1.273-11.379,6.59-11.358,15.838
							C184.019,136.428,183.956,189.976,183.956,243.524z"/>
					</g>
				</g>
				<g>
					<defs>
						<path id="SVGID_1_" d="M183.956,243.524c0,53.478,0.11,106.956-0.095,160.433c-0.04,10.423,7.491,16.924,16.793,16.869
							c37.629-0.222,75.259-0.092,112.889-0.092c6.353,0,12.706,0.067,19.058-0.024c5.57-0.08,9.913-2.521,12.906-7.257
							c1.779-2.816,2.238-5.949,2.237-9.219c-0.013-51.523-0.009-103.046-0.009-154.569c0-55.642,0.004-111.284-0.004-166.926
							c-0.001-9.836-6.255-16.15-16.038-16.21c-5.724-0.035-11.449-0.018-17.174,0c-2.505,0.008-2.948,0.453-3.05,2.872
							c-0.234,5.595-4.331,9.849-9.898,9.864c-23.737,0.066-47.474,0.063-71.21,0.007c-5.538-0.013-9.611-4.088-9.941-9.581
							c-0.168-2.791-0.522-3.16-3.222-3.166c-5.934-0.013-11.869-0.034-17.802,0.02c-1.383,0.012-2.792,0.184-4.14,0.497
							c-5.469,1.273-11.379,6.59-11.358,15.838C184.019,136.428,183.956,189.976,183.956,243.524z"/>
					</defs>
					<clipPath id="SVGID_00000122710290386855795970000007278784693438681986_">
						<use xlink:href="#SVGID_1_"  style="overflow:visible;"/>
					</clipPath>
					<g style="clip-path:url(#SVGID_00000122710290386855795970000007278784693438681986_);">
						<g>
							<rect x="167.016" y="53.646" style="fill:#180423;" width="192.17" height="83.113"/>
							<g>
								
									<line style="fill:none;stroke:#E2E6E7;stroke-width:0.9662;stroke-linecap:round;stroke-linejoin:round;stroke-miterlimit:10;" x1="324.475" y1="121.367" x2="338.574" y2="121.367"/>
								
									<line style="fill:none;stroke:#E2E6E7;stroke-width:0.9662;stroke-linecap:round;stroke-linejoin:round;stroke-miterlimit:10;" x1="324.475" y1="128.059" x2="338.574" y2="128.059"/>
								
									<line style="fill:none;stroke:#E2E6E7;stroke-width:0.9662;stroke-linecap:round;stroke-linejoin:round;stroke-miterlimit:10;" x1="324.475" y1="124.713" x2="338.574" y2="124.713"/>
							</g>
						</g>
						<g>
							<rect x="169.479" y="385.076" style="fill:#180423;" width="189.981" height="51.574"/>
						</g>
					</g>
					<path style="clip-path:url(#SVGID_00000122710290386855795970000007278784693438681986_);fill:#190323;" d="M265.389,416.275
						c8.783,0,17.567-0.002,26.35,0.002c0.626,0,1.3-0.101,1.864,0.096c0.14,0.049,0.265,0.139,0.383,0.251
						c0.44,0.419,0.432,1.146-0.023,1.548c-0.133,0.117-0.273,0.218-0.428,0.285c-0.415,0.18-0.959,0.077-1.447,0.077
						c-17.776,0.002-35.551,0.002-53.327,0.002c-0.209,0-0.454,0.071-0.621-0.013c-0.112-0.056-0.224-0.113-0.335-0.171
						c-0.939-0.491-0.683-2.001,0.376-2.029c0.007,0,0.015,0,0.022,0C247.265,416.25,256.327,416.275,265.389,416.275z"/>
					<g style="clip-path:url(#SVGID_00000122710290386855795970000007278784693438681986_);">
						
							<text transform="matrix(1 0 0 1 197.7631 78.1934)" style="fill:#FFFFFF; font-family:'Quicksand-Bold'; font-size:6.4393px;">9:41</text>
					</g>
					<g style="clip-path:url(#SVGID_00000122710290386855795970000007278784693438681986_);">
						
							<line style="fill:none;stroke:#FFFFFF;stroke-width:0.9662;stroke-linecap:round;stroke-linejoin:round;stroke-miterlimit:10;" x1="317.772" y1="77.966" x2="317.772" y2="73.964"/>
						
							<line style="fill:none;stroke:#FFFFFF;stroke-width:0.9662;stroke-linecap:round;stroke-linejoin:round;stroke-miterlimit:10;" x1="312.618" y1="77.966" x2="312.618" y2="77.316"/>
						
							<line style="fill:none;stroke:#FFFFFF;stroke-width:0.9662;stroke-linecap:round;stroke-linejoin:round;stroke-miterlimit:10;" x1="316.021" y1="77.966" x2="316.021" y2="75.218"/>
						
							<line style="fill:none;stroke:#FFFFFF;stroke-width:0.9662;stroke-linecap:round;stroke-linejoin:round;stroke-miterlimit:10;" x1="314.27" y1="77.966" x2="314.27" y2="76.472"/>
					</g>
					<g style="clip-path:url(#SVGID_00000122710290386855795970000007278784693438681986_);">
						
							<path style="fill:none;stroke:#FFFFFF;stroke-width:0.9662;stroke-linecap:round;stroke-linejoin:round;stroke-miterlimit:10;" d="
							M322.742,76.042c1.396-1.396,3.66-1.396,5.055,0"/>
						
							<path style="fill:none;stroke:#FFFFFF;stroke-width:0.9662;stroke-linecap:round;stroke-linejoin:round;stroke-miterlimit:10;" d="
							M324.102,77.401c0.647-0.647,1.689-0.647,2.336,0"/>
						
							<path style="fill:none;stroke:#FFFFFF;stroke-width:0.9662;stroke-linecap:round;stroke-linejoin:round;stroke-miterlimit:10;" d="
							M321.359,74.658v-0.006c2.162-2.156,5.666-2.156,7.828,0"/>
					</g>
					<g style="clip-path:url(#SVGID_00000122710290386855795970000007278784693438681986_);">
						
							<path style="fill:none;stroke:#FFFFFF;stroke-width:0.9662;stroke-linecap:round;stroke-linejoin:round;stroke-miterlimit:10;" d="
							M339.504,78.194h-5.487c-0.7,0-1.267-0.567-1.267-1.267v-1.813c0-0.7,0.567-1.267,1.267-1.267h5.487
							c0.7,0,1.267,0.567,1.267,1.267v1.813C340.772,77.627,340.204,78.194,339.504,78.194z"/>
						
							<rect x="340.772" y="75.218" style="fill:#FFFFFF;stroke:#FFFFFF;stroke-width:0.9662;stroke-linecap:round;stroke-linejoin:round;stroke-miterlimit:10;" width="0.983" height="1.698"/>
						<rect x="334.087" y="75.218" style="fill:#FFFFFF;" width="0.904" height="1.698"/>
					</g>
				</g>
			</g>
			<rect x="186.855" y="143" style="fill:#D887BB;" width="157" height="31"/>
			<rect x="186.855" y="309" style="fill:#EF52B2;" width="157" height="31"/>
			<rect x="186.355" y="178" style="fill:#EED3E3;" width="29.034" height="29.196"/>
			<rect x="218.221" y="178" style="fill:#EED3E3;" width="29.034" height="29.196"/>
			<rect x="250.088" y="178" style="fill:#EED3E3;" width="29.034" height="29.196"/>
			<rect x="281.954" y="178" style="fill:#EED3E3;" width="29.034" height="29.196"/>
			<rect x="313.821" y="178" style="fill:#FBF9E6;" width="29.034" height="29.196"/>
			<rect x="186.355" y="209.5" style="fill:#FBF9E6;" width="29.034" height="29.196"/>
			<rect x="218.221" y="209.5" style="fill:#FBF9E6;" width="29.034" height="29.196"/>
			<rect x="250.088" y="209.5" style="fill:#FBF9E6;" width="29.034" height="29.196"/>
			<rect x="281.954" y="209.5" style="fill:#FBF9E6;" width="29.034" height="29.196"/>
			<rect x="313.821" y="209.5" style="fill:#EF52B2;" width="29.034" height="29.196"/>
			<rect x="186.355" y="241" style="fill:#EED3E3;" width="29.034" height="29.196"/>
			<rect x="218.221" y="241" style="fill:#EED3E3;" width="29.034" height="29.196"/>
			<rect x="250.088" y="241" style="fill:#EED3E3;" width="29.034" height="29.196"/>
			<rect x="281.954" y="241" style="fill:#EED3E3;" width="29.034" height="29.196"/>
			<rect x="313.821" y="241" style="fill:#EED3E3;" width="29.034" height="29.196"/>
			<rect x="186.355" y="272.5" style="fill:#FBF9E6;" width="29.034" height="29.196"/>
			<rect x="186.355" y="343.5" style="fill:#EED3E3;" width="44.938" height="29.196"/>
			<rect x="241.936" y="343.5" style="fill:#EED3E3;" width="44.938" height="29.196"/>
			<rect x="297.978" y="343.5" style="fill:#EED3E3;" width="44.938" height="29.196"/>
			<rect x="218.221" y="272.5" style="fill:#FBF9E6;" width="29.034" height="29.196"/>
			<rect x="250.088" y="272.5" style="fill:#FBF9E6;" width="29.034" height="29.196"/>
			<rect x="281.954" y="272.5" style="fill:#FBF9E6;" width="29.034" height="29.196"/>
			<rect x="313.821" y="272.5" style="fill:#FBF9E6;" width="29.034" height="29.196"/>
			<g>
				
					<text transform="matrix(1 0 0 1 216.2926 162.1676)" style="fill:#FFFFFF; font-family:'Quicksand-Regular'; font-size:14.2422px; letter-spacing:2;">July 2020</text>
			</g>
			<g>
				
					<text transform="matrix(1 0 0 1 197.0797 329.6675)" style="fill:#FFFFFF; font-family:'Quicksand-Regular'; font-size:14.2422px; letter-spacing:2;">APPOINTMENT</text>
			</g>
			<polygon style="fill:#FDFCF7;" points="332.685,151 335.881,154.195 329.49,154.195 			"/>
			<polygon style="fill:#FDFCF7;" points="332.685,162.815 329.49,159.619 335.881,159.619 			"/>
		</g>
		<g>
			<path style="fill:#FDB344;" d="M178.966,199.879c-5.089-6.54-12.964-9.44-20.731-8.483c0.097-0.678-0.06-1.384-0.516-2.069
				c-1.312-1.97-2.975-0.859-4.752-1.318c-1.497-0.387-2.308-1.893-4.136-2.122c-1.463-0.184-2.785,0.212-3.839,1.118
				c-0.892-1.63-2.443-2.668-4.411-2.876c-1.398-0.148-2.756,0.204-4,0.836c-1.834,0.933-2.966,2.987-5.033,2.977
				c-3.331-0.016-5.966-0.215-8.762,2.051c-2.279,1.847-3.517,4.455-3.83,7.292c-5.369-2.968-13.357,7.839-8.069,11.333
				c-1.72,1.761,0.394,5.219,3.242,5.789c-1.568,4.613-1.886,10.044,2.278,13.409c2.395,1.935,5.826,2.017,8.152,0.327
				c-1.044,5.102,0.686,10.677,5.019,13.886c4.974,3.682,11.96,3.18,16.707-0.538c1.893,4.906,6.865,8.42,12.251,7.889
				c3.229-0.318,6.012-2.026,7.925-4.454c2.612-0.049,6.254-1.432,6.045-4.138c0.869,0.168,1.793-0.047,2.609-0.697
				c1.456-1.159,1.589-3.083,1.473-4.846c1.752,0.531,3.688-0.158,4.752-1.853c1.451-2.311,0.318-4.994-1.275-6.888
				C188.691,221.649,183.661,205.913,178.966,199.879z"/>
			<path style="fill:#D8943A;" d="M113.869,215.253c0.077,0.051,0.157,0.089,0.228,0.168c0.477,0.53,0.905,1.269,1.693,1.325
				c0.658,0.046,1.315,0.671,1.058,1.389c-0.113,0.316-0.237,0.636-0.374,0.953c0.471-0.17,1.02-0.029,1.321,0.315
				c5.931-5.769,23.299-7.809,26.955,0.369c4.447,2.864,8.051,7.407,10.334,12.12c-1.029,0.882-1.827,2.162-2.458,3.859
				c-0.701,1.883-3.06,6.486-0.516,7.762c-0.834,1.02-1.633,2.232-1.624,3.519c2.266,1.706,5.092,2.638,8.048,2.346
				c3.229-0.318,6.012-2.026,7.925-4.454c2.612-0.049,6.254-1.432,6.045-4.138c0.869,0.168,1.793-0.047,2.609-0.697
				c1.015-0.808,1.381-1.989,1.474-3.227c-0.805-0.223-1.494-0.74-1.911-1.749c-0.157-0.38-0.783-0.612-1.003-0.131
				c-0.177,0.644-0.586,1.108-1.226,1.391c-1.382,1.61-2.54,0.865-3.475-2.237c0.246-0.523-0.425-1.171-0.862-0.665
				c-1.538,1.78-3.881,1.454-4.884-0.062c0.27-0.17,0.42-0.553,0.132-0.85c-0.19-0.196-0.4-0.367-0.606-0.544
				c-0.006-0.073,0.001-0.152-0.001-0.228c0.415-0.08,0.709-0.583,0.343-0.926c-0.09-0.085-0.159-0.171-0.237-0.257
				c-0.033-0.176-0.157-0.301-0.307-0.374c-1.731-2.434,0.781-5.215,2.538-6.946c0.409-0.403-0.017-1.026-0.534-0.917
				c-4.526,0.947-7.718-3.596-5.416-7.555c0.231-0.397-0.155-0.961-0.62-0.806c-3.947,1.316-6.787-2.722-4.423-6.026
				c0.274-0.383-0.183-0.96-0.62-0.806c-1.963,0.69-3.876,1.165-5.929,0.609c-2.351-0.636-4.459-3.484-2.367-5.755
				c0.348-0.378,0.013-1.106-0.534-0.917c-1.014,0.351-9.871,2.453-9.267,0.341c0.134-0.468-0.394-0.851-0.806-0.62
				c-3.169,1.777-6.601,2.033-10.011,0.794c-0.234-0.085-0.494,0.059-0.62,0.252c-0.277,0.512-0.639,0.957-1.084,1.336
				c-0.73,1.212-1.697,1.078-2.899-0.404c0.042-0.64-0.896-0.714-1.078-0.146c-0.744,2.318-2.798,5.72-5.644,3.402
				c-1.196-0.975-1.589-2.258-1.526-3.591c0.17-0.034,0.317-0.147,0.357-0.378c0.163-0.924,0.325-1.847,0.488-2.771
				c0.112-0.246,0.229-0.488,0.353-0.72c0.042-0.078,0.057-0.153,0.062-0.226c0,0,0,0,0,0c-0.21,0.166-0.414,0.342-0.613,0.528
				c-0.002,0.002-0.005,0.004-0.007,0.006c-0.592,0.551-1.131,1.18-1.591,1.851c-0.012,0.018-0.025,0.036-0.037,0.055
				c-0.147,0.216-0.286,0.436-0.415,0.659c-0.002,0.003-0.004,0.007-0.006,0.01c-0.262,0.453-0.483,0.918-0.662,1.386
				c-0.016,0.043-0.031,0.086-0.047,0.129c-0.068,0.187-0.128,0.374-0.182,0.561c-0.014,0.048-0.029,0.096-0.041,0.145
				c-0.118,0.45-0.191,0.896-0.211,1.331c-0.003,0.054-0.001,0.108-0.002,0.161c-0.003,0.16,0.002,0.317,0.015,0.473
				c0.005,0.065,0.011,0.129,0.019,0.193c0.019,0.157,0.048,0.31,0.084,0.462c0.011,0.048,0.019,0.097,0.032,0.144
				c0.053,0.193,0.121,0.381,0.203,0.563c0.018,0.039,0.042,0.076,0.061,0.115c0.07,0.141,0.15,0.278,0.239,0.411
				c0.037,0.055,0.078,0.108,0.119,0.162c0.089,0.117,0.188,0.229,0.294,0.338c0.045,0.046,0.089,0.094,0.137,0.139
				c0.159,0.147,0.33,0.288,0.524,0.416c-1.72,1.761,0.394,5.219,3.242,5.789C114.031,214.685,113.953,214.97,113.869,215.253z"/>
			<path style="fill:#FFDDC6;" d="M171.715,271.73c-1.273-1.751-2.996-3.107-4.548-4.594c-2.165-2.073-3.992-4.439-5.529-7.01
				c-2.759-4.616-4.563-9.731-6.13-14.852c-0.362-1.181-0.658-3.092-2.274-3.106c-1.841-0.016-3.069,2.525-3.977,3.739
				c-4.022,5.381-8.764,10.158-14.023,14.329c-0.146,0.116-0.192,0.364-0.141,0.534c1.111,3.731,0.218,7.487-2.483,10.303
				c-0.287,0.299-0.135,0.683,0.135,0.853c-2.439,7.206,0.697,15.289,6.642,19.86c6.823,5.246,16.361,4.584,23.555,0.457
				C169.531,288.462,177.263,279.365,171.715,271.73z"/>
			<path style="fill:#EFCEB9;" d="M154.434,247.528c0.104-1.11,0.455-2.852-0.445-3.749c-0.841-0.838-1.899-0.796-2.972-0.335
				c-0.704,0.811-1.28,1.82-1.76,2.463c-4.022,5.381-8.764,10.158-14.023,14.329c-0.146,0.116-0.192,0.364-0.141,0.534
				c1.111,3.731,0.218,7.487-2.483,10.303c-0.287,0.299-0.135,0.683,0.135,0.853c-0.896,2.646-1.034,5.408-0.563,8.073
				c2.488,1.278,5.429,1.352,8.381,0.042c4.885-2.168,7.436-7.216,9.258-11.952c1.91-4.967,3.229-10.145,3.55-15.429
				C153.895,250.991,154.27,249.284,154.434,247.528z"/>
			<path style="fill:#844E73;" d="M186.501,366.709c-8.114-0.504-16.198,0.112-24.095,2.087c-8.091,2.024-15.704,6.788-24.202,6.798
				c-13.118,0.016-24.771-7.738-37.739-8.283c-0.123-0.15-0.278-0.283-0.507-0.355c-2.95-0.937-7.496-1.877-9.244,1.696
				c-1.907,3.898,2.914,6.835,5.419,8.808c10.618,8.364,22.025,15.711,34.04,21.903c4.136,2.132,9.465,5.784,14.363,5.262
				c5.39-0.575,10.255-6.176,14.157-9.378c9.735-7.988,22.437-15.694,28.755-26.887C187.876,367.604,187.325,366.76,186.501,366.709
				z"/>
			<path style="fill:#F99B34;" d="M192.266,277.765c-2.7-2.165-6.199-3.145-9.414-4.259c-4.598-1.593-9.196-3.187-13.793-4.78
				c-0.202-0.07-0.363-0.015-0.48,0.092c-0.282-0.242-0.779-0.226-0.874,0.237c-0.78,3.8-2.008,7.669-4.526,10.7
				c-2.8,3.372-6.843,4.604-11.031,5.24c-4.669,0.709-9.51,0.344-12.854-3.369c-2.608-2.895-3.749-6.814-3.978-10.631
				c-0.004-0.063-0.025-0.114-0.044-0.166c0.035-0.311,0.037-0.622-0.071-0.919c-0.269-0.741-1.104-1.16-1.8-0.836
				c-4.898-0.579-10.011-0.853-14.909-0.166c-3.092,0.433-5.986,1.484-8.022,3.936c-2.556,3.079-3.541,7.219-5.654,10.597
				c-2.321,3.71-5.234,6.998-7.798,10.534c-2.094,2.888-5.09,6.824-4.845,10.627c0.193,2.992,2.45,5.872,4.417,7.99
				c4.033,4.342,9.563,7.027,15.387,7.653c-0.155,2.284,0.081,4.605,0.291,6.973c0.429,4.852,0.071,9.617-1.239,14.321
				c-2.586,9.286-8.147,17.456-14.693,24.411c-0.337,0.358-0.086,0.91,0.388,0.937c14.04,0.809,26.088,9.751,40.131,10.523
				c14.71,0.809,28.242-6.902,42.79-7.704c0.376-0.021,0.599-0.332,0.529-0.695c-2.736-14.201-3.266-28.702-1.589-43.041
				c2.636,0.178,5.281,0.136,7.926-0.17c2.299-0.266,6.755-0.301,8.249-2.395c0.809-1.134,0.62-3.25,0.726-4.534
				c0.192-2.334,0.362-4.67,0.511-7.007c0.309-4.854,0.524-9.714,0.647-14.577C196.805,290.826,197.973,282.341,192.266,277.765z"/>
			<path style="fill:#180423;" d="M94.246,282.098l12.77-0.128c0.741-0.007,1.438,0.35,1.865,0.955l17.245,24.459h-18.109
				l-15.58-21.718C91.372,284.184,92.42,282.117,94.246,282.098z"/>
			<path style="fill:#FFDDC6;" d="M155.343,228.773c2.766,13.671-4.753,35.993-16.174,38.304
				c-11.421,2.311-24.263-13.742-27.029-27.413c-2.766-13.671,1.649-27.096,13.07-29.407
				C136.631,207.946,152.577,215.102,155.343,228.773z"/>
			<g>
				<path style="fill:#965F27;" d="M196.751,402.99c-4.439-3.755-12.288-0.773-17.171,0.023c-5.014,0.817-9.123-0.561-13.995-0.988
					c-1.922-0.169-3.897-0.1-5.656,0.801c-2.913,1.492-4.449,4.279-4.692,7.303c-0.099,0.09-0.188,0.206-0.255,0.36
					c-1.214,2.78-4.883,7.866-0.532,9.594c0.921,0.365,2.792-0.027,3.693,0.014c2.446,0.111,4.841,0.507,7.203,1.166
					c3.754,1.047,7.321,2.652,10.918,4.126c5.245,2.15,11.322,4.804,16.995,2.569c4.608-1.816,6.429-6.123,6.605-10.821
					C200.014,413.108,200.135,405.852,196.751,402.99z"/>
				<path style="fill:#F99B34;" d="M183.529,407.643c-2.442,3.933-2.739,8.552-0.909,12.793c0.279,0.647,1.225,0.088,0.948-0.554
					c-1.674-3.88-1.312-8.107,0.909-11.685C184.85,407.595,183.901,407.044,183.529,407.643z"/>
				<path style="fill:#F99B34;" d="M179.85,407.645c-2.936,1.198-3.567,4.958-3.281,8.489c-0.438-0.224-0.865-0.458-1.252-0.727
					c-0.61-0.424-1.067-0.926-1.457-1.482c0.129-1.479,0.668-2.904,1.628-4.135c0.43-0.551-0.342-1.333-0.776-0.776
					c-0.826,1.06-1.39,2.236-1.702,3.467c-0.078-0.149-0.157-0.293-0.236-0.445c-0.311-0.603-0.608-1.098-1.055-1.502
					c0.037-0.057,0.067-0.117,0.107-0.172c0.41-0.577-0.541-1.125-0.948-0.554c-0.032,0.045-0.054,0.093-0.085,0.138
					c-0.767-0.333-1.529-0.407-2.271-0.295c0.03-0.551-0.867-0.746-1.079-0.138c-0.057,0.161-0.101,0.325-0.152,0.487
					c-0.936,0.375-1.822,0.969-2.626,1.593c-0.262-1.492,0.055-2.817,1.484-4.292c0.994-1.026,2.183-1.861,3.026-3.032
					c0.849-1.18,1.738-3.406-0.165-4.086c-1.897-0.678-3.909,2.075-4.72,3.363c-1.718,2.73-2.159,5.915-1.514,9.042
					c0.014,0.065,0.042,0.114,0.07,0.162c-1.367,2.056-2.193,4.359-2.335,6.887c-0.111,1.971,0.027,6.211,2.284,7.117
					c1.905,0.765,3.495-0.929,4.001-2.594c0.926-3.047-0.05-6.889-1.215-9.762c0.347,0.162,0.669,0.363,0.96,0.605
					c0.001,0.134-0.01,0.266-0.006,0.4c0.014,0.465,0.493,0.618,0.814,0.469c0.26,0.379,0.465,0.807,0.601,1.278
					c0.275,0.955,0.26,1.879,0.831,2.733c1.367,2.043,5.353,2.414,5.304,5.371c-0.012,0.707,1.086,0.707,1.098,0
					c0.065-3.897-5.079-3.997-5.987-7.387c-0.341-1.274-0.836-2.365-1.55-3.213c0.024-1.329,0.213-2.625,0.569-3.901
					c0.599-0.173,1.189-0.192,1.718,0.057c0.116,0.055,0.21,0.128,0.312,0.194c-0.543,1.414-0.465,2.991,0.227,4.399
					c0.311,0.634,1.258,0.078,0.948-0.554c-0.476-0.969-0.556-2.01-0.296-2.989c0.647,0.918,0.967,2.105,1.615,2.976
					c0.017,0.787,0.128,1.583,0.359,2.378c0.196,0.677,1.256,0.389,1.058-0.292c-0.091-0.314-0.163-0.63-0.217-0.946
					c0.828,0.592,1.824,1.057,2.786,1.486c0.233,1.601,0.623,3.078,1.038,4.139c0.255,0.65,1.316,0.367,1.058-0.292
					c-0.426-1.089-0.735-2.195-0.932-3.324c0.237,0.109,0.467,0.219,0.683,0.33c0.627,0.323,1.183-0.624,0.554-0.948
					c-0.449-0.231-0.928-0.452-1.408-0.675c-0.035-0.408-0.064-0.818-0.063-1.235c0.003-1.901,0.369-5.89,2.488-6.754
					C180.787,408.44,180.505,407.378,179.85,407.645z M164.831,404.805c0.361-0.68,0.792-1.315,1.293-1.904
					c0.359-0.754,0.875-0.826,1.549-0.215c1.735,0.664,0.32,1.375-0.59,2.261c-1.257,1.224-2.758,2.364-3.445,3.93
					C163.762,407.471,164.145,406.093,164.831,404.805z M165.74,423.869c-2.251,4.689-3.551,0.51-3.851-0.764
					c-0.297-1.262-0.371-2.582-0.255-3.871c0.177-1.956,0.84-3.778,1.848-5.424c0.084,0.072,0.186,0.127,0.323,0.135
					c0.14,0.008,0.274,0.034,0.411,0.053c0.23,0.506,0.46,1.009,0.648,1.518C165.633,417.591,166.799,421.664,165.74,423.869z
					 M166.582,413.697c-0.442-0.287-0.946-0.507-1.52-0.652c-0.036-0.103-0.062-0.2-0.095-0.301c0.543-0.45,1.233-0.996,1.97-1.423
					C166.763,412.104,166.641,412.896,166.582,413.697z"/>
				<path style="fill:#F99B34;" d="M192.802,408.518c-0.635-1.251-4.466-3.531-4.066-4.66c0.237-0.667-0.823-0.954-1.058-0.292
					c-0.409,1.151-0.04,1.964,0.92,2.71c1.21,0.941,2.377,1.266,3.192,2.751c0.815,1.485,0.776,3.284,0.62,4.924
					c-0.13,1.368-0.336,2.848-0.741,4.171c-0.597,1.952-1.651,2.581-3.398,3.516c-1.381,0.739-2.376,1.406-2.356,3.063
					c0.008,0.706,1.106,0.708,1.098,0c-0.023-1.923,3.871-2.739,4.911-4.418c1.055-1.704,1.282-3.877,1.519-5.824
					C193.683,412.471,193.735,410.357,192.802,408.518z"/>
			</g>
			<path style="fill:#EFCEB9;" d="M123.288,257.027c-3.913-4.342-6.816-9.639-7.491-15.508c-0.275-2.393-0.466-5.391,0.158-7.759
				c0.814-3.085,3.672-4.789,4.675-7.839c0.151-0.459,0.557-0.81,1.058-0.806c3.887,0.029,9.042-1.23,12.574,0.981
				c0.387,0.064,0.648,0.294,0.798,0.583c0.021,0.018,0.043,0.033,0.064,0.051c0.441-0.057,0.86-0.122,1.226-0.204
				c0.005-0.001,0.008,0.001,0.013,0c3.035-3.927,1.924-10.395-3.911-12.058c-1.598-0.456-3.212-0.358-4.757,0.222
				c-1.661,0.624-3.023,1.504-4.852,1.685c-1.569,0.155-3.164-0.058-4.735-0.087c-0.779-0.014-1.563,0.001-2.337,0.06
				c-4.197,5.695-5.427,14.452-3.633,23.317c2.766,13.671,15.608,29.724,27.029,27.413c1.564-0.316,3.049-1.022,4.447-2.022
				C136.818,268.246,127.954,262.206,123.288,257.027z"/>
			<path style="fill:#6B3C5F;" d="M176.878,380.377c-6.883,1.299-13.757,2.753-20.67,3.882c-1.784,0.291-3.584,0.539-5.396,0.546
				c-1.612,0.006-3.134-0.477-4.717-0.546c-0.649-0.028-1.222-0.058-1.797,0.288c-0.435,0.261-2.249,3.034-2.706,2.229
				c-0.162-0.286-0.634-0.385-0.862-0.111c-3.695,4.445-9.31,1.512-12.832-1.465c-0.266-0.225-0.591-0.147-0.786,0.043
				c-1.306-1.177-4.214-2.55-5.032,0.028c-0.29,0.914,0.167,1.481,0.711,2.147c1.405,1.719,3.201,3.235,4.833,4.729
				c3.241,2.967,6.675,5.723,10.269,8.25c3.224,2.267,6.176,4.066,10.076,2.437c1.63-0.681,3.233-1.514,4.812-2.404
				c2.144-1.757,4.13-3.718,5.913-5.182c5.804-4.763,12.655-9.43,18.587-14.791C177.156,380.388,177.012,380.352,176.878,380.377z"
				/>
			<path style="fill:#8C6080;" d="M154.039,404.005c-0.024-0.006-0.043,0.001-0.066-0.004c-10.543-7.738-21.087-15.476-31.63-23.214
				c-7.872-5.777-15.655-11.862-24.77-15.352c-0.019-0.154-0.076-0.313-0.192-0.475c-6.216-8.688-18.448-11.403-28.135-7.037
				c-10.034,4.522-10.838,16.918-4.856,25.163c8.142,11.223,24.589,15.646,37.217,19.261c16.34,4.678,33.109,7.944,48.536,15.328
				c0.55,0.263,1.162,0.141,1.502-0.394C153.168,414.878,159.917,405.547,154.039,404.005z"/>
			<path style="fill:#754C6B;" d="M154.252,411.706c-1.156-2.256-3.815-3.282-6.077-2.576c-1.991-0.602-3.849-1.538-5.492-2.883
				c-1.482-1.214-2.482-2.919-3.975-4.094c-1.231-0.968-2.39-1.138-3.909-1.206c-2.859-0.128-5.603-0.253-8.429-0.815
				c-4.835-0.96-9.51-2.56-14.279-3.782c-5.202-1.333-10.515-2.042-15.816-2.853c-9.428-1.442-19.406-3.507-26.585-10.282
				c-3.308-3.121-4.868-6.778-6.635-10.839c-0.593-1.364-1.257-2.659-2.146-3.729c-0.869,4.817,0.392,10.18,3.482,14.439
				c8.142,11.223,24.589,15.646,37.217,19.261c16.34,4.678,33.109,7.944,48.536,15.328c0.55,0.263,1.162,0.141,1.502-0.394
				c0.564-0.89,1.844-2.73,2.935-4.772C154.491,412.239,154.387,411.97,154.252,411.706z"/>
			<path style="fill:#8C6080;" d="M213.299,356.194c-14.918-7.487-28.964,6.956-39.044,15.942
				c-8.623,7.687-17.465,15.207-27.216,21.441c-7.768,4.967-16.916,8.161-23.787,14.403c-0.694-0.079-1.424,0.418-1.189,1.226
				c-0.249,0.509-0.002,1.057,0.429,1.347c1.498,4.956,3.228,14.281,9.018,14.238c3.809-0.029,8.3-2.239,11.816-3.549
				c4.606-1.717,9.112-3.698,13.568-5.77c9.505-4.421,18.886-9.121,28.313-13.707c8.227-4.001,17.511-7.401,24.882-12.891
				C219.428,381.916,226.734,362.937,213.299,356.194z"/>
			<g>
				<path style="fill:#965F27;" d="M122.554,404.282c-4.504-0.109-9.122,1.393-13.666,1.579c-5.047,0.207-9.607-0.969-14.525-1.695
					c-4.604-0.68-9.933,0.433-12.501,4.74c-1.661,2.786-1.35,6.139-1.318,9.244c0.036,3.463-0.524,7.669,0.825,10.966
					c2.059,5.031,7.884,4.66,12.257,3.196c4.403-1.473,8.306-3.919,12.986-4.526c5.316-0.69,9.332,1.878,14.336,2.187
					c4.532,0.279,6.726-2.532,6.364-6.832c-0.132-1.57-0.712-3.083-0.896-4.643c-0.328-2.772,0.829-5.096,1.259-7.607
					c0.155-0.903,0.286-1.561,0.3-2.151C128.535,406.022,125.395,404.351,122.554,404.282z"/>
				<path style="fill:#F99B34;" d="M126.382,428.897c-0.355-2.962-1.482-5.667-3.173-8.051c0.098-0.16,0.103-0.353-0.039-0.522
					c0.002-0.072,0.004-0.143,0.005-0.215c0.002-0.158-0.067-0.261-0.154-0.344c-0.009-0.065-0.034-0.128-0.069-0.191
					c0.015-0.237,0.024-0.472,0.001-0.704c0.303-1.243,0.628-2.48,1.007-3.705c0.403-1.303,0.97-2.668,0.923-4.06
					c-0.067-1.97-1.394-3.488-3.435-3.422c-1.898,0.061-3.216,1.481-3.187,3.375c0.042,2.705,2.721,4.703,3.424,7.127
					c-1.455-1.326-3.196-2.179-5.222-2.537c-0.458-0.081-0.919-0.118-1.358-0.196c-0.155-0.292-0.327-0.576-0.52-0.852
					c-0.303-0.433-0.917-0.228-1.028,0.148c-0.111-0.107-0.216-0.228-0.316-0.369c-0.389-0.553-0.411-1.269-0.699-1.864
					c-0.521-1.077-0.946-1.666-2.097-2.012c-0.678-0.204-0.968,0.855-0.292,1.058c1.634,0.491,1.479,2.478,2.336,3.631
					c0.445,0.6,1.004,0.933,1.71,1.181c0.044,0.016,0.092,0.021,0.137,0.035c0.551,1.24,0.716,2.571,0.486,3.913
					c-1.254,0.419-2.484,0.784-3.647,0.779c0.005-0.017,0.015-0.028,0.019-0.047c0.427-2.421,0.329-4.809-0.324-7.18
					c-0.187-0.68-1.246-0.391-1.058,0.292c0.6,2.181,0.717,4.368,0.324,6.596c-0.013,0.075-0.007,0.143,0.005,0.208
					c-0.629-0.146-1.234-0.423-1.804-0.92c0.393-1.755,0.173-3.529-0.61-5.183c-0.302-0.638-1.248-0.082-0.948,0.554
					c0.678,1.433,0.819,2.966,0.463,4.477c-0.083,0.112-0.124,0.246-0.106,0.386c-0.02,0.068-0.034,0.136-0.056,0.204
					c-0.165,0.512,0.406,0.799,0.785,0.613c2.088,1.617,4.413,0.952,6.741,0.131c-0.037,0.12-0.064,0.24-0.107,0.36
					c-0.239,0.666,0.821,0.953,1.058,0.292c0.13-0.361,0.225-0.727,0.301-1.094c1.984-0.692,3.94-1.224,5.721-0.266
					c0.038,0.049,0.08,0.097,0.118,0.145c0.033,0.154,0.138,0.268,0.273,0.337c0.023,0.03,0.049,0.058,0.072,0.089
					c-0.146,2.575-0.755,4.603-1.707,7.115c-0.568,1.498-1.139,3.104-0.786,4.734c0.439,2.032,2.51,3.919,4.675,3.023
					C126.793,434.903,126.651,431.137,126.382,428.897z M120.911,419.205c-1.591-0.308-3.262,0.168-4.916,0.72
					c0.107-1.102-0.027-2.203-0.377-3.25c0.711,0.097,1.432,0.164,2.113,0.387c1.27,0.417,2.347,1.119,3.286,2.003
					C120.978,419.109,120.937,419.152,120.911,419.205z M119.455,411.068c0.109-0.983,0.664-2.078,1.819-2.247
					c1.11-0.162,1.832,0.455,2.184,1.402c0.477,1.284,0.168,2.344-0.222,3.607c-0.314,1.017-0.617,2.033-0.9,3.054
					C121.409,415.073,119.221,413.174,119.455,411.068z M124.851,433.917c-3.584-0.002-4.944-1.217-4.078-3.646
					c0.089-0.289,0.178-0.577,0.268-0.866c0.37-1.142,0.98-2.193,1.367-3.329c0.389-1.142,0.567-2.291,0.662-3.456
					c0.715,1.189,1.295,2.453,1.7,3.82C125.337,428.358,126.084,432.069,124.851,433.917z"/>
				<path style="fill:#F99B34;" d="M99.64,413.421c-0.301-0.638-1.248-0.082-0.948,0.554c1.319,2.793,1.165,5.899-0.373,8.568
					c-0.353,0.613,0.595,1.166,0.948,0.554C101.013,420.067,101.13,416.576,99.64,413.421z"/>
				<path style="fill:#F99B34;" d="M104.034,414.686c-0.215-0.67-1.275-0.384-1.058,0.292c0.72,2.248,0.644,4.55-0.299,6.725
					c-0.278,0.642,0.667,1.201,0.948,0.554C104.685,419.81,104.85,417.233,104.034,414.686z"/>
				<path style="fill:#F99B34;" d="M94.87,428.553c-0.588-1.177-1.39-1.101-2.558-1.254c-1.349-0.176-2.733-0.047-3.512-1.37
					c-0.356-0.604-0.444-1.564-0.557-2.225c-0.276-1.623-0.438-3.276-0.496-4.921c-0.082-2.342,0.485-4.019,2.537-5.408
					c0.839-0.568,1.675-0.859,2.359-1.644c0.932-1.07,1.142-2.165,0.596-3.447c-0.276-0.648-1.222-0.089-0.948,0.554
					c-0.22,0.797-0.44,1.594-0.66,2.392c-0.476,0.388-0.985,0.721-1.529,0.997c-0.601,0.359-1.224,0.64-1.767,1.097
					c-0.531,0.447-0.905,0.917-1.207,1.548c-0.996,2.08-0.481,4.963-0.224,7.143c0.211,1.789,0.309,4.218,1.58,5.641
					c0.407,0.456,0.847,0.781,1.45,0.941c1.08,0.287,3.34-0.794,3.991,0.509C94.238,429.739,95.185,429.184,94.87,428.553z"/>
			</g>
			<path style="fill:#754C6B;" d="M220.657,368.737c-0.834,1.444-1.478,2.665-1.803,3.202c-2.367,3.912-4.83,7.837-8.078,11.091
				c-3.858,3.865-8.757,6.057-13.625,8.353c-11.529,5.439-23.059,10.877-34.588,16.315c-5.834,2.752-11.654,5.537-17.506,8.251
				c-5.318,2.466-10.728,4.666-16.506,5.705c-0.972-0.4-1.914-0.884-2.829-1.437c1.319,2.615,3.118,4.594,5.787,4.574
				c3.809-0.029,8.3-2.239,11.816-3.549c4.606-1.717,9.112-3.698,13.568-5.77c9.505-4.421,18.886-9.121,28.313-13.707
				c8.227-4.001,17.511-7.401,24.882-12.891C215.66,384.723,220.505,376.294,220.657,368.737z"/>
			<path style="fill:#D88430;" d="M170.834,368.368c-2.071-0.806-4.159-1.29-6.308-1.506c-1.623-0.602-3.246-1.205-4.871-1.802
				c-2.623-0.964-4.327-1.215-6.995-0.255c-6.574,2.368-13.174,5.082-20.282,5.109c-6.08,0.024-12.308-2.04-16.184-6.912
				c-1.245-1.565-2.288-3.182-4.383-3.613c-2.805-0.578-5.721,0.935-8.5,1.105c-0.699,0.043-0.713,1.103,0,1.098
				c6.794-0.048,11.418,5.772,16.868,8.955c4.821,2.816,10.369,4.292,15.939,4.446c5.422,0.15,10.915-0.987,15.782-3.396
				c1.359-0.672,2.579-1.571,3.915-2.27c2.383-1.246,4.108-0.25,6.435,0.294c2.861,0.669,5.752,0.525,8.584-0.194
				C171.402,369.282,171.306,368.552,170.834,368.368z"/>
			<path style="fill:#D88430;" d="M172.778,326.327c0.735-4.94,1.47-9.88,2.205-14.82c0.103-0.691-0.954-0.989-1.058-0.292
				l-0.139,0.931c-0.04,0.056-0.07,0.126-0.086,0.211c-0.755,4.116-3.173,7.623-5.256,11.176c-2.019,3.444-3.968,6.941-6.073,10.333
				c-2.22,3.578-5.606,7.291-10.268,5.833c-2.308-0.722-4.46-2.239-6.719-0.577c-1.562,1.149-2.383,2.632-4.54,2.791
				c-1.758,0.129-3.574-0.479-5.052-1.396c-2.992-1.857-4.85-5.023-7.345-7.427c-1.89-1.821-2.754-1.689-5.149-1.019
				c-1.631,0.457-3.148,0.293-4.555-0.246c-2.163-7.389-4.325-14.777-6.488-22.166c-0.17-0.581-1.098-0.488-1.078,0.146
				l0.522,16.943c-0.29,0.157-0.464,0.564-0.168,0.877c0.065,0.069,0.136,0.139,0.202,0.207l0.153,4.957
				c0.007,0.229,0.017,0.462,0.029,0.697l-0.308,1.909c-0.012,0.077-0.006,0.148,0.008,0.214c-0.206,0.23-0.256,0.643,0.07,0.881
				c0.152,0.111,0.302,0.224,0.454,0.335c0.171,2.769,0.18,5.634-0.995,7.93c-1.031,2.015-3.08,3.96-3.268,6.319
				c-0.089,1.109,0.288,2.693,1.525,3.042c1.675,0.473,3.531-2.002,4.52-2.936c2.606-2.46,4.915-5.477,5.645-8.861
				c5.079,3.772,10.161,7.542,15.331,11.178c2.95,2.074,6.203,4.065,9.868,4.441c2.312,0.237,4.641-0.73,6.91-0.186
				c1.646,0.394,3.03,1.234,4.745,1.435c6.218,0.726,12.14-3.728,14.948-9.001c3.778-7.097,2.825-15.678,1.97-23.344
				C173.302,326.515,173.038,326.346,172.778,326.327z"/>
			<path style="fill:#FFE4D2;" d="M116.095,300.224c0.065-0.058,0.132-0.114,0.189-0.185c0.802-1.009,0.175-1.778-0.741-2.301
				c0.412-0.125,0.802-0.295,1.155-0.539c0.931-0.647,1.103-1.741,0.116-2.494c-1.508-1.15-5.02-0.547-6.753-0.519
				c-1.388,0.023-2.774,0.065-4.091,0.543c-1.177,0.428-2.161,1.184-3.275,1.723c-0.36-1.153-0.686-2.316-0.955-3.497
				c0.621-0.653,1.31-1.151,1.971-1.869c0.465-0.506,0.92-1.059,0.859-1.805c-0.107-1.303-1.404-1.7-2.479-1.314
				c-1.52,0.546-3.359,2.374-4.03,3.828c-0.823,1.783,0.472,4.558,1.156,6.506c-1.077,3.336,0.99,6.784,1.827,10.046
				c1.437,5.601,1.367,11.498,0.542,17.188c-0.673,4.641-2.586,9.445-1.983,14.182c0.511,4.013,2.943,8.108,5.507,11.163
				c2.181,2.599,4.975,1.655,7.024-0.665c2.567-2.907,3.457-6.922,3.508-10.703c0.067-5.016-0.982-10.151-1.761-15.088
				c-0.84-5.325-1.889-10.603-3.42-15.775c0.84-0.513,1.678-1.029,2.517-1.543c0.784-0.48,2.021-0.944,2.612-1.678
				c1.166-1.449-0.056-1.902-1.57-1.988c0.99-0.18,2.032-0.405,2.623-0.873C117.691,301.736,116.989,300.812,116.095,300.224z"/>
			<path style="fill:#EFCEB9;" d="M108.882,326.071c0.652-5.757,0.328-11.723-2.694-16.811c-1.77-2.98-3.848-5.609-5.137-8.87
				c-0.854-2.161-1.426-4.392-1.751-6.667c0.289-0.053,0.53-0.293,0.398-0.646c-0.421-1.126-0.123-2.31-0.01-3.463
				c-0.702,0.691-1.302,1.479-1.627,2.182c-0.823,1.783,0.472,4.558,1.156,6.506c-1.077,3.336,0.99,6.784,1.827,10.046
				c1.437,5.601,1.367,11.498,0.542,17.188c-0.673,4.641-2.586,9.445-1.983,14.182c0.511,4.013,2.943,8.108,5.507,11.163
				c0.261,0.311,0.532,0.569,0.808,0.782c0.525-2.265,0.123-5.125,0.18-6.897C106.3,338.44,108.172,332.335,108.882,326.071z"/>
			<path style="fill:#844E73;" d="M156.522,224.936c-2.419-5.944-6.499-10.839-11.385-14.932
				c-7.036-5.895-19.817-10.258-25.622-0.453c-1.942,0.973-3.44,2.788-3.966,4.945c-0.921,1.07-1.5,2.313-1.385,3.684
				c0.344,4.112,4.326,1.924,6.437,0.895c5.93-2.89,13.309-4.513,19.476-1.355c5.794,2.968,11.555,10.025,14.01,15.955
				c0.116,0.282,0.325,0.491,0.649,0.494C159.872,234.217,157.632,227.662,156.522,224.936z"/>
			<path style="fill:#FDB344;" d="M156.611,234.964c-0.648-1.757-1.94-3.204-3.081-4.656c-0.587-0.747-2.114-2.048-2.363-3.005
				c-0.346-1.329,0.008,0.144,0.074-1.303c0.117-2.56-0.505-2.729-2.55-3.82c-2.057-1.097-2.759-3.225-4.764-3.016
				c0.035-0.592-0.178-1.206-0.697-1.739c-1.17-1.202-2.794-0.813-4.201-0.231c-0.644-2.535-3.312-3.001-5.616-2.063
				c-0.098-0.505-0.416-0.953-1.027-1.268c-1.604-0.828-3.448,0.269-4.74,1.489c-1.151-0.727-2.584-0.568-3.622,0.466
				c-1.635-0.798-3.364-0.397-4.489,1.003c-2.169-1.188-4.591-0.714-6.221,1.087c-3.34-2.46-5.838,0.688-7.932,3.388
				c-1.434,1.849-0.981,3.136-1.219,5.213c-0.262,2.292-1.005,3.606,0.047,5.676c-2.883,2.476-1.049,6.869-1.461,10.21
				c-0.17,1.377-0.587,2.814,0.114,4.127c0.437,0.817,3.616,2.534,3.844,2.605c-0.022,0.023-0.039,0.038-0.062,0.062
				c-0.599,0.632-1.082,1.187-0.965,2.112c0.202,1.607,4.001,3.012,1.046,5.118c-0.699,0.499-0.028,1.667,0.68,1.163
				c1.394-0.994,2.216-2.639,1.436-4.342c-0.657-1.436-1.922-1.822-0.676-3.566c0.529-0.74,1.062-1.228,1.529-2.019
				c0.862-1.461,1.953-1.899,2.997-3.094c0.575-0.657,0.986-1.387,0.862-2.291c-0.106-0.77-0.504-1.329-1.047-1.65
				c1.552-1.663,1.534-4.082-0.073-5.716c2.249-0.828,3.38-3.127,2.476-5.438c1.065-0.114,2.025-0.74,2.445-1.878
				c0.298-0.807-0.027-1.105-0.036-1.908c-0.027-2.335,0.727-2.355,1.618-3.599c1.969,1.373,4.536,1.042,6.147-0.567
				c0.08,0.291,0.3,0.545,0.636,0.527c0.142-0.007,0.285-0.015,0.427-0.022c-0.05,0.8,0.296,1.439,0.853,1.776
				c-0.051,0.111-0.106,0.221-0.146,0.339c-0.24,0.704-0.147,1.421-0.364,2.128c-0.215,0.698-0.833,0.814-0.8,1.701
				c0.036,0.98,0.656,1.48,1.418,1.583c-0.034,0.629-0.069,1.258-0.103,1.887c-0.185,0.501,0.366,0.946,0.828,0.828
				c0.008,0.387,0.017,0.773,0.025,1.16c-0.854,0.124-0.491,1.421,0.358,1.298c2.714-0.393,2.439-3.505,0.343-3.823
				c0.147-0.723,0.1-1.363-0.125-2.215c-0.097-0.366-0.475-0.546-0.828-0.47c0.129-0.487,0.258-0.974,0.387-1.461
				c0.182-0.154,0.228-0.436,0.173-0.655l3.815-1.597c0.074,0.114,0.168,0.211,0.28,0.289c0.163,0.005,0.266,0.357,0.472,0.326
				c0.611-0.09,1.196-0.253,1.789-0.395c0.681,2.981,3.519,4.941,6.525,4.39c-0.148,2.679,1.789,5.003,4.501,5.251
				c-0.613,2.364-1.444,5.11,0.187,7.17c0.738,0.931,1.755,1.472,2.803,1.484c-0.618,1.991,0.561,4.27,3.096,4.245
				c3.341-0.032,4.35-3.523,2.946-6.007C156.666,239.817,157.543,237.491,156.611,234.964z"/>
			<path style="fill:#D8943A;" d="M154.027,246.396c-1.668-0.486-3.675-1.239-1.823-3.71c0.217-0.29-0.018-0.721-0.328-0.806
				c-2.916-0.805-1.724-4.139-0.92-5.833c0.123-0.258,0.083-0.603-0.197-0.751c-1.861-0.979-2.683-2.959-1.792-4.968
				c0.198-0.446-0.125-0.9-0.62-0.806c-2.443,0.466-4.327-1.482-4.098-3.843c0.034-0.352-0.378-0.628-0.695-0.529
				c-2.287,0.715-4.607-0.436-5.345-2.744c-0.086-0.267-0.386-0.486-0.675-0.383c-1.59,0.562-3.165,0.069-4.068-1.431
				c-0.199-0.331-0.586-0.328-0.862-0.111c-2.951,2.32-4.083-0.656-6.668-0.785c-0.901-0.045-1.97,0.519-3.022,0.892
				c-0.118-0.103-0.276-0.159-0.474-0.103c-0.822-0.425-1.643-0.85-2.465-1.275c-0.159-0.469-0.954-0.573-1.058,0
				c-0.674,0.253-1.347,0.507-2.021,0.76c-0.36-0.277-0.8,0.11-0.826,0.474c-0.143,1.997-1.158,3.407-3.025,4.147
				c-0.269,0.107-0.479,0.367-0.383,0.675c0.758,2.443-0.393,4.919-2.846,5.798c-0.332,0.119-0.514,0.48-0.328,0.806
				c0.763,1.338,1.1,2.85,0.634,4.353c-0.318,1.024-0.638,1.004-0.726,1.709c-0.101,0.804,0.41,1.75,0.253,2.674
				c-0.272,1.605-1.151,2.739-2.551,3.547c-0.201,0.116-0.328,0.392-0.252,0.62c0.356,1.061-1.019,2.541-1.621,3.212
				c-0.068,0.076-0.144,0.141-0.219,0.208c0.825,0.5,1.592,0.902,1.7,0.936c-0.022,0.023-0.039,0.038-0.062,0.062
				c-0.599,0.632-1.082,1.187-0.965,2.112c0.202,1.607,4.001,3.012,1.046,5.118c-0.699,0.499-0.028,1.667,0.68,1.162
				c1.394-0.994,2.216-2.639,1.436-4.342c-0.657-1.436-1.922-1.822-0.676-3.566c0.529-0.739,1.062-1.228,1.529-2.019
				c0.862-1.461,1.953-1.899,2.997-3.093c0.575-0.657,0.986-1.387,0.862-2.291c-0.106-0.77-0.504-1.329-1.047-1.65
				c1.552-1.663,1.534-4.082-0.073-5.716c2.249-0.828,3.38-3.127,2.476-5.438c1.065-0.115,2.025-0.74,2.445-1.878
				c0.298-0.807-0.027-1.105-0.036-1.907c-0.027-2.335,0.727-2.355,1.618-3.599c1.969,1.373,4.536,1.042,6.147-0.567
				c0.08,0.291,0.3,0.545,0.636,0.527c0.142-0.007,0.285-0.015,0.427-0.022c-0.05,0.8,0.296,1.439,0.853,1.776
				c-0.051,0.111-0.106,0.221-0.146,0.339c-0.24,0.704-0.147,1.421-0.364,2.128c-0.215,0.698-0.833,0.814-0.8,1.701
				c0.036,0.98,0.656,1.48,1.418,1.583c-0.034,0.629-0.069,1.258-0.103,1.887c-0.185,0.501,0.366,0.946,0.828,0.828
				c0.008,0.387,0.017,0.773,0.025,1.16c-0.854,0.124-0.491,1.421,0.358,1.298c2.714-0.393,2.439-3.505,0.343-3.823
				c0.147-0.723,0.1-1.363-0.125-2.215c-0.097-0.366-0.475-0.546-0.828-0.47c0.129-0.487,0.258-0.974,0.387-1.461
				c0.182-0.154,0.228-0.436,0.173-0.655l3.815-1.598c0.074,0.115,0.168,0.211,0.28,0.289c0.163,0.005,0.266,0.357,0.472,0.326
				c0.611-0.09,1.196-0.253,1.789-0.395c0.681,2.981,3.519,4.941,6.525,4.39c-0.148,2.679,1.789,5.003,4.501,5.251
				c-0.613,2.364-1.444,5.11,0.187,7.17c0.738,0.931,1.754,1.472,2.803,1.484c-0.618,1.991,0.561,4.27,3.096,4.245
				C152.649,247.25,153.445,246.919,154.027,246.396z"/>
			<path style="fill:#633757;" d="M141.43,212.548c-4.435-3.106-9.624-4.507-14.986-4.863c-1.841-0.122-3.7-0.129-5.552-0.046
				c-0.491,0.568-0.954,1.198-1.376,1.911c-0.705,0.353-1.348,0.82-1.911,1.371c0.164,0.037,0.328,0.067,0.488,0.125
				c0.357,0.102,0.602-0.141,0.66-0.424c3.404-0.687,6.865-1.284,10.342-1.034c4.196,0.302,7.973,2.286,11.782,3.908
				C141.519,213.77,142.021,212.962,141.43,212.548z"/>
			<path style="fill:#633757;" d="M157.572,232.731c-0.888-4.096-3.514-8.098-6.018-11.369c-0.161-0.3-0.309-0.605-0.473-0.903
				c-0.105-0.19-0.268-0.26-0.433-0.261c-0.021-0.027-0.043-0.055-0.064-0.082c-0.439-0.553-1.211,0.229-0.776,0.776
				c0.262,0.329,0.53,0.675,0.8,1.026c2.096,3.896,3.911,7.915,5.46,12.055C156.793,233.742,157.278,233.307,157.572,232.731z"/>
			<path style="fill:#D8943A;" d="M121.296,241.583c-2.217-0.245-4.401,0.268-6.303,1.427c-1.205,0.734-0.103,2.633,1.108,1.896
				c1.607-0.979,3.328-1.334,5.195-1.128C122.698,243.933,122.687,241.737,121.296,241.583z"/>
			<path style="fill:#D8943A;" d="M136.645,236.075c-2.949-0.516-5.877,0.076-8.304,1.863c-1.126,0.829-0.032,2.734,1.108,1.895
				c1.937-1.426,4.222-2.06,6.613-1.642C137.443,238.433,138.036,236.318,136.645,236.075z"/>
			<path style="fill:#180423;" d="M119.358,246.654c-1.412,0-1.415,2.195,0,2.195C120.77,248.85,120.772,246.654,119.358,246.654z"
				/>
			<path style="fill:#180423;" d="M133.077,241.167c-1.412,0-1.415,2.195,0,2.195C134.489,243.362,134.492,241.167,133.077,241.167z
				"/>
			<path style="fill:#CCA592;" d="M130.457,252.003c-0.331,0.501-0.712,1.194-1.209,1.551c-1.028,0.738-3.286,0.783-2.233-1.509
				c0.327-0.712,0.993-1.229,1.296-1.973c0.701-1.722-0.013-3.484-0.711-5.082c-0.265-0.608-1.154-0.082-0.89,0.522
				c0.626,1.434,1.274,3.095,0.429,4.586c-0.366,0.646-0.918,1.168-1.26,1.83c-0.415,0.804-0.535,1.736,0.075,2.489
				c1.821,2.248,4.365-0.339,5.394-1.892C131.715,251.969,130.823,251.451,130.457,252.003z"/>
			<path style="fill:#CCA592;" d="M131.997,262.01c1.854-0.553,3.37-1.815,4.335-3.439c0.395-0.849,0.712-1.757,0.997-2.626
				c0.151-0.791,0.184-1.612,0.087-2.44c-0.143,0.019-0.281,0.097-0.364,0.268c-0.896,1.844-1.883,3.726-3.97,4.372
				c-1.305,0.404-3.01,0.506-4.027,1.455c-0.247,0.23-0.182,0.56-0.001,0.749c-0.001,0.017-0.002,0.033-0.003,0.049
				c0.576,0.71,1.246,1.234,2.016,1.645C131.36,262.076,131.677,262.053,131.997,262.01z"/>
			<path style="fill:#EFCEB9;" d="M110.3,296.752c-0.865-0.111-1.732-0.166-2.604-0.166c-0.706,0-0.707,1.098,0,1.098
				c0.872,0,1.739,0.055,2.604,0.166C110.998,297.939,110.992,296.841,110.3,296.752z"/>
			<path style="fill:#EFCEB9;" d="M111.952,299.653c-0.635-0.145-1.273-0.209-1.924-0.181c-0.704,0.031-0.707,1.128,0,1.098
				c0.556-0.024,1.089,0.018,1.632,0.141C112.348,300.868,112.642,299.81,111.952,299.653z"/>
			<path style="fill:#EFCEB9;" d="M112.361,302.766h-2.332c-0.706,0-0.707,1.098,0,1.098h2.332
				C113.067,303.864,113.068,302.766,112.361,302.766z"/>
			<path style="fill:#EFCEB9;" d="M103.441,288.431c0.101-0.469-0.458-0.71-0.826-0.495c-0.582,0.044-1.176,0.63-1.38,1.115
				c-0.137,0.325,0.206,0.711,0.529,0.695c0.236-0.012,0.446-0.069,0.642-0.149c0.314,0.025,0.63-0.021,0.861-0.269
				C103.493,289.087,103.561,288.727,103.441,288.431z"/>
			<path style="fill:#FFDDC6;" d="M191.929,322.861c-6.157-1.37-12.275-1.263-18.563-0.165c-1.495,1.834-2.516,4.815-3.396,6.851
				c-1.135,2.624-2.072,5.313-2.864,8.056c-0.179-0.083-0.356-0.167-0.537-0.25c-1.452-0.661-2.877-1.362-4.274-2.118
				c-0.062-0.022-0.122-0.024-0.185-0.059c-7.148-3.991-14.719-9.747-19.963-16.07c-2.483-2.994-4.049-6.625-6.461-9.668
				c-0.96-0.894-1.943-1.764-2.952-2.606c-0.134-0.245-6.825-4.233-10.406-4.706c-0.031-0.004-0.052-0.022-0.082-0.028
				c-0.02,0.023-0.031,0.052-0.047,0.078l0.573,0.86c0.122,0.184,1.387,2.178,1.764,3.155c-2.805-0.89-5.203-2.613-7.944-3.698
				c-1.182-0.468-4.601-1.665-5.668-0.364c-0.799,0.974,0.07,2.216,1.599,3.454c-0.248,0.089-0.485,0.228-0.675,0.454
				c-0.625,0.745-0.35,1.679,0.183,2.39c0.42,0.56,0.937,1.07,1.511,1.538c-0.215,0.009-0.431,0.019-0.646,0.028
				c-0.307,0.013-0.534,0.241-0.549,0.549c-0.067,1.412,0.673,2.498,1.77,3.275c-0.065,0.109-0.087,0.247-0.031,0.409
				c3.19,9.255,14.679,9.094,21.268,14.687c5.988,5.804,11.976,11.609,17.964,17.413c3.204,3.105,6.407,6.211,9.611,9.316
				c1.819,1.763,4.268,5.154,7.191,4.895c2.497-0.221,4.908-3.054,6.404-4.804c2.287-2.676,4.02-5.776,5.383-9.01
				c1.93-4.578,9.468-19.855,10.217-23.791C192.061,322.905,191.994,322.885,191.929,322.861z"/>
			<path style="fill:#EFCEB9;" d="M192.126,322.93c-0.065-0.025-0.132-0.045-0.197-0.069c-0.885-0.197-1.769-0.355-2.653-0.492
				c-1.339,3.447-2.523,6.973-3.807,10.429c-1.957,5.272-3.794,10.609-5.878,15.833c-0.735,1.844-1.448,3.475-3.281,4.488
				c-0.55,0.304-1.155,0.543-1.772,0.753c-2.822-0.258-5.578-1.619-8.228-2.935c-7.09-3.522-13.752-7.343-18.949-13.444
				c-4.009-4.705-7.496-10.194-12.813-13.567c-2.26-1.434-4.679-2.177-7.241-2.675c-3.741-2.166-7.725-3.872-11.91-5.077
				c-0.266-0.455-0.494-0.952-0.666-1.508c-0.095-0.306-0.366-0.406-0.614-0.368c3.227,9.176,14.666,9.036,21.237,14.614
				c5.988,5.804,11.976,11.609,17.964,17.413c3.204,3.105,6.407,6.211,9.611,9.316c1.819,1.763,4.268,5.154,7.191,4.895
				c2.497-0.221,4.908-3.054,6.404-4.804c2.287-2.676,4.02-5.776,5.383-9.01C183.839,342.144,191.378,326.867,192.126,322.93z"/>
			<path style="fill:#EFCEB9;" d="M119.234,310.034c-1.274-0.268-2.514-0.649-3.71-1.168c-0.641-0.279-1.201,0.667-0.554,0.948
				c1.286,0.559,2.599,0.991,3.972,1.279C119.631,311.237,119.926,310.18,119.234,310.034z"/>
			<path style="fill:#EFCEB9;" d="M119.357,314.196c-0.96-0.367-1.92-0.734-2.88-1.101c-0.66-0.253-0.946,0.808-0.292,1.058
				c0.96,0.367,1.92,0.734,2.88,1.101C119.726,315.507,120.012,314.447,119.357,314.196z"/>
			<path style="fill:#EFCEB9;" d="M117.445,306.482c-0.852-0.218-1.66-0.542-2.435-0.954c-0.626-0.332-1.126,0.812-0.449,1.002
				c0.905,0.254,1.783,0.701,2.708,1.035C117.935,307.806,118.125,306.655,117.445,306.482z"/>
			<path style="fill:#EFCEB9;" d="M113.258,302.684c-0.005-0.138-0.056-0.271-0.149-0.393c-0.001-0.002,0-0.005-0.001-0.007
				c-0.002-0.006-0.004-0.011-0.006-0.017c-0.03-0.069-0.069-0.13-0.12-0.184c-0.03-0.041-0.042-0.091-0.082-0.126
				c-0.198-0.173-0.43-0.173-0.617-0.082c-0.228,0.019-0.453,0.165-0.498,0.391c-0.006,0.03-0.005,0.061-0.007,0.092
				c-0.245,0.229-0.302,0.636,0.061,0.825c0.058,0.169,0.212,0.313,0.378,0.358c0.024,0.007,0.046,0.002,0.07,0.006
				c0.047,0.013,0.094,0.023,0.144,0.022c0.228,0.046,0.471,0.008,0.66-0.154C113.327,303.215,113.34,302.941,113.258,302.684z"/>
		</g>
	</g>
</g>
</svg>
