<?xml version="1.0" encoding="utf-8"?>
<!-- Generator: Adobe Illustrator 27.5.0, SVG Export Plug-In . SVG Version: 6.00 Build 0)  -->
<svg version="1.1" xmlns="http://www.w3.org/2000/svg" xmlns:xlink="http://www.w3.org/1999/xlink" x="0px" y="0px"
	 viewBox="0 0 500 500" style="enable-background:new 0 0 500 500;" xml:space="preserve">
<g id="Floor">
	<path style="fill:#F0F0F0;" d="M409.038,255.092c-88.41-51.043-231.282-51.043-319.117,0.001
		C2.081,306.141,2.546,388.898,90.956,439.942c88.415,51.047,231.288,51.046,319.128-0.002
		C497.919,388.896,497.454,306.139,409.038,255.092z"/>
</g>
<g id="Shadows_1_">
	<path style="opacity:0.1;" d="M60.133,340.163c-6.205-3.582-16.232-3.582-22.397,0c-6.165,3.583-6.132,9.391,0.073,12.973
		c6.205,3.583,16.232,3.582,22.397,0C66.37,349.554,66.338,343.745,60.133,340.163z"/>
	<path style="opacity:0.1;" d="M452.731,336.662c-6.539-3.776-17.107-3.776-23.604,0c-6.497,3.776-6.463,9.897,0.077,13.673
		c6.54,3.776,17.108,3.776,23.605,0C459.305,346.559,459.271,340.438,452.731,336.662z"/>
	<path style="opacity:0.1;" d="M443.882,361.442l-96.906-55.841l-85.852,49.621l20.106,11.586c-10.9,0.837-21.418,3.676-29.769,8.53
		c-20.187,11.731-20.08,30.75,0.238,42.481c20.319,11.731,53.153,11.731,73.34,0c8.377-4.868,13.247-10.992,14.64-17.329
		l18.35,10.574L443.882,361.442z"/>
	<g style="opacity:0.1;">
		<polygon points="311.156,257.475 59.985,404.146 49.344,398.003 300.515,251.331 		"/>
	</g>
</g>
<g id="Plant">
	<g>
		<g>
			<path style="fill:#FFFFFF;" d="M63.994,319.549l-15.023,0.438l-15.023-0.438c-0.647,10.145,1.334,20.484,4.065,25.535
				l0.011-0.002c0.489,1.108,1.472,2.159,2.974,3.026c4.433,2.559,11.596,2.559,16,0c1.527-0.887,2.509-1.967,2.972-3.105
				C62.679,339.927,64.638,329.645,63.994,319.549z"/>
			<g>
				<path style="fill:#EBEBEB;" d="M59.559,313.396c5.886,3.398,5.917,8.908,0.07,12.306c-5.848,3.398-15.36,3.398-21.246,0
					c-5.886-3.398-5.917-8.908-0.069-12.306C44.161,309.998,53.673,309.998,59.559,313.396z"/>
			</g>
			<g>
				<path style="fill:#E0E0E0;" d="M57.231,314.749c4.592,2.651,4.616,6.95,0.054,9.601c-4.562,2.651-11.983,2.651-16.575,0
					c-4.592-2.651-4.616-6.95-0.054-9.601C45.218,312.098,52.639,312.098,57.231,314.749z"/>
			</g>
			<g style="opacity:0.15;">
				<path d="M57.231,314.749c4.592,2.651,4.616,6.95,0.054,9.601c-4.562,2.651-11.983,2.651-16.575,0
					c-4.592-2.651-4.616-6.95-0.054-9.601C45.218,312.098,52.639,312.098,57.231,314.749z"/>
			</g>
		</g>
		<g>
			<path style="fill:#BA68C8;" d="M41.308,288.806c-2.443-3.038-5.281-5.759-7.521-8.949c-1.528-2.177-2.806-4.84-2.164-7.421
				c0.596-2.395,2.834-4.176,5.259-4.629c2.426-0.454,4.965,0.271,7.06,1.575c2.095,1.304,3.798,3.149,5.336,5.079
				c8.406,10.549,12.5,24.434,11.164,37.856c-0.153,1.538-0.411,3.157-1.394,4.35c-1.054,1.28-2.901,1.844-4.491,1.373
				c-4.092-1.215-3.549-6.743-4.219-9.995c-0.917-4.457-2.509-8.775-4.701-12.763C44.386,293.003,42.938,290.832,41.308,288.806z"/>
			<path style="opacity:0.2;" d="M41.308,288.806c-2.443-3.038-5.281-5.759-7.521-8.949c-1.528-2.177-2.806-4.84-2.164-7.421
				c0.596-2.395,2.834-4.176,5.259-4.629c2.426-0.454,4.965,0.271,7.06,1.575c2.095,1.304,3.798,3.149,5.336,5.079
				c8.406,10.549,12.5,24.434,11.164,37.856c-0.153,1.538-0.411,3.157-1.394,4.35c-1.054,1.28-2.901,1.844-4.491,1.373
				c-4.092-1.215-3.549-6.743-4.219-9.995c-0.917-4.457-2.509-8.775-4.701-12.763C44.386,293.003,42.938,290.832,41.308,288.806z"/>
			<g>
				<path style="fill:#F0F0F0;" d="M54.812,313.919c-0.158-0.031-0.281-0.167-0.289-0.336c-0.286-6.57-2.422-28.993-17.875-41.715
					c-0.153-0.126-0.174-0.352-0.049-0.504c0.126-0.153,0.351-0.174,0.504-0.049c15.681,12.911,17.846,35.592,18.136,42.237
					c0.008,0.198-0.145,0.365-0.342,0.374C54.868,313.926,54.84,313.924,54.812,313.919z"/>
			</g>
			<g>
				<path style="fill:#BA68C8;" d="M57.071,314.63c-0.468,2.578-2.683,5.77-5.018,6.958c-2.315,1.178-5.003,1.493-7.593,1.271
					c-2.637-0.227-5.199-0.983-7.708-1.828c-1.239-0.417-2.616-0.98-2.748-2.515c-0.07-0.81,0.294-1.594,0.876-2.161
					c0.244-0.238,0.513-0.47,0.8-0.688c0.583-0.446,0.309-1.372-0.423-1.423c-0.737-0.05-1.471-0.133-2.197-0.271
					c-1.677-0.32-3.329-0.96-4.612-2.086c-0.964-0.846-1.694-1.949-2.13-3.155c-0.373-1.032-0.477-2.327,0.304-3.098
					c0.448-0.442,1.093-0.61,1.708-0.743c0.549-0.119,1.1-0.22,1.652-0.306c0.734-0.114,0.856-1.116,0.17-1.401l-2.331-0.971
					c-0.647-0.27-1.321-0.559-1.769-1.098c-0.714-0.86-0.663-2.113-0.448-3.21c0.285-1.459,0.789-2.866,1.132-4.312
					c0.343-1.446,0.523-2.973,0.154-4.413c4.352-0.441,8.823-0.234,13.055,0.872c1.264,0.33,2.543,0.744,3.563,1.56
					c1.453,1.163,1.832,2.908,1.677,4.799c-0.029,0.359,0.464,0.494,0.635,0.178l1.489-2.746c0.449-0.827,1.464-1.139,2.316-0.74
					c1.285,0.603,2.432,1.569,3.405,2.678c1.05,1.196,1.586,2.772,1.457,4.359c-0.174,2.145-0.548,4.318-1.086,6.399
					c-0.141,0.545,0.47,0.956,0.927,0.626l0.071-0.051c0.407-0.294,0.906-0.47,1.404-0.408c1.316,0.163,1.653,1.497,1.74,2.633
					C57.672,310.981,57.381,312.919,57.071,314.63z"/>
				<path style="opacity:0.2;" d="M57.071,314.63c-0.468,2.578-2.683,5.77-5.018,6.958c-2.315,1.178-5.003,1.493-7.593,1.271
					c-2.637-0.227-5.199-0.983-7.708-1.828c-1.239-0.417-2.616-0.98-2.748-2.515c-0.07-0.81,0.294-1.594,0.876-2.161
					c0.244-0.238,0.513-0.47,0.8-0.688c0.583-0.446,0.309-1.372-0.423-1.423c-0.737-0.05-1.471-0.133-2.197-0.271
					c-1.677-0.32-3.329-0.96-4.612-2.086c-0.964-0.846-1.694-1.949-2.13-3.155c-0.373-1.032-0.477-2.327,0.304-3.098
					c0.448-0.442,1.093-0.61,1.708-0.743c0.549-0.119,1.1-0.22,1.652-0.306c0.734-0.114,0.856-1.116,0.17-1.401l-2.331-0.971
					c-0.647-0.27-1.321-0.559-1.769-1.098c-0.714-0.86-0.663-2.113-0.448-3.21c0.285-1.459,0.789-2.866,1.132-4.312
					c0.343-1.446,0.523-2.973,0.154-4.413c4.352-0.441,8.823-0.234,13.055,0.872c1.264,0.33,2.543,0.744,3.563,1.56
					c1.453,1.163,1.832,2.908,1.677,4.799c-0.029,0.359,0.464,0.494,0.635,0.178l1.489-2.746c0.449-0.827,1.464-1.139,2.316-0.74
					c1.285,0.603,2.432,1.569,3.405,2.678c1.05,1.196,1.586,2.772,1.457,4.359c-0.174,2.145-0.548,4.318-1.086,6.399
					c-0.141,0.545,0.47,0.956,0.927,0.626l0.071-0.051c0.407-0.294,0.906-0.47,1.404-0.408c1.316,0.163,1.653,1.497,1.74,2.633
					C57.672,310.981,57.381,312.919,57.071,314.63z"/>
				<path style="opacity:0.2;fill:#FFFFFF;" d="M57.071,314.63c-0.468,2.578-2.683,5.77-5.018,6.958
					c-2.315,1.178-5.003,1.493-7.593,1.271c-2.637-0.227-5.199-0.983-7.708-1.828c-1.239-0.417-2.616-0.98-2.748-2.515
					c-0.07-0.81,0.294-1.594,0.876-2.161c0.244-0.238,0.513-0.47,0.8-0.688c0.583-0.446,0.309-1.372-0.423-1.423
					c-0.737-0.05-1.471-0.133-2.197-0.271c-1.677-0.32-3.329-0.96-4.612-2.086c-0.964-0.846-1.694-1.949-2.13-3.155
					c-0.373-1.032-0.477-2.327,0.304-3.098c0.448-0.442,1.093-0.61,1.708-0.743c0.549-0.119,1.1-0.22,1.652-0.306
					c0.734-0.114,0.856-1.116,0.17-1.401l-2.331-0.971c-0.647-0.27-1.321-0.559-1.769-1.098c-0.714-0.86-0.663-2.113-0.448-3.21
					c0.285-1.459,0.789-2.866,1.132-4.312c0.343-1.446,0.523-2.973,0.154-4.413c4.352-0.441,8.823-0.234,13.055,0.872
					c1.264,0.33,2.543,0.744,3.563,1.56c1.453,1.163,1.832,2.908,1.677,4.799c-0.029,0.359,0.464,0.494,0.635,0.178l1.489-2.746
					c0.449-0.827,1.464-1.139,2.316-0.74c1.285,0.603,2.432,1.569,3.405,2.678c1.05,1.196,1.586,2.772,1.457,4.359
					c-0.174,2.145-0.548,4.318-1.086,6.399c-0.141,0.545,0.47,0.956,0.927,0.626l0.071-0.051c0.407-0.294,0.906-0.47,1.404-0.408
					c1.316,0.163,1.653,1.497,1.74,2.633C57.672,310.981,57.381,312.919,57.071,314.63z"/>
				<path style="fill:#F0F0F0;" d="M50.147,321.23c-0.018-0.091-0.92-4.46-3.511-10.176c0-0.102-0.044-0.198-0.124-0.268
					c-0.081-0.177-0.161-0.353-0.246-0.532c0.744-6.835,3.451-11.604,3.478-11.651c0.099-0.171,0.04-0.39-0.131-0.489
					c-0.171-0.096-0.39-0.04-0.489,0.132c-0.027,0.046-2.517,4.432-3.429,10.83c-2.972-5.96-7.714-12.932-15.033-18.026
					c-0.163-0.112-0.385-0.073-0.499,0.089c-0.113,0.162-0.073,0.385,0.089,0.499c7.55,5.254,12.314,12.538,15.209,18.582
					c-5.899-2.872-12.166-1.736-12.445-1.684c-0.194,0.037-0.321,0.224-0.285,0.418c0.028,0.148,0.143,0.257,0.282,0.284
					c0.044,0.009,0.09,0.009,0.136,0.001c0.068-0.013,6.901-1.255,12.808,2.048c2.572,5.658,3.466,9.99,3.484,10.081
					c0.029,0.147,0.144,0.255,0.282,0.282c0.044,0.009,0.091,0.01,0.138,0C50.06,321.612,50.186,321.423,50.147,321.23z"/>
			</g>
		</g>
	</g>
	<g>
		<g>
			<path style="fill:#FFFFFF;" d="M456.8,314.937l-15.833,0.461l-15.833-0.461c-0.682,10.692,1.406,21.589,4.284,26.912l0.011-0.002
				c0.515,1.168,1.551,2.276,3.134,3.189c4.672,2.697,12.221,2.697,16.863,0c1.609-0.935,2.644-2.074,3.132-3.272
				C455.414,336.414,457.479,325.577,456.8,314.937z"/>
			<g>
				<path style="fill:#EBEBEB;" d="M452.126,308.452c6.204,3.581,6.236,9.388,0.073,12.97c-6.163,3.582-16.188,3.582-22.392,0
					c-6.203-3.581-6.236-9.388-0.072-12.97C435.898,304.871,445.923,304.871,452.126,308.452z"/>
			</g>
			<g>
				<path style="fill:#E0E0E0;" d="M449.673,309.878c4.84,2.794,4.866,7.325,0.057,10.119c-4.808,2.794-12.629,2.794-17.469,0
					c-4.84-2.794-4.865-7.324-0.057-10.119C437.012,307.084,444.833,307.084,449.673,309.878z"/>
			</g>
			<g style="opacity:0.15;">
				<path d="M449.673,309.878c4.84,2.794,4.866,7.325,0.057,10.119c-4.808,2.794-12.629,2.794-17.469,0
					c-4.84-2.794-4.865-7.324-0.057-10.119C437.012,307.084,444.833,307.084,449.673,309.878z"/>
			</g>
		</g>
		<g>
			<path style="fill:#BA68C8;" d="M466.999,247.374c-35.681,11.683-36.004,35.553-27.96,52.552
				c2.029,3.441,8.168,5.289,13.512-15.852l-9.372,1.201l10.922-5.536l2.837-8.48l-9.106,0.676l11.559-4.862
				C463.648,254.193,466.999,247.374,466.999,247.374z"/>
			<path style="opacity:0.2;" d="M466.999,247.374c-35.681,11.683-36.004,35.553-27.96,52.552
				c2.029,3.441,8.168,5.289,13.512-15.852l-9.372,1.201l10.922-5.536l2.837-8.48l-9.106,0.676l11.559-4.862
				C463.648,254.193,466.999,247.374,466.999,247.374z"/>
			<path style="opacity:0.2;fill:#FFFFFF;" d="M466.999,247.374c-35.681,11.683-36.004,35.553-27.96,52.552
				c2.029,3.441,8.168,5.289,13.512-15.852l-9.372,1.201l10.922-5.536l2.837-8.48l-9.106,0.676l11.559-4.862
				C463.648,254.193,466.999,247.374,466.999,247.374z"/>
			<path style="fill:#FFFFFF;" d="M456.907,253.344c-18.816,14.281-20.515,30.654-15.199,47.746
				C439.827,286.039,437.795,270.821,456.907,253.344z"/>
		</g>
		<g>
			<path style="fill:#BA68C8;" d="M406.565,271.622c35.171,4.952,39.438,27.129,34.771,44.297
				c-1.317,3.542-6.728,6.283-15.217-12.518l8.928-0.438l-11.091-3.341l-4.051-7.426l8.593-0.883l-11.573-2.607
				C410.818,277.415,406.565,271.622,406.565,271.622z"/>
			<path style="opacity:0.2;fill:#FFFFFF;" d="M406.565,271.622c35.171,4.952,39.438,27.129,34.771,44.297
				c-1.317,3.542-6.728,6.283-15.217-12.518l8.928-0.438l-11.091-3.341l-4.051-7.426l8.593-0.883l-11.573-2.607
				C410.818,277.415,406.565,271.622,406.565,271.622z"/>
			<path style="opacity:0.1;" d="M406.565,271.622c35.171,4.952,39.438,27.129,34.771,44.297
				c-1.317,3.542-6.728,6.283-15.217-12.518l8.928-0.438l-11.091-3.341l-4.051-7.426l8.593-0.883l-11.573-2.607
				C410.818,277.415,406.565,271.622,406.565,271.622z"/>
			<path style="fill:#FFFFFF;" d="M416.955,275.504c19.896,10.174,24.199,25.14,22.088,41.942
				C438.294,303.117,437.658,288.606,416.955,275.504z"/>
		</g>
		<g>
			<path style="fill:#BA68C8;" d="M477.293,279.932c-32.255,0.527-38.582,20.038-36.297,36.034c0.791,3.34,5.361,6.416,15.116-9.58
				l-7.998-1.394l10.371-1.77l4.482-6.24l-7.646-1.758l10.722-1.055C472.811,284.678,477.293,279.932,477.293,279.932z"/>
			<path style="fill:#FFFFFF;" d="M467.493,282.269c-19.071,6.943-24.624,19.95-24.602,35.33
				C445.17,304.768,447.367,291.761,467.493,282.269z"/>
			<path style="opacity:0.2;fill:#FFFFFF;" d="M477.293,279.932c-32.255,0.527-38.582,20.038-36.297,36.034
				c0.791,3.34,5.361,6.416,15.116-9.58l-7.998-1.394l10.371-1.77l4.482-6.24l-7.646-1.758l10.722-1.055
				C472.811,284.678,477.293,279.932,477.293,279.932z"/>
		</g>
	</g>
</g>
<g id="Screen">
	<g>
		<g>
			<g>
				<g>
					<polygon style="fill:#BA68C8;" points="55.146,220.867 55.106,206.889 47.814,202.738 47.853,216.394 47.853,216.394 
						47.854,216.704 55.146,220.867 					"/>
					<path style="fill:#BA68C8;" d="M55.605,382.762l-0.459-161.894l-7.292-4.163l0.458,161.584
						c0.004,1.336,0.472,2.277,1.224,2.737l-0.005,0.004l0.038,0.023c0.01,0.006,0.02,0.013,0.03,0.018l7.189,4.395
						C56.063,384.995,55.609,384.071,55.605,382.762z"/>
					<path style="opacity:0.2;fill:#FFFFFF;" d="M55.605,382.762l-0.459-161.894l-7.292-4.163l0.458,161.584
						c0.004,1.336,0.472,2.277,1.224,2.737l-0.005,0.004l0.038,0.023c0.01,0.006,0.02,0.013,0.03,0.018l7.189,4.395
						C56.063,384.995,55.609,384.071,55.605,382.762z"/>
					<path style="fill:#455A64;" d="M59.936,385.23c-0.288,0.166-0.568,0.292-0.84,0.387
						C59.368,385.523,59.648,385.396,59.936,385.23z"/>
					<path style="fill:#455A64;" d="M58.505,385.755c-0.058,0.01-0.12,0.032-0.176,0.039
						C58.385,385.788,58.447,385.764,58.505,385.755z"/>
					<path style="fill:#455A64;" d="M57.01,385.6v-0.013l0,0c-0.017-0.008-0.038-0.011-0.055-0.02L57.01,385.6z"/>
					<path style="fill:#BA68C8;" d="M55.133,206.863l-0.023-8.053c-0.008-2.744,1.915-6.083,4.303-7.462L303.361,50.505
						c1.173-0.677,2.238-0.747,3.019-0.319l-7.197-4.42v0.008c-0.789-0.49-1.891-0.449-3.115,0.258L52.121,186.874
						c-2.388,1.379-4.311,4.718-4.303,7.462l0.023,8.053l0.011,0.004l-0.038,0.022l0.001,0.322l7.292,4.151L55.133,206.863z"/>
					<path style="opacity:0.3;fill:#FFFFFF;" d="M55.133,206.863l-0.023-8.053c-0.008-2.744,1.915-6.083,4.303-7.462L303.361,50.505
						c1.173-0.677,2.238-0.747,3.019-0.319l-7.197-4.42v0.008c-0.789-0.49-1.891-0.449-3.115,0.258L52.121,186.874
						c-2.388,1.379-4.311,4.718-4.303,7.462l0.023,8.053l0.011,0.004l-0.038,0.022l0.001,0.322l7.292,4.151L55.133,206.863z"/>
					<polygon style="opacity:0.2;" points="55.146,220.867 55.106,206.889 47.814,202.738 47.853,216.394 47.853,216.394 
						47.854,216.704 55.146,220.867 					"/>
					<polygon style="opacity:0.2;fill:#FFFFFF;" points="55.146,220.867 55.106,206.889 47.814,202.738 47.853,216.394 
						47.853,216.394 47.854,216.704 55.146,220.867 					"/>
				</g>
				<g>
					<path style="fill:#BA68C8;" d="M303.361,50.505c2.38-1.374,4.323-0.267,4.331,2.477l0.023,8.053L55.133,206.863l-0.023-8.053
						c-0.008-2.744,1.915-6.083,4.303-7.462L303.361,50.505z"/>
				</g>
				<g>
					<g>
						<path style="fill:#FFFFFF;" d="M287.008,63.826c1.276-0.737,2.314-0.145,2.318,1.321c0.004,1.466-1.027,3.252-2.303,3.988
							c-1.276,0.737-2.314,0.145-2.318-1.321C284.701,66.349,285.732,64.563,287.008,63.826z"/>
					</g>
					<g>
						<path style="fill:#FFFFFF;" d="M294.055,59.757c1.276-0.737,2.314-0.145,2.318,1.321c0.004,1.466-1.027,3.252-2.303,3.988
							c-1.276,0.736-2.314,0.145-2.318-1.321C291.749,62.28,292.78,60.494,294.055,59.757z"/>
					</g>
					<g>
						<path style="fill:#FFFFFF;" d="M301.095,55.693c1.276-0.737,2.314-0.145,2.318,1.321c0.004,1.466-1.027,3.252-2.303,3.988
							c-1.276,0.736-2.314,0.145-2.318-1.321C298.788,58.216,299.819,56.43,301.095,55.693z"/>
					</g>
				</g>
				<g>
					<path style="fill:#E0E0E0;" d="M105.931,169.551c0.949-0.548,1.83-0.457,2.284,0.248l2.293,3.529
						c0.454,0.705,1.327,0.81,2.284,0.257L307.688,61.062l0.04,13.997L55.146,220.886l-0.04-13.997l7.483-4.32
						c0.957-0.552,1.826-1.663,2.283-2.893l2.257-6.156c0.448-1.226,1.326-2.332,2.275-2.88L105.931,169.551z"/>
				</g>
				<g>
					<path style="fill:#BA68C8;" d="M307.727,75.039l0.459,161.894c0.008,2.735-1.923,6.079-4.303,7.453L59.936,385.23
						c-2.388,1.379-4.323,0.267-4.331-2.468l-0.459-161.894L307.727,75.039z"/>
				</g>
				<g style="opacity:0.4;">
					<path style="fill:#FFFFFF;" d="M307.727,75.039l0.459,161.894c0.008,2.735-1.923,6.079-4.303,7.453L59.936,385.23
						c-2.388,1.379-4.323,0.267-4.331-2.468l-0.459-161.894L307.727,75.039z"/>
				</g>
				<g>
					<g>
						<path style="fill:#FFFFFF;" d="M297.738,69.66c1.696-0.979,3.069-0.196,3.075,1.752c0.005,1.949-1.359,4.321-3.055,5.3
							L83.952,200.153c-1.696,0.979-3.077,0.192-3.082-1.757c-0.006-1.948,1.367-4.316,3.063-5.295L297.738,69.66z"/>
					</g>
					<g>
						<path style="fill:#E0E0E0;" d="M59.186,208.131c0.116-0.067,0.231-0.08,0.317-0.021c0.164,0.111,0.149,0.433-0.021,0.72
							l-1.349,2.203l3.539-2.043c0.241-0.139,0.436-0.028,0.437,0.24c0.001,0.277-0.193,0.613-0.434,0.752l-3.539,2.043l1.357,0.64
							c0.172,0.089,0.188,0.393,0.025,0.684c-0.085,0.157-0.202,0.278-0.319,0.345c-0.101,0.058-0.21,0.086-0.296,0.046l-2.169-1.04
							l-0.086-0.085l-0.016-0.027l-0.04-0.174l0.039-0.219l0.015-0.036l0.077-0.179l2.164-3.541
							C58.973,208.299,59.08,208.193,59.186,208.131z"/>
					</g>
					<g>
						<path style="fill:#E0E0E0;" d="M66.843,203.71c0.105-0.061,0.212-0.077,0.298-0.037l2.169,1.031l0.086,0.094l0.023,0.013
							l0.032,0.179l-0.03,0.215l-0.023,0.049l-0.077,0.17l-2.164,3.55c-0.085,0.139-0.186,0.233-0.295,0.296
							c-0.117,0.067-0.226,0.076-0.312,0.019c-0.164-0.102-0.157-0.42,0.021-0.711l1.342-2.198l-3.539,2.043
							c-0.233,0.135-0.429,0.024-0.429-0.253c-0.001-0.268,0.193-0.604,0.427-0.739l3.539-2.043l-1.35-0.644
							c-0.179-0.084-0.188-0.393-0.025-0.693C66.615,203.896,66.728,203.777,66.843,203.71z"/>
					</g>
					<g>
						<path style="fill:#E0E0E0;" d="M74.118,199.51c0.537-0.31,1.043-0.396,1.464-0.272l0.326-0.43
							c0.07-0.094,0.152-0.168,0.233-0.215c0.082-0.047,0.163-0.067,0.233-0.054c0.148,0.022,0.219,0.178,0.196,0.388l-0.183,1.332
							c-0.015,0.152-0.085,0.309-0.186,0.447c-0.07,0.085-0.155,0.17-0.233,0.215l-0.109,0.045l-1.051,0.294
							c-0.164,0.041-0.288-0.04-0.32-0.218c-0.032-0.179,0.046-0.411,0.193-0.604l0.101-0.139c-0.203,0.001-0.428,0.068-0.662,0.203
							c-0.856,0.494-1.553,1.703-1.551,2.686c0.003,0.992,0.705,1.383,1.561,0.89c0.568-0.328,1.088-0.978,1.366-1.711
							c0.074-0.208,0.221-0.387,0.374-0.475c0.07-0.041,0.142-0.062,0.209-0.058c0.21,0.013,0.289,0.272,0.173,0.581
							c-0.425,1.132-1.233,2.144-2.119,2.656c-1.33,0.768-2.423,0.154-2.427-1.383C71.702,202.159,72.788,200.279,74.118,199.51z"/>
					</g>
					<g style="opacity:0.3;">
						<path d="M59.186,208.131c0.116-0.067,0.231-0.08,0.317-0.021c0.164,0.111,0.149,0.433-0.021,0.72l-1.349,2.203l3.539-2.043
							c0.241-0.139,0.436-0.028,0.437,0.24c0.001,0.277-0.193,0.613-0.434,0.752l-3.539,2.043l1.357,0.64
							c0.172,0.089,0.188,0.393,0.025,0.684c-0.085,0.157-0.202,0.278-0.319,0.345c-0.101,0.058-0.21,0.086-0.296,0.046l-2.169-1.04
							l-0.086-0.085l-0.016-0.027l-0.04-0.174l0.039-0.219l0.015-0.036l0.077-0.179l2.164-3.541
							C58.973,208.299,59.08,208.193,59.186,208.131z"/>
					</g>
					<g style="opacity:0.3;">
						<path d="M66.843,203.71c0.105-0.061,0.212-0.077,0.298-0.037l2.169,1.031l0.086,0.094l0.023,0.013l0.032,0.179l-0.03,0.215
							l-0.023,0.049l-0.077,0.17l-2.164,3.55c-0.085,0.139-0.186,0.233-0.295,0.296c-0.117,0.067-0.226,0.076-0.312,0.019
							c-0.164-0.102-0.157-0.42,0.021-0.711l1.342-2.198l-3.539,2.043c-0.233,0.135-0.429,0.024-0.429-0.253
							c-0.001-0.268,0.193-0.604,0.427-0.739l3.539-2.043l-1.35-0.644c-0.179-0.084-0.188-0.393-0.025-0.693
							C66.615,203.896,66.728,203.777,66.843,203.71z"/>
					</g>
					<g style="opacity:0.3;">
						<path d="M74.118,199.51c0.537-0.31,1.043-0.396,1.464-0.272l0.326-0.43c0.07-0.094,0.152-0.168,0.233-0.215
							c0.082-0.047,0.163-0.067,0.233-0.054c0.148,0.022,0.219,0.178,0.196,0.388l-0.183,1.332
							c-0.015,0.152-0.085,0.309-0.186,0.447c-0.07,0.085-0.155,0.17-0.233,0.215l-0.109,0.045l-1.051,0.294
							c-0.164,0.041-0.288-0.04-0.32-0.218c-0.032-0.179,0.046-0.411,0.193-0.604l0.101-0.139c-0.203,0.001-0.428,0.068-0.662,0.203
							c-0.856,0.494-1.553,1.703-1.551,2.686c0.003,0.992,0.705,1.383,1.561,0.89c0.568-0.328,1.088-0.978,1.366-1.711
							c0.074-0.208,0.221-0.387,0.374-0.475c0.07-0.041,0.142-0.062,0.209-0.058c0.21,0.013,0.289,0.272,0.173,0.581
							c-0.425,1.132-1.233,2.144-2.119,2.656c-1.33,0.768-2.423,0.154-2.427-1.383C71.702,202.159,72.788,200.279,74.118,199.51z"/>
					</g>
				</g>
			</g>
		</g>
		<g>
			<g>
				<g style="opacity:0.6;">
					<path style="fill:#FFFFFF;" d="M212.432,169.736l0.219,80.061c0.015,5.363-2.834,10.326-7.473,13.017L79.077,335.965
						c-3.328,1.931-7.498-0.464-7.509-4.311l-0.219-80.061c-0.015-5.363,2.834-10.326,7.473-13.017l126.101-73.151
						C208.251,163.495,212.421,165.889,212.432,169.736z"/>
				</g>
			</g>
			<g>
				<g style="opacity:0.6;">
					<path style="fill:#FFFFFF;" d="M260.439,137.378l0.058,20.588c0.004,1.42-0.751,2.735-1.979,3.448l-34.915,20.023
						c-0.881,0.511-1.986-0.123-1.989-1.142l-0.058-20.588c-0.004-1.42,0.751-2.735,1.979-3.448l34.915-20.023
						C259.331,135.725,260.436,136.359,260.439,137.378z"/>
				</g>
				<g>
					<g>
						<polygon style="fill:#BA68C8;" points="237.092,153.902 247.962,154.836 237.133,168.299 						"/>
					</g>
					<g style="opacity:0.3;">
						<polygon style="fill:#FFFFFF;" points="237.092,153.902 247.962,154.836 237.133,168.299 						"/>
					</g>
				</g>
			</g>
			<g>
				<g style="opacity:0.6;">
					<path style="fill:#FFFFFF;" d="M90.711,214.372l0.027,9.576c0.002,0.661-0.349,1.272-0.921,1.604l-16.239,9.313
						c-0.41,0.238-0.924-0.057-0.925-0.531l-0.027-9.576c-0.002-0.661,0.349-1.272,0.921-1.604l16.24-9.313
						C90.196,213.603,90.71,213.898,90.711,214.372z"/>
				</g>
				<g>
					<g>
						<polygon style="fill:#BA68C8;" points="79.852,222.057 84.908,222.492 79.871,228.754 						"/>
					</g>
					<g style="opacity:0.3;">
						<polygon style="fill:#FFFFFF;" points="79.852,222.057 84.908,222.492 79.871,228.754 						"/>
					</g>
				</g>
			</g>
			<g style="opacity:0.7;">
				<g>
					<polygon style="fill:#FFFFFF;" points="183.404,162.925 183.419,168.097 168.729,176.578 168.715,171.406 					"/>
				</g>
				<g>
					<polygon style="fill:#FFFFFF;" points="211.568,146.665 211.582,151.837 192.004,163.141 191.989,157.969 					"/>
				</g>
				<g>
					<polygon style="fill:#FFFFFF;" points="268.189,113.974 268.204,119.146 253.514,127.627 253.5,122.455 					"/>
				</g>
				<g>
					<polygon style="fill:#FFFFFF;" points="296.358,97.711 296.373,102.883 276.789,114.19 276.774,109.018 					"/>
				</g>
				<g>
					<polygon style="fill:#FFFFFF;" points="243.421,128.275 243.435,133.446 220.063,146.941 220.048,141.769 					"/>
				</g>
			</g>
			<g>
				<polygon style="fill:#FFFFFF;" points="290.359,121.521 290.372,126.104 265.417,140.353 265.404,135.77 				"/>
			</g>
			<g>
				<polygon style="fill:#FFFFFF;" points="283.694,132.625 283.703,135.984 265.413,146.428 265.404,143.069 				"/>
			</g>
			<g>
				<polygon style="fill:#FFFFFF;" points="276.928,141.505 276.937,144.864 265.413,151.412 265.404,148.053 				"/>
			</g>
			<g>
				<g style="opacity:0.6;">
					<path style="fill:#FFFFFF;" d="M260.439,169.76l0.058,20.588c0.004,1.42-0.751,2.735-1.979,3.448l-34.915,20.023
						c-0.881,0.511-1.986-0.123-1.989-1.142l-0.058-20.588c-0.004-1.42,0.751-2.735,1.979-3.448l34.915-20.023
						C259.331,168.107,260.436,168.741,260.439,169.76z"/>
				</g>
				<g>
					<g>
						<polygon style="fill:#BA68C8;" points="237.092,186.283 247.962,187.217 237.133,200.681 						"/>
					</g>
					<g style="opacity:0.3;">
						<polygon style="fill:#FFFFFF;" points="237.092,186.283 247.962,187.217 237.133,200.681 						"/>
					</g>
				</g>
			</g>
			<g>
				<polygon style="fill:#FFFFFF;" points="295.667,150.949 295.68,155.532 265.417,172.734 265.404,168.152 				"/>
			</g>
			<g>
				<polygon style="fill:#FFFFFF;" points="288.245,162.38 288.255,165.739 265.413,178.809 265.404,175.45 				"/>
			</g>
			<g>
				<polygon style="fill:#FFFFFF;" points="276.928,173.886 276.937,177.245 265.413,183.794 265.404,180.435 				"/>
			</g>
			<g>
				<g style="opacity:0.6;">
					<path style="fill:#FFFFFF;" d="M260.439,202.141l0.058,20.588c0.004,1.42-0.751,2.735-1.979,3.448L223.603,246.2
						c-0.881,0.511-1.986-0.123-1.989-1.142l-0.058-20.588c-0.004-1.42,0.751-2.735,1.979-3.448l34.915-20.023
						C259.331,200.488,260.436,201.122,260.439,202.141z"/>
				</g>
				<g>
					<g>
						<polygon style="fill:#BA68C8;" points="237.092,218.665 247.962,219.599 237.133,233.062 						"/>
					</g>
					<g style="opacity:0.3;">
						<polygon style="fill:#FFFFFF;" points="237.092,218.665 247.962,219.599 237.133,233.062 						"/>
					</g>
				</g>
			</g>
			<g>
				<polygon style="fill:#FFFFFF;" points="292.375,185.151 292.388,189.734 265.417,205.116 265.404,200.533 				"/>
			</g>
			<g>
				<polygon style="fill:#FFFFFF;" points="278.24,200.574 278.25,203.933 265.413,211.191 265.404,207.832 				"/>
			</g>
			<g>
				<polygon style="fill:#FFFFFF;" points="285.995,201.048 286.005,204.407 265.413,216.175 265.404,212.816 				"/>
			</g>
			<g>
				<g style="opacity:0.6;">
					<path style="fill:#FFFFFF;" d="M260.439,234.523l0.058,20.588c0.004,1.42-0.751,2.735-1.979,3.448l-34.915,20.023
						c-0.881,0.511-1.986-0.123-1.989-1.142l-0.058-20.588c-0.004-1.421,0.751-2.735,1.979-3.448l34.915-20.023
						C259.331,232.87,260.436,233.504,260.439,234.523z"/>
				</g>
				<g>
					<g>
						<polygon style="fill:#BA68C8;" points="237.092,251.046 247.962,251.98 237.133,265.444 						"/>
					</g>
					<g style="opacity:0.3;">
						<polygon style="fill:#FFFFFF;" points="237.092,251.046 247.962,251.98 237.133,265.444 						"/>
					</g>
				</g>
			</g>
			<g>
				<polygon style="fill:#FFFFFF;" points="295.935,215.573 295.948,220.156 265.417,237.497 265.404,232.914 				"/>
			</g>
			<g>
				<polygon style="fill:#FFFFFF;" points="283.694,229.77 283.703,233.129 265.413,243.572 265.404,240.213 				"/>
			</g>
			<g>
				<polygon style="fill:#FFFFFF;" points="290.372,230.849 290.382,234.208 265.413,248.557 265.404,245.198 				"/>
			</g>
			<g>
				<polygon style="fill:#FFFFFF;" points="111.694,203.232 111.703,206.591 93.413,217.034 93.404,213.676 				"/>
			</g>
			<g>
				<polygon style="fill:#FFFFFF;" points="104.928,212.111 104.937,215.47 93.413,222.019 93.404,218.66 				"/>
			</g>
			<path style="fill:#BA68C8;" d="M180.893,199.836c-0.006-2.124-2.309-3.446-4.146-2.38l-69.633,40.394
				c-2.562,1.486-4.135,4.227-4.127,7.188l0.018,8.359l77.906-45.193L180.893,199.836z"/>
			<path style="fill:#BA68C8;" d="M103.004,253.397l0.103,48.86c0.006,2.125,2.309,3.447,4.146,2.381l69.633-40.394
				c2.562-1.486,4.135-4.227,4.127-7.188l-0.103-48.851L103.004,253.397z"/>
			<g style="opacity:0.5;">
				<polygon style="fill:#FFFFFF;" points="110.08,236.128 104.031,252.801 109.42,249.675 115.469,233.002 				"/>
				<polygon style="fill:#FFFFFF;" points="122.918,228.681 116.869,245.354 122.258,242.227 128.307,225.555 				"/>
				<polygon style="fill:#FFFFFF;" points="135.756,221.234 129.706,237.907 135.096,234.78 141.145,218.108 				"/>
				<polygon style="fill:#FFFFFF;" points="148.594,213.787 142.544,230.459 147.934,227.333 153.983,210.661 				"/>
				<polygon style="fill:#FFFFFF;" points="161.432,206.34 155.382,223.012 160.771,219.886 166.821,203.214 				"/>
				<path style="fill:#FFFFFF;" d="M176.746,197.456l-2.477,1.437l-6.049,16.672l5.389-3.126l5.499-15.156
					C178.374,197,177.523,197.005,176.746,197.456z"/>
			</g>
			<polygon style="opacity:0.9;fill:#FFFFFF;" points="162.638,249.705 143.253,237.705 124,272.013 134.734,265.816 
				134.798,288.658 151.969,278.698 151.904,255.902 			"/>
		</g>
		<g>
			<polygon style="fill:#FFFFFF;" points="151.057,308.042 181.57,290.425 181.559,286.563 151.046,304.18 			"/>
			<polygon style="fill:#FFFFFF;" points="194.472,279.107 185.838,284.092 185.849,287.954 194.483,282.969 			"/>
			<polygon style="fill:#FFFFFF;" points="130.73,329.35 130.719,325.487 122.085,330.472 122.096,334.335 			"/>
			<polygon style="fill:#FFFFFF;" points="146.539,306.781 104.9,330.822 104.91,334.684 146.55,310.644 			"/>
			<polygon style="fill:#FFFFFF;" points="99.023,338.083 99.012,334.221 71.75,349.961 71.761,353.823 			"/>
			<polygon style="fill:#FFFFFF;" points="115.608,338.08 115.597,334.218 71.777,359.518 71.788,363.38 			"/>
			<polygon style="fill:#FFFFFF;" points="137.235,321.726 137.245,325.588 165.667,309.179 165.667,305.31 			"/>
		</g>
	</g>
</g>
<g id="Cloud">
	<g>
		<g>
			<path style="fill:#E6E6E6;" d="M427.159,154.097c-4.612-2.663-8.509-1.359-9.747,2.78c-1.194-2.319-2.98-4.39-4.982-5.546
				c-3.613-2.086-6.554-0.41-6.566,3.742l-0.005,1.906l-4.851-2.801c-2.532-1.462-4.588-0.285-4.597,2.624
				c-0.008,2.909,2.035,6.448,4.567,7.91l41.097,23.727c2.532,1.462,4.593,0.292,4.601-2.617c0.008-2.909-2.039-6.456-4.571-7.917
				l-4.851-2.801l0.01-3.508C437.28,165.164,432.757,157.329,427.159,154.097z"/>
		</g>
		<g>
			<g>
				<g>
					<polygon style="fill:#BA68C8;" points="419.397,159.832 425.543,171.072 421.83,168.929 421.807,177.235 416.896,174.4 
						416.92,166.094 413.207,163.951 					"/>
				</g>
				<g>
					<polygon style="fill:#BA68C8;" points="421.834,178.398 421.825,181.574 416.914,178.739 416.924,175.562 					"/>
				</g>
				<g>
					<polygon style="fill:#BA68C8;" points="421.834,182.851 421.825,184.439 416.914,181.604 416.924,180.015 					"/>
				</g>
				<g>
					<polygon style="fill:#BA68C8;" points="421.834,185.503 421.825,186.463 416.914,183.628 416.924,182.668 					"/>
				</g>
			</g>
			<g style="opacity:0.2;">
				<g>
					<polygon style="fill:#FFFFFF;" points="419.397,159.832 425.543,171.072 421.83,168.929 421.807,177.235 416.896,174.4 
						416.92,166.094 413.207,163.951 					"/>
				</g>
				<g>
					<polygon style="fill:#FFFFFF;" points="421.834,178.398 421.825,181.574 416.914,178.739 416.924,175.562 					"/>
				</g>
				<g>
					<polygon style="fill:#FFFFFF;" points="421.834,182.851 421.825,184.439 416.914,181.604 416.924,180.015 					"/>
				</g>
				<g>
					<polygon style="fill:#FFFFFF;" points="421.834,185.503 421.825,186.463 416.914,183.628 416.924,182.668 					"/>
				</g>
			</g>
		</g>
	</g>
	<g>
		<g>
			<path style="fill:#E6E6E6;" d="M367.104,76.598c-6.826-3.941-12.594-2.011-14.427,4.114c-1.767-3.432-4.411-6.497-7.374-8.208
				c-5.348-3.088-9.701-0.607-9.718,5.538l-0.008,2.821l-7.18-4.145c-3.747-2.164-6.791-0.422-6.803,3.884
				c-0.012,4.306,3.012,9.544,6.759,11.707l60.825,35.117c3.747,2.163,6.797,0.433,6.81-3.873c0.012-4.306-3.018-9.555-6.765-11.718
				l-7.18-4.145l0.015-5.192C382.084,92.978,375.389,81.382,367.104,76.598z"/>
		</g>
		<g>
			<g>
				<g>
					<polygon style="fill:#BA68C8;" points="355.616,85.087 364.712,101.723 359.217,98.551 359.182,110.844 351.915,106.648 
						351.949,94.355 346.455,91.183 					"/>
				</g>
				<g>
					<polygon style="fill:#BA68C8;" points="359.223,112.565 359.209,117.266 351.942,113.07 351.955,108.368 					"/>
				</g>
				<g>
					<polygon style="fill:#BA68C8;" points="359.223,119.155 359.209,121.506 351.942,117.31 351.955,114.959 					"/>
				</g>
				<g>
					<polygon style="fill:#BA68C8;" points="359.223,123.081 359.209,124.502 351.942,120.306 351.955,118.885 					"/>
				</g>
			</g>
			<g style="opacity:0.2;">
				<g>
					<polygon style="fill:#FFFFFF;" points="355.616,85.087 364.712,101.723 359.217,98.551 359.182,110.844 351.915,106.648 
						351.949,94.355 346.455,91.183 					"/>
				</g>
				<g>
					<polygon style="fill:#FFFFFF;" points="359.223,112.565 359.209,117.266 351.942,113.07 351.955,108.368 					"/>
				</g>
				<g>
					<polygon style="fill:#FFFFFF;" points="359.223,119.155 359.209,121.506 351.942,117.31 351.955,114.959 					"/>
				</g>
				<g>
					<polygon style="fill:#FFFFFF;" points="359.223,123.081 359.209,124.502 351.942,120.306 351.955,118.885 					"/>
				</g>
			</g>
		</g>
	</g>
	<g>
		<g>
			<path style="fill:#E6E6E6;" d="M114.586,78.649c7.078-4.087,13.059-2.085,14.959,4.266c1.832-3.559,4.574-6.737,7.646-8.511
				c5.545-3.201,10.059-0.629,10.077,5.742l0.008,2.926l7.445-4.298c3.885-2.243,7.042-0.437,7.054,4.028
				c0.013,4.465-3.123,9.896-7.009,12.139l-63.069,36.413c-3.886,2.243-7.049,0.449-7.061-4.016
				c-0.013-4.465,3.13-9.907,7.015-12.151l7.445-4.298l-0.015-5.384C99.053,95.634,105.995,83.609,114.586,78.649z"/>
		</g>
		<g>
			<g>
				<g>
					<polygon style="fill:#BA68C8;" points="125.751,135.295 134.732,118.867 129.307,121.999 129.273,109.861 122.096,114.004 
						122.13,126.143 116.705,129.275 					"/>
				</g>
				<g>
					<polygon style="fill:#BA68C8;" points="129.312,108.162 129.299,103.519 122.122,107.662 122.136,112.305 					"/>
				</g>
				<g>
					<polygon style="fill:#BA68C8;" points="129.312,101.654 129.299,99.332 122.122,103.476 122.136,105.797 					"/>
				</g>
				<g>
					<polygon style="fill:#BA68C8;" points="129.312,97.777 129.299,96.374 122.122,100.518 122.136,101.921 					"/>
				</g>
			</g>
			<g style="opacity:0.2;">
				<g>
					<polygon style="fill:#FFFFFF;" points="125.751,135.295 134.732,118.867 129.307,121.999 129.273,109.861 122.096,114.004 
						122.13,126.143 116.705,129.275 					"/>
				</g>
				<g>
					<polygon style="fill:#FFFFFF;" points="129.312,108.162 129.299,103.519 122.122,107.662 122.136,112.305 					"/>
				</g>
				<g>
					<polygon style="fill:#FFFFFF;" points="129.312,101.654 129.299,99.332 122.122,103.476 122.136,105.797 					"/>
				</g>
				<g>
					<polygon style="fill:#FFFFFF;" points="129.312,97.777 129.299,96.374 122.122,100.518 122.136,101.921 					"/>
				</g>
			</g>
		</g>
	</g>
</g>
<g id="Character_1">
	<g>
		<g>
			<g>
				<g>
					<path style="fill:#BA68C8;" d="M275.162,296.724v63.679l81-46.765v-63.663L275.162,296.724z M284.074,301.988l63.088-36.449
						v42.878l-63.088,36.348V301.988z"/>
					<polygon style="fill:#BA68C8;" points="275.162,296.724 266.162,291.559 266.162,355.239 275.162,360.404 					"/>
					<polygon style="fill:#BA68C8;" points="356.162,249.976 347.162,244.811 266.162,291.559 275.162,296.724 					"/>
					<polygon style="opacity:0.3;fill:#FFFFFF;" points="356.162,249.976 347.162,244.811 266.162,291.559 275.162,296.724 					"/>
					<polygon style="fill:#BA68C8;" points="338.162,303.252 347.162,308.417 347.162,265.539 338.162,270.739 					"/>
					<polygon style="fill:#BA68C8;" points="284.074,344.764 284.074,334.414 338.162,303.252 347.162,308.417 					"/>
					<polygon style="opacity:0.2;fill:#FFFFFF;" points="275.162,296.724 266.162,291.559 266.162,355.239 275.162,360.404 					"/>
					<polygon style="opacity:0.2;fill:#FFFFFF;" points="338.162,303.252 347.162,308.417 347.162,265.539 338.162,270.739 					"/>
					<polygon style="opacity:0.3;fill:#FFFFFF;" points="284.074,344.764 284.074,334.414 338.162,303.252 347.162,308.417 					"/>
				</g>
				<g>
					<path style="fill:#455A64;" d="M358.542,235.182l-0.001,0.001c-0.275-0.724-0.789-1.373-1.547-1.811l-5.461-3.115
						c-2.767-1.598-6.178-1.593-8.941,0.013l-80.027,47.435c-0.763,0.443-1.276,1.099-1.547,1.829l-0.009-0.005
						c-1.832,3.373-2.446,9.992,0.103,14.878c0,0,0.436,0.936,1.461,1.553l5.461,3.115c2.767,1.598,6.178,1.593,8.941-0.013
						l80.027-47.435c0.67-0.389,1.144-0.945,1.434-1.569l0.003,0.002C360.988,245.175,360.374,238.555,358.542,235.182z"/>
					<path style="opacity:0.3;" d="M276.974,286.982l80.027-47.435c1.613-0.937,2.123-2.822,1.539-4.363l0.001-0.001
						c1.833,3.373,2.446,9.992-0.103,14.878l-0.003-0.002c-0.291,0.624-0.764,1.18-1.434,1.569l-80.027,47.435
						c-1.455,0.845-3.089,1.235-4.715,1.192v-12.082C273.885,288.216,275.52,287.827,276.974,286.982z"/>
					<path style="opacity:0.2;" d="M261.009,279.53l0.009,0.005c-0.572,1.54-0.055,3.415,1.556,4.345l5.461,3.115
						c1.31,0.756,2.765,1.141,4.226,1.179v12.082c-1.461-0.038-2.916-0.423-4.226-1.179l-5.461-3.115
						c-1.025-0.617-1.461-1.553-1.461-1.553C258.563,289.522,259.176,282.903,261.009,279.53z"/>
				</g>
			</g>
			<g>
				<path style="fill:#455A64;" d="M419.945,330l-0.001,0.001c-0.275-0.724-0.789-1.373-1.547-1.811l-64.22-37.077
					c-2.767-1.598-6.178-1.593-8.941,0.013l-63.754,37.05c-0.763,0.443-1.276,1.099-1.547,1.829L279.926,330
					c-1.832,3.373-2.446,18.185,0.103,23.071c0,0,0.436,0.936,1.461,1.553l64.22,37.077c2.767,1.598,6.178,1.593,8.941-0.013
					l63.754-37.05c0.67-0.389,1.143-0.945,1.434-1.569l0.003,0.002C422.391,348.186,421.777,333.373,419.945,330z"/>
				<path style="opacity:0.1;" d="M419.945,330l-0.001,0.001c-0.275-0.724-0.789-1.373-1.547-1.811l-64.22-37.077
					c-2.767-1.598-6.178-1.593-8.941,0.013l-63.754,37.05c-0.763,0.443-1.276,1.099-1.547,1.829L279.926,330
					c-1.832,3.373-2.446,18.185,0.103,23.071c0,0,0.436,0.936,1.461,1.553l64.22,37.077c2.767,1.598,6.178,1.593,8.941-0.013
					l63.754-37.05c0.67-0.389,1.143-0.945,1.434-1.569l0.003,0.002C422.391,348.186,421.777,333.373,419.945,330z"/>
				<path style="opacity:0.3;" d="M354.65,371.415l63.755-37.05c1.613-0.937,2.124-2.822,1.539-4.363l0.001-0.001
					c1.833,3.373,2.447,18.185-0.103,23.071l-0.003-0.002c-0.291,0.624-0.764,1.18-1.434,1.569l-63.755,37.05
					c-1.455,0.845-3.089,1.235-4.715,1.192v-20.275C351.561,372.649,353.195,372.26,354.65,371.415z"/>
				<path style="opacity:0.2;" d="M279.926,330l0.009,0.005c-0.572,1.54-0.055,3.415,1.556,4.345l64.22,37.077
					c1.31,0.756,2.765,1.141,4.226,1.179v20.275c-1.461-0.038-2.916-0.423-4.226-1.179l-64.22-37.077
					c-1.025-0.617-1.461-1.553-1.461-1.553C277.479,348.185,278.093,333.373,279.926,330z"/>
				<path style="fill:#455A64;" d="M419.945,307.521l-0.001,0.001c-0.275-0.724-0.789-1.373-1.547-1.811l-64.22-37.077
					c-2.767-1.598-6.178-1.593-8.941,0.013l-63.754,37.05c-0.763,0.443-1.276,1.099-1.547,1.829l-0.009-0.005
					c-1.832,3.373-2.446,18.185,0.103,23.071c0,0,0.436,0.936,1.461,1.553l64.22,37.077c2.767,1.598,6.178,1.593,8.941-0.013
					l63.754-37.05c0.67-0.389,1.143-0.945,1.434-1.569l0.003,0.002C422.391,325.706,421.777,310.894,419.945,307.521z"/>
				<path style="opacity:0.1;" d="M419.945,307.521l-0.001,0.001c-0.275-0.724-0.789-1.373-1.547-1.811l-64.22-37.077
					c-2.767-1.598-6.178-1.593-8.941,0.013l-63.754,37.05c-0.763,0.443-1.276,1.099-1.547,1.829l-0.009-0.005
					c-1.832,3.373-2.446,18.185,0.103,23.071c0,0,0.436,0.936,1.461,1.553l64.22,37.077c2.767,1.598,6.178,1.593,8.941-0.013
					l63.754-37.05c0.67-0.389,1.143-0.945,1.434-1.569l0.003,0.002C422.391,325.706,421.777,310.894,419.945,307.521z"/>
				<g>
					<path style="fill:#FFA8A7;" d="M357.352,203.853L357.352,203.853c0.008-0.008,0.014-0.017,0.021-0.025
						C357.367,203.837,357.359,203.845,357.352,203.853z"/>
					<path style="fill:#455A64;" d="M433.418,231.971l-60.716-35.054c-0.567-0.327-1.175-0.481-1.775-0.492v-0.006
						c-0.083-0.001-0.163,0.006-0.245,0.007c-0.018,0.001-0.036,0-0.055,0.001c-5.55,0.054-9.894,3.363-13.122,7.245
						c-0.046,0.05-0.088,0.103-0.132,0.156c-0.007,0.008-0.013,0.017-0.02,0.026c-0.314,0.388-0.56,0.844-0.699,1.365
						l-17.416,64.881c-1.013,3.773,0.636,7.756,4.019,9.709l60.716,35.054c0.682,0.394,1.424,0.54,2.138,0.482l-0.005,0.015
						c6.951-0.715,11.04-5.009,13.089-7.279c0.377-0.417,0.667-0.929,0.826-1.521l17.416-64.881
						C438.449,237.908,436.801,233.925,433.418,231.971z"/>
					<path style="opacity:0.1;" d="M433.418,231.971l-60.716-35.054c-0.567-0.327-1.175-0.481-1.775-0.492v-0.006
						c-0.083-0.001-0.163,0.006-0.245,0.007c-0.018,0.001-0.036,0-0.054,0.001c-5.55,0.054-9.894,3.363-13.122,7.245
						c1.124-1.217,3.005-1.6,4.569-0.697l60.716,35.054c1.78,1.028,3.073,2.62,3.758,4.445l10.604-6.122
						C436.461,234.553,435.177,232.987,433.418,231.971z"/>
					<path style="opacity:0.2;" d="M426.548,242.474c0.617,1.644,0.741,3.477,0.261,5.265l-17.416,64.881
						c-0.426,1.587-1.792,2.606-3.282,2.726l-0.005,0.015c6.951-0.715,11.04-5.009,13.089-7.279
						c0.377-0.417,0.667-0.929,0.826-1.521l17.416-64.881c0.486-1.811,0.354-3.669-0.284-5.329L426.548,242.474z"/>
				</g>
				<path style="opacity:0.1;" d="M339.238,270.099l17.416-64.881c0.14-0.521,0.385-0.977,0.699-1.365l-0.001,0
					c0.007-0.009,0.014-0.017,0.021-0.025c0.043-0.052,0.086-0.106,0.132-0.156c3.228-3.882,7.573-7.191,13.122-7.245
					c0.018-0.001,0.036,0,0.054-0.001c0.082-0.001,0.162-0.007,0.245-0.007l0,0c0,0,0,0,0,0v0.006c0.3,0.005,0.602,0.047,0.9,0.127
					c0.298,0.081,0.592,0.201,0.875,0.365l60.716,35.054c0.437,0.252,0.843,0.539,1.22,0.854c0.009,0.008,0.017,0.016,0.027,0.024
					c0.37,0.311,0.708,0.651,1.016,1.014c0.005,0.006,0.009,0.012,0.014,0.018c0.624,0.74,1.114,1.577,1.458,2.471c0,0,0,0,0,0
					c0,0,0,0.001,0,0.001c0.159,0.414,0.287,0.84,0.381,1.275c0.001,0.004,0.001,0.007,0.002,0.011
					c0.046,0.212,0.084,0.426,0.114,0.642c0.002,0.017,0.003,0.035,0.006,0.052c0.026,0.202,0.048,0.406,0.059,0.611
					c0.002,0.04,0.002,0.081,0.003,0.121c0.008,0.184,0.014,0.367,0.01,0.552c-0.001,0.072-0.008,0.143-0.012,0.215
					c-0.007,0.156-0.013,0.311-0.029,0.467c-0.012,0.117-0.032,0.235-0.048,0.352c-0.016,0.112-0.027,0.224-0.048,0.336
					c-0.042,0.231-0.093,0.463-0.155,0.693l-17.416,64.881c-0.159,0.591-0.448,1.104-0.826,1.521
					c-2.049,2.27-6.138,6.564-13.089,7.279l0.005-0.015c-0.714,0.058-1.456-0.089-2.138-0.482l-60.716-35.054
					C339.874,277.855,338.225,273.873,339.238,270.099z"/>
				<path style="opacity:0.3;" d="M354.65,348.935l63.755-37.05c1.613-0.937,2.124-2.822,1.539-4.363l0.001-0.001
					c1.833,3.373,2.447,18.185-0.103,23.071l-0.003-0.002c-0.291,0.624-0.764,1.18-1.434,1.569l-63.755,37.05
					c-1.455,0.845-3.089,1.234-4.715,1.192v-20.275C351.561,350.17,353.195,349.781,354.65,348.935z"/>
				<path style="opacity:0.2;" d="M279.926,307.521l0.009,0.005c-0.572,1.54-0.055,3.415,1.556,4.345l64.22,37.077
					c1.31,0.756,2.765,1.141,4.226,1.179v20.275c-1.461-0.038-2.916-0.423-4.226-1.179l-64.22-37.077
					c-1.025-0.616-1.461-1.553-1.461-1.553C277.479,325.706,278.093,310.894,279.926,307.521z"/>
			</g>
		</g>
		<g>
			<g>
				<g>
					<path style="fill:#FFA8A7;" d="M301.909,353.457c0.965,3.849,1.156,10.787,1.156,10.787l2.559-0.964
						c2.481-0.935,5.28-0.297,7.111,1.619l0.126,0.132c0.952,0.996,2.519,1.067,3.557,0.161l0,0c0.539-0.471,0.858-1.145,0.881-1.86
						l0.344-10.892L301.909,353.457z"/>
					<path style="fill:#F5F5F5;" d="M311.788,393.939c-5.31,5.681-15.089,10.646-22.193,5.8l0.798,1.808
						c7.104,4.845,16.882-0.12,22.193-5.801c5.31-5.681,1.865-9.616,6.643-14.655c3.117-3.085,4.132-6.138,4.132-6.138
						c-0.212-0.542-0.416-1.25-0.665-2.062c-0.63,1.418-2.042,4.193-4.263,6.392C313.652,384.323,317.098,388.258,311.788,393.939z"
						/>
					<path style="fill:#BA68C8;" d="M320.077,366.957c-1.168-1.835-1.556-3.104-1.669-3.874c-0.096-0.657-0.488-1.229-1.052-1.579
						l-0.058,1.828c-0.023,0.715-0.342,1.389-0.881,1.86c-1.038,0.906-2.605,0.835-3.557-0.161l-0.126-0.132
						c-1.831-1.917-4.63-2.554-7.111-1.619l-2.6,0.98c-0.795,0.3-1.312,1.064-1.293,1.914c0.166,7.449-3.313,17.342-6.961,22.777
						c-3.752,1.554-6.992,6.667-5.338,10.415l0.165,0.373c7.104,4.845,16.882-0.12,22.193-5.8c5.31-5.681,1.865-9.616,6.644-14.655
						c2.222-2.199,3.633-4.974,4.263-6.392C322.194,371.264,321.495,369.186,320.077,366.957z"/>
					<g>
						<path style="fill:#FFFFFF;" d="M309.688,377.711c0.441,0.223,0.982,0.035,1.204-0.406c0.221-0.436,0.064-0.981-0.37-1.205
							c-4.085-2.111-7.589-1.41-10.201,0.016c-0.158,0.587-0.327,1.17-0.507,1.751C302.825,376.339,305.876,375.784,309.688,377.711
							z"/>
						<path style="fill:#FFFFFF;" d="M310.996,373.684c0.441,0.223,0.981,0.035,1.204-0.406c0.221-0.436,0.064-0.981-0.37-1.205
							c-4.063-2.099-7.788-1.463-10.615,0.085c-0.107,0.606-0.232,1.216-0.367,1.827
							C303.947,372.35,307.068,371.698,310.996,373.684z"/>
						<path style="fill:#FFFFFF;" d="M308.253,381.718c0.441,0.223,0.981,0.035,1.204-0.406c0.221-0.436,0.064-0.98-0.37-1.204
							c-3.972-2.053-7.396-1.446-9.983-0.099c-0.226,0.631-0.464,1.249-0.709,1.858C301.4,380.344,304.448,379.794,308.253,381.718z
							"/>
						<path style="fill:#FFFFFF;" d="M294.769,388.951c-3.752,1.554-6.992,6.667-5.338,10.415l0.165,0.373
							c6.999,4.774,16.585,0.023,21.945-5.551C307.07,385.421,297.723,387.607,294.769,388.951z"/>
						<path style="fill:#FFFFFF;" d="M306.682,385.631c0.441,0.223,0.981,0.035,1.204-0.406c0.22-0.436,0.064-0.981-0.37-1.205
							c-3.982-2.058-7.413-1.443-10.003-0.09c-0.317,0.695-0.645,1.361-0.978,2.001
							C299.634,384.298,302.755,383.646,306.682,385.631z"/>
					</g>
				</g>
				<g>
					<path style="fill:#FFA8A7;" d="M290.746,375.113c-0.67,3.911-3.296,10.336-3.296,10.336l2.73,0.151
						c2.647,0.146,4.951,1.859,5.853,4.352l0.062,0.171c0.469,1.296,1.874,1.993,3.189,1.583l0,0
						c0.683-0.213,1.247-0.701,1.556-1.346l4.711-9.827L290.746,375.113z"/>
					<path style="fill:#F5F5F5;" d="M283.446,416.139c-7.152,3.054-18.102,3.65-22.646-3.65v1.976
						c4.544,7.3,15.495,6.704,22.646,3.65c7.151-3.054,5.586-8.045,11.993-10.727c4.097-1.564,6.257-3.948,6.257-3.948
						c0.025-0.582,0.124-1.312,0.223-2.155c-1.149,1.043-3.56,3.012-6.48,4.127C289.032,408.093,290.597,413.084,283.446,416.139z"
						/>
					<path style="fill:#BA68C8;" d="M301.92,394.798c-0.328-2.151-0.171-3.468,0.036-4.218c0.177-0.64,0.05-1.321-0.325-1.87
						l-0.791,1.649c-0.309,0.645-0.873,1.133-1.556,1.346c-1.315,0.41-2.72-0.288-3.189-1.583l-0.062-0.171
						c-0.902-2.493-3.206-4.206-5.853-4.352l-2.775-0.153c-0.849-0.046-1.63,0.444-1.955,1.229
						c-2.854,6.883-10.031,14.529-15.562,18.03c-4.06-0.093-9.088,3.278-9.088,7.375v0.408c4.544,7.3,15.495,6.704,22.646,3.65
						c7.151-3.054,5.586-8.045,11.993-10.727c2.92-1.115,5.332-3.085,6.48-4.127C302.118,399.592,302.318,397.409,301.92,394.798z"
						/>
					<g>
						<path style="fill:#FFFFFF;" d="M288.075,400.444c0.314,0.382,0.884,0.428,1.266,0.115c0.378-0.31,0.454-0.871,0.148-1.251
							c-2.886-3.58-6.374-4.353-9.34-4.102c-0.382,0.473-0.771,0.939-1.17,1.397C282.348,396.418,285.365,397.142,288.075,400.444z"
							/>
						<path style="fill:#FFFFFF;" d="M290.897,397.287c0.314,0.382,0.884,0.428,1.266,0.115c0.377-0.31,0.454-0.871,0.148-1.252
							c-2.87-3.56-6.535-4.482-9.746-4.207c-0.342,0.512-0.703,1.019-1.073,1.523C284.985,393.222,288.104,393.884,290.897,397.287z
							"/>
						<path style="fill:#FFFFFF;" d="M285.144,403.53c0.314,0.382,0.884,0.428,1.266,0.114c0.377-0.31,0.455-0.871,0.148-1.251
							c-2.806-3.482-6.183-4.308-9.094-4.12c-0.461,0.487-0.929,0.956-1.398,1.415C279.428,399.508,282.439,400.234,285.144,403.53z
							"/>
						<path style="fill:#FFFFFF;" d="M269.888,404.706c-4.06-0.093-9.088,3.278-9.088,7.375v0.408
							c4.477,7.193,15.165,6.715,22.319,3.778C282.567,406.441,273.133,404.669,269.888,404.706z"/>
						<path style="fill:#FFFFFF;" d="M282.127,406.477c0.313,0.382,0.884,0.428,1.266,0.115c0.378-0.31,0.454-0.871,0.148-1.251
							c-2.813-3.491-6.2-4.312-9.116-4.119c-0.571,0.508-1.139,0.984-1.703,1.435C276.216,402.412,279.335,403.075,282.127,406.477z
							"/>
					</g>
				</g>
				<path style="fill:#BA68C8;" d="M332.76,282.09l-35.796,19.944c-6.653,3.707-10.198,11.246-8.807,18.734l6.948,37.417
					l-5.699,18.102c4.916,6.593,16.202,6.928,16.202,6.928c6.295-12.626,10.913-17.99,14.489-28.568
					c3.576-10.578,5.959-17.878,5.959-17.878l29.729-8.125c13.897-3.798,24.146-15.657,25.76-29.973
					c0.507-4.495,0.53-7.565,0.53-7.565L332.76,282.09z"/>
				<path style="opacity:0.4;" d="M332.76,282.09l-35.796,19.944c-6.653,3.707-10.198,11.246-8.807,18.734l6.948,37.417
					l-5.699,18.102c4.916,6.593,16.202,6.928,16.202,6.928c6.295-12.626,10.913-17.99,14.489-28.568
					c3.576-10.578,5.959-17.878,5.959-17.878l29.729-8.125c13.897-3.798,24.146-15.657,25.76-29.973
					c0.507-4.495,0.53-7.565,0.53-7.565L332.76,282.09z"/>
				<path style="opacity:0.2;" d="M333.031,292.147c-0.009,3.956,1.438,7.899,4.003,10.91l-25.26,15.811
					c-3.706,2.32-6.452,5.9-7.73,10.082l-8.94,29.235l8.064-32.559c0.927-3.745,3.285-6.978,6.566-9.007l23.324-14.416
					C330.674,296.244,333.031,292.147,333.031,292.147z"/>
			</g>
			<g>
				<g>
					<path style="fill:#E0E0E0;" d="M358.019,307.051c0.011,0.158,0.002,0.317-0.045,0.474c-0.003,0.011-0.004,0.023-0.007,0.034
						c-0.041,0.125-0.106,0.247-0.184,0.367c-0.009,0.013-0.012,0.027-0.021,0.04c-0.087,0.124-0.196,0.245-0.324,0.36
						c-0.007,0.007-0.012,0.014-0.02,0.021c-0.138,0.122-0.299,0.237-0.483,0.344l-26.196,15.224
						c-0.229,0.133-0.485,0.238-0.751,0.331c-0.094,0.032-0.191,0.06-0.288,0.088c-0.126,0.035-0.251,0.068-0.381,0.095
						c-0.153,0.031-0.308,0.06-0.466,0.08c-0.037,0.005-0.074,0.011-0.111,0.016c-0.212,0.022-0.427,0.034-0.642,0.035
						c-0.034,0-0.068,0.001-0.102,0c-0.212-0.002-0.423-0.014-0.633-0.035c-0.031-0.003-0.063-0.007-0.095-0.011
						c-0.207-0.025-0.412-0.06-0.612-0.105c-0.037-0.009-0.073-0.018-0.11-0.027c-0.181-0.045-0.357-0.099-0.527-0.16
						c-0.031-0.011-0.064-0.02-0.095-0.032c-0.204-0.079-0.399-0.169-0.58-0.274l-43.22-24.953c-0.187-0.108-0.35-0.224-0.49-0.347
						c-0.049-0.043-0.08-0.09-0.123-0.134c-0.081-0.082-0.167-0.163-0.228-0.25c-0.037-0.053-0.054-0.109-0.084-0.163
						c-0.045-0.082-0.098-0.162-0.126-0.246c-0.02-0.059-0.019-0.119-0.03-0.179c-0.016-0.081-0.04-0.162-0.04-0.243v1.533
						c0,0.082,0.024,0.162,0.04,0.243c0.011,0.06,0.01,0.12,0.03,0.179c0.028,0.084,0.081,0.165,0.126,0.246
						c0.03,0.054,0.047,0.11,0.084,0.163c0.061,0.086,0.147,0.168,0.228,0.25c0.043,0.045,0.073,0.092,0.123,0.134
						c0.14,0.123,0.303,0.239,0.49,0.346l43.22,24.953c0.181,0.104,0.376,0.195,0.58,0.273c0.031,0.012,0.063,0.021,0.095,0.032
						c0.17,0.061,0.346,0.116,0.527,0.16c0.037,0.009,0.073,0.019,0.11,0.027c0.2,0.045,0.404,0.08,0.612,0.105
						c0.032,0.004,0.063,0.007,0.095,0.011c0.209,0.022,0.421,0.034,0.633,0.035c0.034,0,0.068,0,0.102,0
						c0.215-0.002,0.429-0.012,0.642-0.035c0.037-0.004,0.074-0.011,0.111-0.016c0.158-0.02,0.313-0.048,0.466-0.08
						c0.13-0.027,0.255-0.06,0.381-0.095c0.097-0.027,0.194-0.056,0.288-0.088c0.266-0.092,0.522-0.197,0.751-0.331l26.196-15.224
						c0.184-0.107,0.345-0.223,0.483-0.344c0.008-0.007,0.012-0.014,0.02-0.021c0.128-0.115,0.238-0.236,0.324-0.36
						c0.009-0.013,0.013-0.027,0.021-0.04c0.078-0.12,0.143-0.242,0.184-0.367c0.004-0.011,0.004-0.023,0.007-0.034
						c0.034-0.114,0.03-0.23,0.033-0.346l0.024,0.003v-1.662L358.019,307.051z"/>
					<path style="opacity:0.2;" d="M358.019,307.051c0.011,0.158,0.002,0.317-0.045,0.474c-0.003,0.011-0.004,0.023-0.007,0.034
						c-0.041,0.125-0.106,0.247-0.184,0.367c-0.009,0.013-0.012,0.027-0.021,0.04c-0.087,0.124-0.196,0.245-0.324,0.36
						c-0.007,0.007-0.012,0.014-0.02,0.021c-0.138,0.122-0.299,0.237-0.483,0.344l-26.196,15.224
						c-0.229,0.133-0.485,0.238-0.751,0.331c-0.094,0.032-0.191,0.06-0.288,0.088c-0.126,0.035-0.251,0.068-0.381,0.095
						c-0.153,0.031-0.308,0.06-0.466,0.08c-0.037,0.005-0.074,0.011-0.111,0.016c-0.212,0.022-0.427,0.034-0.642,0.035
						c-0.034,0-0.068,0.001-0.102,0c-0.212-0.002-0.423-0.014-0.633-0.035c-0.031-0.003-0.063-0.007-0.095-0.011
						c-0.207-0.025-0.412-0.06-0.612-0.105c-0.037-0.009-0.073-0.018-0.11-0.027c-0.181-0.045-0.357-0.099-0.527-0.16
						c-0.031-0.011-0.064-0.02-0.095-0.032c-0.204-0.079-0.399-0.169-0.58-0.274l-43.22-24.953c-0.187-0.108-0.35-0.224-0.49-0.347
						c-0.049-0.043-0.08-0.09-0.123-0.134c-0.081-0.082-0.167-0.163-0.228-0.25c-0.037-0.053-0.054-0.109-0.084-0.163
						c-0.045-0.082-0.098-0.162-0.126-0.246c-0.02-0.059-0.019-0.119-0.03-0.179c-0.016-0.081-0.04-0.162-0.04-0.243v1.533
						c0,0.082,0.024,0.162,0.04,0.243c0.011,0.06,0.01,0.12,0.03,0.179c0.028,0.084,0.081,0.165,0.126,0.246
						c0.03,0.054,0.047,0.11,0.084,0.163c0.061,0.086,0.147,0.168,0.228,0.25c0.043,0.045,0.073,0.092,0.123,0.134
						c0.14,0.123,0.303,0.239,0.49,0.346l43.22,24.953c0.181,0.104,0.376,0.195,0.58,0.273c0.031,0.012,0.063,0.021,0.095,0.032
						c0.17,0.061,0.346,0.116,0.527,0.16c0.037,0.009,0.073,0.019,0.11,0.027c0.2,0.045,0.404,0.08,0.612,0.105
						c0.032,0.004,0.063,0.007,0.095,0.011c0.209,0.022,0.421,0.034,0.633,0.035c0.034,0,0.068,0,0.102,0
						c0.215-0.002,0.429-0.012,0.642-0.035c0.037-0.004,0.074-0.011,0.111-0.016c0.158-0.02,0.313-0.048,0.466-0.08
						c0.13-0.027,0.255-0.06,0.381-0.095c0.097-0.027,0.194-0.056,0.288-0.088c0.266-0.092,0.522-0.197,0.751-0.331l26.196-15.224
						c0.184-0.107,0.345-0.223,0.483-0.344c0.008-0.007,0.012-0.014,0.02-0.021c0.128-0.115,0.238-0.236,0.324-0.36
						c0.009-0.013,0.013-0.027,0.021-0.04c0.078-0.12,0.143-0.242,0.184-0.367c0.004-0.011,0.004-0.023,0.007-0.034
						c0.034-0.114,0.03-0.23,0.033-0.346l0.024,0.003v-1.662L358.019,307.051z"/>
					<path style="fill:#E0E0E0;" d="M281.074,297.823c0.028,0.084,0.081,0.164,0.126,0.246c0.03,0.054,0.047,0.11,0.084,0.163
						c0.061,0.087,0.147,0.168,0.228,0.25c0.043,0.044,0.073,0.091,0.123,0.134c0.14,0.123,0.303,0.239,0.49,0.347l43.22,24.953
						c0.181,0.104,0.376,0.195,0.58,0.274c0.031,0.012,0.063,0.02,0.095,0.032c0.17,0.062,0.346,0.116,0.527,0.16
						c0.037,0.009,0.073,0.018,0.11,0.027c0.2,0.045,0.404,0.08,0.612,0.105c0.032,0.004,0.063,0.007,0.095,0.011
						c0.209,0.022,0.421,0.034,0.633,0.035c0.034,0,0.068,0,0.102,0c0.215-0.002,0.429-0.013,0.642-0.035
						c0.037-0.004,0.074-0.011,0.111-0.016c0.158-0.02,0.313-0.048,0.466-0.08c0.13-0.027,0.255-0.06,0.381-0.095
						c0.097-0.027,0.194-0.056,0.288-0.088c0.266-0.092,0.522-0.197,0.751-0.331l26.196-15.224c0.184-0.107,0.345-0.223,0.483-0.344
						c0.008-0.007,0.012-0.014,0.02-0.021c0.128-0.116,0.238-0.236,0.324-0.36c0.009-0.013,0.013-0.027,0.021-0.04
						c0.078-0.12,0.143-0.242,0.184-0.367c0.004-0.011,0.004-0.023,0.007-0.034c0.047-0.156,0.057-0.315,0.045-0.474
						c-0.037-0.537-0.401-1.068-1.111-1.478l-43.22-24.953c-1.49-0.86-3.895-0.86-5.376,0l-26.196,15.224
						c-0.742,0.431-1.112,0.994-1.112,1.557c0,0.081,0.024,0.162,0.04,0.243C281.055,297.703,281.054,297.763,281.074,297.823z"/>
					<path style="fill:#E0E0E0;" d="M284.673,297.4l41.988,24.242c0.044,0.025,0.09,0.047,0.165,0.079l0.091,0.031
						c0.078,0.029,0.16,0.055,0.328,0.096c0.113,0.027,0.227,0.045,0.231,0.049l0.159,0.015c0.112,0.012,0.233,0.018,0.409,0.021
						h0.037c0.129-0.002,0.259-0.008,0.429-0.028c0.09-0.012,0.177-0.028,0.275-0.049c0.065-0.013,0.34-0.091,0.34-0.091
						c0.1-0.035,0.2-0.066,0.291-0.121l13.506-7.853l-43.371-25.04L284.673,297.4z"/>
					<path style="fill:#263238;" d="M328.092,321.934c-0.019,0-0.03-0.001-0.047-0.001h-0.015L328.092,321.934z"/>
					<path style="fill:#E0E0E0;" d="M324.618,290.732l-7.899,4.646c-0.528,0.311-0.525,1.075,0.006,1.381l11.811,6.819
						c0.409,0.237,0.915,0.234,1.322-0.005l7.899-4.646c0.528-0.31,0.525-1.075-0.006-1.381l-11.811-6.819
						C325.531,290.49,325.026,290.492,324.618,290.732z"/>
					<path style="opacity:0.4;" d="M284.673,297.4l41.988,24.242c0.044,0.025,0.09,0.047,0.165,0.079l0.091,0.031
						c0.078,0.029,0.16,0.055,0.328,0.096c0.113,0.027,0.227,0.045,0.231,0.049l0.159,0.015c0.112,0.012,0.233,0.018,0.409,0.021
						h0.037c0.129-0.002,0.259-0.008,0.429-0.028c0.09-0.012,0.177-0.028,0.275-0.049c0.065-0.013,0.34-0.091,0.34-0.091
						c0.1-0.035,0.2-0.066,0.291-0.121l13.506-7.853l-43.371-25.04L284.673,297.4z"/>
					<path style="opacity:0.4;" d="M324.618,290.732l-7.899,4.646c-0.528,0.311-0.525,1.075,0.006,1.381l11.811,6.819
						c0.409,0.237,0.915,0.234,1.322-0.005l7.899-4.646c0.528-0.31,0.525-1.075-0.006-1.381l-11.811-6.819
						C325.531,290.49,325.026,290.492,324.618,290.732z"/>
				</g>
				<g>
					<g>
						<path style="fill:#FFA8A7;" d="M322.461,233.528l-1.947,31.366l-20.241,17.451c-1.18,0.486-2.459,0.685-3.732,0.581
							l-7.504-0.617c-0.881-0.072-1.762,0.135-2.518,0.593l-4.297,2.603c-0.432,0.262-0.819,0.592-1.144,0.978l-2.103,2.492
							c-0.594,0.704-0.461,1.765,0.288,2.301l1.323,0.947c1.423,1.018,3.294,1.163,4.857,0.375l3.323-1.676l6.866,0.753v1.792
							l-1.86,1.593c-0.941,0.806-0.919,2.268,0.046,3.045l0,0c0,0,4.591-1.361,8.75-8.021l24.234-10.955
							c5.08-2.296,8.443-7.248,8.704-12.817l2.148-45.824l-3.344,0.42C327.841,221.72,322.865,227.02,322.461,233.528z"/>
					</g>
					<path style="fill:#455A64;" d="M337.655,220.488l-3.67,0.239c-6.886,0.45-12.4,5.881-12.953,12.76l-1.519,18.913
						c5.246,6.582,18.914,3.817,18.914,3.817L337.655,220.488z"/>
					<path style="opacity:0.5;fill:#FFFFFF;" d="M337.655,220.488l-3.67,0.239c-6.886,0.45-12.4,5.881-12.953,12.76l-1.519,18.913
						c5.246,6.582,18.914,3.817,18.914,3.817L337.655,220.488z"/>
				</g>
				<path style="fill:#455A64;" d="M382.646,293.898c-6.349,6.1-36.851,7.221-52.414-7.594c1.494-10.458,0.996-21.663,0-32.743
					c-0.996-11.08-7.47-30.46,4.897-32.713c16.517-3.225,27.306-2.976,38.345,3.249
					C385.261,243.725,383.642,273.107,382.646,293.898z"/>
				<path style="opacity:0.3;fill:#FFFFFF;" d="M382.646,293.898c-6.349,6.1-36.851,7.221-52.414-7.594
					c1.494-10.458,0.996-21.663,0-32.743c-0.996-11.08-7.47-30.46,4.897-32.713c16.517-3.225,27.306-2.976,38.345,3.249
					C385.261,243.725,383.642,273.107,382.646,293.898z"/>
				<g>
					<path style="fill:#FFA8A7;" d="M392.61,273.037l-4.67-17.368l-16.383,3.591l3.928,13.466l-24.014,17.057l-8.073,3.398
						c-2.14,0.901-3.991,2.372-5.351,4.254l-6.585,9.111c-0.058,0.122-0.078,0.254-0.066,0.395c0.087,1.054,1.503,1.4,2.2,0.604
						c1.461-1.669,2.677-3.217,4.209-4.681c-1.294,1.749-2.587,3.498-3.881,5.247c-0.55,0.743-0.32,1.8,0.482,2.259
						c0.514,0.295,1.007,0.513,1.4,0.613c1.932,0.495,3.984-0.019,5.456-1.366l5.083-4.655l1.403-0.496
						c4.106-1.451,7.669-4.124,10.211-7.66l28.149-10.93C391.235,283.885,394.039,278.349,392.61,273.037z"/>
					<path style="fill:#455A64;" d="M390.504,257.933l-0.502-2.303c-5.948-27.044-10.695-28.966-18.674-32.671
						c-7.759,6.763-6.462,18.254-6.462,18.254l6.957,20.812l0.206,0.601C378.527,263.603,385.324,262.003,390.504,257.933z"/>
					<path style="opacity:0.5;fill:#FFFFFF;" d="M390.504,257.933l-0.502-2.303c-5.948-27.044-10.695-28.966-18.674-32.671
						c-7.759,6.763-6.462,18.254-6.462,18.254l6.957,20.812l0.206,0.601C378.527,263.603,385.324,262.003,390.504,257.933z"/>
				</g>
				<g>
					<path style="fill:#263238;" d="M334.334,212.722c-0.989,2.124-0.082,4.822,1.757,6.274c1.839,1.452,4.388,1.778,6.681,1.297
						c2.293-0.481,4.37-1.687,6.277-3.047c1.598-1.14,3.203-2.443,5.143-2.749c1.939-0.305,3.857,0.822,3.92,2.784
						c1.481-0.312,3.219-1.379,3.703-2.813c0.963,1.339,2.829,1.948,4.396,1.435c1.567-0.512,2.65-2.209,2.637-3.858
						c1.684,1.062,3.869,0.581,5.119-0.969c-2.013-0.501-3.782-1.906-4.725-3.754c-0.943-1.847-1.043-4.105-0.267-6.029
						c1.095-2.717,3.822-4.812,3.948-7.738c0.103-2.392-2.23-4.943-4.618-5.111c2.138-1.51,3.084-4.507,2.201-6.971
						c-0.883-2.464-3.665-4.51-6.275-4.318c0.753-0.914,0.618-2.352-0.111-3.285c-0.729-0.933-1.923-1.408-3.101-1.522
						c-1.179-0.114-2.362,0.093-3.528,0.298c-1.266,0.223-2.531,0.446-3.797,0.669c-2.742-4.244-7.693-7.062-12.528-5.594
						c-1.455,0.442-2.809,1.161-4.231,1.699c-1.422,0.538-2.975,0.897-4.46,0.574c-1.486-0.322-2.871-1.469-3.081-2.975
						c-1.712,1.141-2.331,4.165-1.406,6.003c-1.855,0.047-3.818,0.825-5.173,2.094c-1.354,1.269-2.13,3.191-1.834,5.023
						c0.296,1.832,1.747,3.475,3.572,3.811c-2.347,2.37-3.418,6.261-2.238,9.382c0.549,1.452,1.47,2.728,2.354,4.004
						c0.884,1.277,1.753,2.6,2.174,4.094c0.421,1.494,0.335,3.208-0.58,4.462c-0.916,1.254-2.78,1.847-4.111,1.049
						c0.498,2.308,2.165,4.588,4.303,5.589C328.591,213.535,332.242,213.816,334.334,212.722z"/>
					<g>
						<g>
							<path style="fill:#FFA8A7;" d="M357.934,208.941v11.612c0,1.573-0.665,3.083-1.848,4.12
								c-3.01,2.638-7.071,4.024-11.098,3.773c-0.816-0.051-1.675-0.187-2.303-0.71c-0.88-0.733-1.061-2.06-0.741-3.159
								c0.179-0.614,0.485-1.173,0.844-1.704c0.589-0.871,0.917-1.891,0.917-2.942v-10.989H357.934z"/>
						</g>
						<path style="opacity:0.2;" d="M349.476,218.323c-1.874,0.592-3.816,0.908-5.771,1.141v-10.523h14.229v2.475
							c-0.321,0.715-0.701,1.402-1.164,2.039C355.021,215.86,352.311,217.427,349.476,218.323z"/>
					</g>
					<g>
						<path style="fill:#FFA8A7;" d="M343.092,190.319c1.766-0.512,3.638-1.442,5.342-0.752c0.937,0.38,1.618,1.187,2.394,1.835
							c1.471,1.228,3.389,1.887,5.304,1.88c0.14,0.281,0.226,0.59,0.211,0.919l-0.221,4.846c-0.031,0.682-0.021,1.466,0.499,1.91
							c0.475,0.406,1.218,0.342,1.754,0.02c0.535-0.322,0.91-0.848,1.27-1.358c0.754-1.072,1.522-2.161,2.549-2.975
							c1.028-0.814,2.371-1.328,3.656-1.069c2.103,0.423,3.34,2.809,3.194,4.949c-0.151,2.199-1.496,4.279-3.44,5.318
							c-1.944,1.039-4.361,0.75-6.273-0.347c0.317,3.822-2.285,7.411-5.566,9.397c-3.281,1.986-7.157,2.688-10.934,3.354
							c-2.066,0.364-4.249,0.719-6.213-0.016c-1.597-0.598-2.874-1.873-3.753-3.334c-0.879-1.461-1.398-3.108-1.838-4.756
							c-2.007-7.521-2.519-15.438-1.498-23.154C333.157,190.14,339.359,191.401,343.092,190.319z"/>
						<g>
							<polygon style="fill:#F28F8F;" points="340.188,198.738 335.83,206.073 341.025,207.049 							"/>
							<path style="fill:#F28F8F;" d="M346.033,209.577c-1.316,0.64-2.632,1.28-3.948,1.92c0.575,0.897,2.022,1.287,2.993,0.851
								C346.05,211.911,346.322,210.602,346.033,209.577z"/>
							<path style="opacity:0.3;" d="M346.033,209.577c-1.316,0.64-2.632,1.28-3.948,1.92c0.575,0.897,2.022,1.287,2.993,0.851
								C346.05,211.911,346.322,210.602,346.033,209.577z"/>
							<path style="fill:#F28F8F;" d="M343.708,212.477c0.475,0.084,0.964,0.053,1.371-0.129c0.763-0.342,1.089-1.222,1.056-2.081
								c-0.561,0.003-1.122,0.185-1.556,0.541C344.079,211.217,343.772,211.835,343.708,212.477z"/>
							<path style="fill:#263238;" d="M347.711,199.029c0.083,0.82-0.515,1.552-1.335,1.634c-0.82,0.083-1.552-0.515-1.635-1.335
								c-0.083-0.82,0.515-1.552,1.335-1.634C346.897,197.612,347.629,198.209,347.711,199.029z"/>
							<path style="fill:#263238;" d="M335.198,199.805c0.083,0.82-0.515,1.552-1.335,1.634c-0.82,0.083-1.552-0.515-1.634-1.335
								c-0.083-0.82,0.515-1.552,1.335-1.634C334.384,198.387,335.115,198.985,335.198,199.805z"/>
							<path style="fill:#263238;" d="M333.157,194.041c-1.02,0.869-2.041,1.739-3.061,2.608c-0.404-0.748-0.193-1.793,0.408-2.394
								C331.105,193.653,332.409,193.638,333.157,194.041z"/>
							<path style="fill:#263238;" d="M345.853,192.582c1.174,0.648,2.347,1.296,3.521,1.944c0.247-0.814-0.169-1.796-0.878-2.265
								C347.787,191.792,346.506,192.037,345.853,192.582z"/>
						</g>
					</g>
				</g>
				<path style="fill:#455A64;" d="M343.362,228.13l2.415-3.104c6.833-0.792,10.897-6.833,12.157-8.375l0,0
					c0.746,0.172,1.395,0.632,1.805,1.279l1.247,1.971c-1,6-8.616,12-11.121,13.042c-0.985-2.998-2.243-4.564-2.243-4.564
					C345.173,229.463,343.362,228.13,343.362,228.13z"/>
				<path style="opacity:0.5;fill:#FFFFFF;" d="M343.362,228.13l2.415-3.104c6.833-0.792,10.897-6.833,12.157-8.375l0,0
					c0.746,0.172,1.395,0.632,1.805,1.279l1.247,1.971c-1,6-8.616,12-11.121,13.042c-0.985-2.998-2.243-4.564-2.243-4.564
					C345.173,229.463,343.362,228.13,343.362,228.13z"/>
				<path style="opacity:0.1;" d="M345.955,226.12c0,0,0.781,0.813,1.668,2.259c-0.749,0.332-1.427,0.423-2.023,0.41
					C346.019,227.876,346.133,226.958,345.955,226.12z"/>
				<path style="fill:#455A64;" d="M343.362,228.13c-0.835-2.229,0.346-4.556,0.346-7.643l-0.003-2.024c0,0-1.063,1.938-3.125,3.063
					c-1.531,2.031-2.152,5.438-2.152,5.438c1.746-2.125,2.64-2.875,2.64-2.875C341.111,226.807,342.281,227.865,343.362,228.13z"/>
				<path style="opacity:0.5;fill:#FFFFFF;" d="M343.362,228.13c-0.835-2.229,0.346-4.556,0.346-7.643l-0.003-2.024
					c0,0-1.063,1.938-3.125,3.063c-1.531,2.031-2.152,5.438-2.152,5.438c1.746-2.125,2.64-2.875,2.64-2.875
					C341.111,226.807,342.281,227.865,343.362,228.13z"/>
				<path style="opacity:0.1;" d="M339.683,225.501c0.253-0.981,0.74-2.389,1.616-3.413c0,0-0.271,1.083-0.231,2
					C341.068,224.088,340.596,224.488,339.683,225.501z"/>
				<g>
					<path style="fill:#E0E0E0;" d="M327.781,322.365l-4.474-28.451c-0.246-1.562-1.182-2.93-2.549-3.725l-43.519-25.302
						c-0.385-0.224-0.803-0.22-1.156-0.073l-0.002-0.007l-1.034,0.517l0.349,0.131c-0.109,0.226-0.159,0.488-0.114,0.772
						l4.474,28.451c0.246,1.562,1.182,2.931,2.549,3.725l43.519,25.302c0.093,0.054,0.188,0.085,0.284,0.114l-0.04,0.42l1.002-0.494
						l-0.019-0.003C327.536,323.504,327.879,322.987,327.781,322.365z"/>
					<path style="opacity:0.3;" d="M327.781,322.365l-4.474-28.451c-0.246-1.562-1.182-2.93-2.549-3.725l-43.519-25.302
						c-0.385-0.224-0.803-0.22-1.156-0.073l-0.002-0.007l-1.034,0.517l0.349,0.131c-0.109,0.226-0.159,0.488-0.114,0.772
						l4.474,28.451c0.246,1.562,1.182,2.931,2.549,3.725l43.519,25.302c0.093,0.054,0.188,0.085,0.284,0.114l-0.04,0.42l1.002-0.494
						l-0.019-0.003C327.536,323.504,327.879,322.987,327.781,322.365z"/>
					<path style="fill:#E0E0E0;" d="M319.883,290.627l-43.519-25.302c-0.956-0.556-2.129,0.247-1.957,1.339l4.474,28.451
						c0.246,1.562,1.182,2.93,2.549,3.725l43.519,25.302c0.956,0.556,2.129-0.247,1.957-1.339l-4.474-28.451
						C322.186,292.79,321.25,291.422,319.883,290.627z"/>
					<g>
						<path style="fill:#FFFFFF;" d="M298.792,291.362c2.108,1.217,4.035,4.001,4.319,6.221c0.283,2.22-1.183,3.045-3.291,1.827
							c-2.099-1.212-4.035-4.001-4.319-6.221C295.217,290.97,296.693,290.151,298.792,291.362z"/>
					</g>
				</g>
			</g>
		</g>
		<g>
			<g>
				<path style="fill:#BA68C8;" d="M358.111,344.771v63.679l81-46.765v-63.663L358.111,344.771z M367.023,350.035l63.088-36.449
					v42.878l-63.088,36.348V350.035z"/>
				<polygon style="fill:#BA68C8;" points="358.111,344.771 349.111,339.606 349.111,403.285 358.111,408.45 				"/>
				<polygon style="fill:#BA68C8;" points="439.111,298.022 430.111,292.857 349.111,339.606 358.111,344.771 				"/>
				<polygon style="opacity:0.3;fill:#FFFFFF;" points="439.111,298.022 430.111,292.857 349.111,339.606 358.111,344.771 				"/>
				<polygon style="fill:#BA68C8;" points="421.111,351.298 430.111,356.463 430.111,313.585 421.111,318.785 				"/>
				<polygon style="fill:#BA68C8;" points="367.023,392.811 367.023,382.461 421.111,351.298 430.111,356.463 				"/>
				<polygon style="opacity:0.2;fill:#FFFFFF;" points="358.111,344.771 349.111,339.606 349.111,403.285 358.111,408.45 				"/>
				<polygon style="opacity:0.2;fill:#FFFFFF;" points="421.111,351.298 430.111,356.463 430.111,313.585 421.111,318.785 				"/>
				<polygon style="opacity:0.3;fill:#FFFFFF;" points="367.023,392.811 367.023,382.461 421.111,351.298 430.111,356.463 				"/>
			</g>
			<g>
				<path style="fill:#455A64;" d="M441.491,283.229l-0.001,0.001c-0.275-0.724-0.789-1.373-1.547-1.811l-5.461-3.115
					c-2.767-1.598-6.178-1.593-8.941,0.013l-80.027,47.435c-0.763,0.443-1.276,1.099-1.547,1.829l-0.009-0.005
					c-1.832,3.373-2.446,9.992,0.103,14.878c0,0,0.436,0.936,1.461,1.553l5.461,3.115c2.767,1.598,6.178,1.593,8.941-0.013
					l80.027-47.435c0.67-0.389,1.143-0.945,1.434-1.569l0.003,0.002C443.937,293.221,443.324,286.602,441.491,283.229z"/>
				<path style="opacity:0.3;" d="M359.924,335.028l80.027-47.435c1.613-0.937,2.123-2.822,1.539-4.363l0.001-0.001
					c1.833,3.373,2.446,9.992-0.103,14.878l-0.003-0.002c-0.291,0.624-0.764,1.18-1.434,1.569l-80.027,47.435
					c-1.455,0.845-3.089,1.234-4.715,1.192V336.22C356.835,336.263,358.469,335.874,359.924,335.028z"/>
				<path style="opacity:0.2;" d="M343.958,327.576l0.009,0.005c-0.572,1.54-0.055,3.415,1.556,4.345l5.461,3.115
					c1.31,0.756,2.765,1.141,4.226,1.179v12.082c-1.461-0.038-2.916-0.423-4.226-1.179l-5.461-3.115
					c-1.025-0.616-1.461-1.553-1.461-1.553C341.512,337.568,342.126,330.949,343.958,327.576z"/>
			</g>
		</g>
	</g>
</g>
<g id="Upload">
	<g>
		<g>
			<g>
				<polygon style="fill:#BA68C8;" points="232.041,295.739 243.577,316.838 236.609,312.815 236.564,328.405 227.347,323.084 
					227.391,307.493 220.423,303.47 				"/>
			</g>
			<g>
				<polygon style="fill:#BA68C8;" points="236.616,330.587 236.599,336.55 227.381,331.229 227.398,325.266 				"/>
			</g>
			<g>
				<polygon style="fill:#BA68C8;" points="236.616,338.946 236.599,341.928 227.381,336.606 227.398,333.624 				"/>
			</g>
			<g>
				<polygon style="fill:#BA68C8;" points="236.616,343.925 236.599,345.727 227.381,340.405 227.398,338.604 				"/>
			</g>
		</g>
		<g>
			<g>
				<polygon style="fill:#BA68C8;" points="406.147,242.445 417.683,263.544 410.715,259.521 410.671,275.111 401.453,269.79 
					401.497,254.199 394.529,250.176 				"/>
			</g>
			<g>
				<polygon style="fill:#BA68C8;" points="410.722,277.293 410.705,283.256 401.487,277.935 401.504,271.971 				"/>
			</g>
			<g>
				<polygon style="fill:#BA68C8;" points="410.722,285.652 410.705,288.634 401.487,283.312 401.504,280.33 				"/>
			</g>
			<g>
				<polygon style="fill:#BA68C8;" points="410.722,290.631 410.705,292.433 401.487,287.111 401.504,285.31 				"/>
			</g>
		</g>
		<g>
			<g>
				<polygon style="fill:#BA68C8;" points="286.041,180.122 297.577,201.221 290.609,197.198 290.564,212.788 281.347,207.467 
					281.391,191.876 274.423,187.853 				"/>
			</g>
			<g>
				<polygon style="fill:#BA68C8;" points="290.616,214.97 290.599,220.933 281.381,215.612 281.398,209.648 				"/>
			</g>
			<g>
				<polygon style="fill:#BA68C8;" points="290.616,223.329 290.599,226.311 281.381,220.989 281.398,218.007 				"/>
			</g>
			<g>
				<polygon style="fill:#BA68C8;" points="290.616,228.308 290.599,230.11 281.381,224.788 281.398,222.987 				"/>
			</g>
		</g>
	</g>
</g>
</svg>
