<?xml version="1.0" encoding="utf-8"?>
<!-- Generator: Adobe Illustrator 27.5.0, SVG Export Plug-In . SVG Version: 6.00 Build 0)  -->
<svg version="1.1" xmlns="http://www.w3.org/2000/svg" xmlns:xlink="http://www.w3.org/1999/xlink" x="0px" y="0px"
	 viewBox="0 0 750 500" style="enable-background:new 0 0 750 500;" xml:space="preserve">
<g id="BACKGROUND">
	<rect style="fill:#EDEDFC;" width="750" height="500"/>
</g>
<g id="OBJECTS">
	<g>
		<g>
			<path style="fill:#9FA8FF;" d="M630.571,118.928l15.508-4.119l-5.513-20.757l-15.508,4.119c-1.636-2.782-3.586-5.32-5.793-7.582
				l8.054-13.879l-18.576-10.779L600.69,79.81c-3.059-0.794-6.23-1.227-9.457-1.268l-4.119-15.508l-20.757,5.513l4.119,15.507
				c-2.781,1.637-5.32,3.586-7.581,5.793l-13.879-8.054l-10.779,18.576l13.879,8.054c-0.794,3.058-1.227,6.23-1.268,9.457
				l-15.507,4.119l5.513,20.757l15.508-4.118c1.636,2.781,3.586,5.32,5.793,7.582l-8.054,13.879l18.576,10.779l8.054-13.879
				c3.058,0.794,6.23,1.227,9.457,1.268l4.119,15.508l20.757-5.513l-4.119-15.507c2.781-1.637,5.32-3.586,7.582-5.793l13.879,8.054
				l10.779-18.575l-13.879-8.054C630.098,125.326,630.531,122.155,630.571,118.928z M595.227,135.413
				c-9.394,2.495-19.031-3.098-21.526-12.492c-2.495-9.394,3.098-19.032,12.491-21.526c9.394-2.495,19.032,3.098,21.527,12.492
				C610.214,123.28,604.621,132.918,595.227,135.413z"/>
		</g>
		<g>
			<path style="fill:#D3D5FC;" d="M92.289,232.96l6.202-1.647l-2.205-8.301l-6.202,1.647c-0.654-1.112-1.434-2.128-2.317-3.032
				l3.221-5.551l-7.429-4.311l-3.221,5.551c-1.223-0.318-2.492-0.491-3.782-0.507l-1.647-6.202l-8.301,2.205l1.647,6.202
				c-1.112,0.655-2.128,1.434-3.032,2.317l-5.551-3.221l-4.311,7.429l5.551,3.221c-0.318,1.223-0.491,2.492-0.507,3.782
				l-6.202,1.647l2.205,8.301l6.202-1.647c0.654,1.112,1.434,2.128,2.317,3.032l-3.221,5.551l7.429,4.311l3.221-5.551
				c1.223,0.318,2.491,0.491,3.782,0.507l1.647,6.202l8.301-2.205l-1.647-6.202c1.112-0.654,2.128-1.434,3.032-2.317l5.551,3.221
				l4.311-7.429l-5.551-3.221C92.099,235.52,92.272,234.251,92.289,232.96z M78.153,239.554c-3.757,0.998-7.611-1.239-8.609-4.996
				s1.239-7.611,4.996-8.609c3.757-0.998,7.612,1.239,8.609,4.996C84.147,234.701,81.91,238.556,78.153,239.554z"/>
		</g>
		<g>
			<path style="fill:#D3D5FC;" d="M513.094,99.445l4.722-1.254l-1.679-6.32l-4.722,1.254c-0.498-0.847-1.092-1.62-1.764-2.309
				l2.452-4.226l-5.656-3.282l-2.452,4.226c-0.931-0.242-1.897-0.374-2.88-0.386l-1.254-4.722l-6.32,1.679l1.254,4.722
				c-0.847,0.498-1.62,1.092-2.308,1.764l-4.226-2.452l-3.282,5.656l4.226,2.452c-0.242,0.931-0.374,1.897-0.386,2.88l-4.722,1.254
				l1.678,6.32l4.722-1.254c0.498,0.847,1.092,1.62,1.764,2.308l-2.452,4.226l5.656,3.282l2.452-4.226
				c0.931,0.242,1.897,0.374,2.879,0.386l1.254,4.722l6.32-1.679l-1.254-4.722c0.847-0.498,1.62-1.092,2.309-1.764l4.226,2.452
				l3.282-5.656l-4.226-2.452C512.95,101.394,513.082,100.428,513.094,99.445z M502.333,104.465c-2.86,0.76-5.795-0.943-6.555-3.804
				c-0.76-2.86,0.943-5.795,3.803-6.555c2.86-0.76,5.795,0.943,6.555,3.804C506.896,100.771,505.193,103.705,502.333,104.465z"/>
		</g>
		<path style="fill:#9FA8FF;" d="M212.435,139.76c-1.423-3.491-4.846-5.955-8.85-5.955c-3.697,0-6.896,2.102-8.487,5.173
			c-1.443-3.018-4.515-5.108-8.083-5.108c-1.454,0-2.822,0.354-4.037,0.968c-2.245-5.225-7.435-8.886-13.482-8.886
			c-2.06,0-4.018,0.428-5.797,1.194c-0.805-11.133-10.071-19.922-21.41-19.922c-11.769,0-21.316,9.465-21.474,21.197
			c-3.173-3.324-7.636-5.404-12.593-5.404c-7.29,0-13.527,4.482-16.125,10.837c-1.977-1.695-4.541-2.725-7.349-2.725
			c-5.32,0-9.77,3.68-10.974,8.63c-0.209,0.859-0.332,1.752-0.332,2.675c0,2.044,0.55,3.955,1.499,5.61h17.625h1.989h29.323h9.074
			h18.675h5.229h22.874h2.406h12.164h0.957h16.656c0.78-1.384,1.23-2.98,1.23-4.682C213.143,142.087,212.889,140.872,212.435,139.76
			z"/>
		<path style="fill:#FFFFFF;" d="M174.786,167.122c-1.423-3.492-4.847-5.955-8.85-5.955c-3.696,0-6.897,2.102-8.486,5.173
			c-1.443-3.018-4.515-5.108-8.083-5.108c-1.454,0-2.822,0.354-4.037,0.968c-2.245-5.225-7.435-8.886-13.482-8.886
			c-2.06,0-4.018,0.428-5.797,1.194c-0.806-11.133-10.071-19.922-21.41-19.922c-11.769,0-21.316,9.465-21.474,21.197
			c-3.173-3.324-7.636-5.404-12.593-5.404c-7.29,0-13.527,4.482-16.125,10.837c-1.977-1.695-4.541-2.725-7.349-2.725
			c-5.32,0-9.77,3.68-10.974,8.63c-0.209,0.859-0.332,1.752-0.332,2.675c0,2.044,0.55,3.955,1.499,5.61h17.625h1.989H86.23h9.073
			h18.675h5.229h22.874h2.406h12.164h0.957h16.655c0.78-1.385,1.23-2.98,1.23-4.682C175.494,169.45,175.24,168.235,174.786,167.122z
			"/>
		<path style="fill:#FFFFFF;" d="M707.625,308.326c-1.034-2.536-3.52-4.325-6.427-4.325c-2.685,0-5.009,1.527-6.163,3.757
			c-1.048-2.192-3.279-3.71-5.87-3.71c-1.056,0-2.05,0.257-2.932,0.703c-1.63-3.795-5.399-6.454-9.792-6.454
			c-1.496,0-2.918,0.311-4.21,0.867c-0.585-8.086-7.314-14.468-15.549-14.468c-8.548,0-15.481,6.874-15.596,15.395
			c-2.304-2.414-5.545-3.925-9.146-3.925c-5.295,0-9.824,3.255-11.711,7.871c-1.436-1.231-3.298-1.979-5.337-1.979
			c-3.864,0-7.096,2.673-7.97,6.268c-0.152,0.624-0.241,1.272-0.241,1.943c0,1.484,0.4,2.872,1.088,4.074h12.8h1.445h21.296h6.59
			h13.563h3.797h16.612h1.748h8.834h0.695h12.096c0.567-1.005,0.893-2.164,0.893-3.4
			C708.139,310.017,707.954,309.134,707.625,308.326z"/>
		<path style="fill:#FFFFFF;" d="M713.335,146.313c-1.748-4.288-5.952-7.313-10.868-7.313c-4.54,0-8.469,2.582-10.422,6.352
			c-1.772-3.706-5.545-6.273-9.927-6.273c-1.785,0-3.466,0.435-4.957,1.189c-2.757-6.417-9.13-10.913-16.557-10.913
			c-2.529,0-4.934,0.526-7.119,1.467c-0.989-13.673-12.368-24.465-26.293-24.465c-14.454,0-26.178,11.624-26.372,26.032
			c-3.896-4.081-9.377-6.637-15.465-6.637c-8.953,0-16.612,5.504-19.802,13.309c-2.428-2.081-5.576-3.346-9.025-3.346
			c-6.534,0-11.998,4.519-13.476,10.598c-0.256,1.055-0.407,2.152-0.407,3.286c0,2.51,0.676,4.857,1.84,6.889h21.644h2.443h36.011
			h11.143h22.935h6.421h28.091h2.955h14.939h1.175h20.454c0.958-1.7,1.511-3.659,1.511-5.75
			C714.205,149.171,713.892,147.679,713.335,146.313z"/>
		<g>
			<path style="fill:#D3D5FC;" d="M695.067,339.734l4.587-1.218l-1.631-6.139l-4.587,1.218c-0.484-0.823-1.06-1.574-1.713-2.242
				l2.382-4.105l-5.494-3.188l-2.382,4.105c-0.905-0.235-1.843-0.363-2.797-0.375l-1.218-4.587l-6.139,1.63l1.218,4.586
				c-0.823,0.484-1.573,1.061-2.242,1.713l-4.105-2.382l-3.188,5.494l4.105,2.382c-0.235,0.905-0.363,1.843-0.375,2.797
				l-4.587,1.218l1.63,6.139l4.587-1.218c0.484,0.823,1.06,1.574,1.713,2.242l-2.382,4.105l5.494,3.188l2.382-4.105
				c0.905,0.235,1.843,0.363,2.797,0.375l1.218,4.587l6.139-1.63l-1.218-4.587c0.823-0.484,1.574-1.061,2.242-1.713l4.105,2.382
				l3.188-5.494l-4.105-2.382C694.927,341.627,695.055,340.689,695.067,339.734z M684.614,344.61
				c-2.778,0.738-5.629-0.916-6.367-3.695c-0.738-2.779,0.916-5.629,3.695-6.367c2.778-0.738,5.629,0.916,6.367,3.695
				C689.046,341.022,687.392,343.872,684.614,344.61z"/>
		</g>
	</g>
	<g>
		<path style="fill:#D3D5FC;" d="M675.779,386.546c-0.671-13.358-6.987-23.722-18.282-28.502
			c-6.685-2.829-13.909-4.238-20.111-8.192c-9.387-5.985-14.168-16.202-14.735-28.061c-0.442-9.256,1.306-18.441,2.379-27.633
			c2.81-24.08-8.137-44.817-28.608-54.049c-15.066-6.795-32.042-6.368-48.059-3.226c-8.845,1.735-17.587,4.264-26.537,5.108
			c-10.489,0.989-22.342,0.083-29.436-9.372c-6.54-8.717-6.381-22.073-5.313-32.651c6.37-63.1-65.171-87.785-109.663-71.02
			c-21.744,8.193-32.486,31.074-40.245,53.367c-7.398,21.254-13.25,53.804-32.356,66.008c-33.261,21.245-64.6-51.278-98.102-16.897
			c-7.968,8.177-10.287,19.715-11.052,31.269c-0.872,13.172-1.262,26.617-10.927,35.986c-5.718,5.543-13.237,8.385-20.771,9.444
			c-16.929,2.378-34.016-3.011-50.922,0.214c-17.551,3.348-29.522,17.776-34.107,36.466c-3.279,13.364-2.912,27.484-1.762,41.274
			L675.779,386.546z"/>
		<rect x="75.379" y="386.071" style="fill:#9FA5FB;" width="601.583" height="4.518"/>
	</g>
	<g>
		<rect x="310.324" y="380.137" style="fill:#6F58FF;" width="129.63" height="6.067"/>
		<path style="fill:#6F58FF;" d="M534.596,320.59h-316.85V155.829c0-7.005,5.679-12.684,12.684-12.684h291.483
			c7.005,0,12.684,5.679,12.684,12.684V320.59z"/>
		<path style="fill:#9FA5FB;" d="M521.965,350.96H230.377c-6.976,0-12.631-5.655-12.631-12.631V320.59h316.85v17.739
			C534.596,345.305,528.941,350.96,521.965,350.96z"/>
		<polygon style="fill:#D3D5FC;" points="522.905,153.389 229.436,153.389 229.436,309.6 229.436,309.6 522.905,309.6 		"/>
		<rect x="347.171" y="332.074" style="fill:#6F58FF;" width="58.602" height="7.34"/>
		<polygon style="fill:#969FF5;" points="415.517,380.137 336.825,380.137 340.963,350.96 411.378,350.96 		"/>
	</g>
	<polygon style="fill:#7373FF;" points="340.94,350.96 411.368,350.96 412.723,360.928 339.516,360.928 	"/>
	<g>
		<ellipse style="fill:#D3D5FC;" cx="185.376" cy="429.492" rx="70.822" ry="14.779"/>
		<g>
			<path style="fill:#FFB600;" d="M210.633,352.005c-0.346-0.714-0.901-1.269-1.576-1.583l-17.553-8.149l-9.569-0.039l-9.569,0.053
				l-17.247,8.113c-0.758,0.357-1.38,0.989-1.766,1.793c-1.253,2.607-7.868,24.547-11.675,37.306
				c-1.338,4.486,1.689,9.102,5.964,9.099l68.027-0.048c4.217-0.003,7.229-4.509,5.992-8.964
				C218.106,376.783,211.848,354.515,210.633,352.005z"/>
			<polygon style="fill:#FFFFFF;" points="191.507,342.269 172.362,342.282 172.386,398.58 191.567,398.566 			"/>
		</g>
		<rect x="153.39" y="398.573" style="fill:#1C244C;" width="57.889" height="21.762"/>
		<g>
			<path style="fill:#EBAEA3;" d="M173.26,330.589l0.009,12.121v0.037c0,0,3.563,1.428,8.357,1.505
				c2.605,0.042,5.573-0.314,8.532-1.517l-0.009-12.158L173.26,330.589z"/>
			<path style="fill:#E48C87;" d="M190.013,333.203c-0.11,0.116-0.22,0.231-0.331,0.341c-0.063,0.062-0.126,0.122-0.188,0.182
				c-0.109,0.104-0.219,0.208-0.329,0.306c-0.066,0.059-0.132,0.116-0.198,0.173c-0.108,0.093-0.215,0.185-0.323,0.273
				c-0.07,0.056-0.139,0.11-0.209,0.165c-0.105,0.082-0.209,0.163-0.314,0.24c-0.073,0.054-0.146,0.105-0.22,0.156
				c-0.101,0.071-0.202,0.143-0.303,0.21c-0.077,0.051-0.153,0.099-0.229,0.147c-0.096,0.061-0.193,0.123-0.289,0.181
				c-0.082,0.049-0.162,0.095-0.243,0.141c-0.089,0.051-0.178,0.103-0.267,0.152c-0.088,0.048-0.174,0.092-0.26,0.137
				c-0.08,0.042-0.161,0.084-0.24,0.123c-0.095,0.047-0.187,0.089-0.28,0.133c-0.069,0.032-0.138,0.066-0.206,0.096
				c-0.104,0.046-0.204,0.088-0.305,0.131c-0.055,0.023-0.111,0.047-0.165,0.069c-0.115,0.046-0.225,0.088-0.336,0.129
				c-0.038,0.014-0.077,0.03-0.115,0.044c-0.133,0.048-0.261,0.092-0.387,0.133c-0.013,0.004-0.028,0.01-0.041,0.014
				c-0.422,0.137-0.806,0.239-1.134,0.313c-0.501,0.113-1.013,0.174-1.526,0.17c-0.171-0.001-0.342-0.01-0.513-0.026
				c-0.273-0.026-0.539-0.06-0.8-0.099c-0.022-0.003-0.044-0.008-0.067-0.011c-0.256-0.039-0.505-0.085-0.75-0.135
				c-0.007-0.002-0.014-0.003-0.021-0.005c-1.428-0.299-2.675-0.794-3.763-1.444c-0.018-0.011-0.037-0.021-0.055-0.032
				c-0.226-0.137-0.447-0.28-0.66-0.43c-0.004-0.003-0.009-0.006-0.013-0.009c-0.008-0.005-0.014-0.012-0.022-0.017
				c-0.602-0.428-1.149-0.907-1.647-1.427l0.001,1.365c0.498,0.52,1.045,0.999,1.647,1.427c0.008,0.005,0.014,0.012,0.022,0.017
				c0.004,0.003,0.009,0.006,0.013,0.009c0.213,0.15,0.433,0.293,0.66,0.43c0.018,0.011,0.037,0.021,0.055,0.032
				c1.088,0.65,2.335,1.146,3.763,1.444c0.007,0.001,0.014,0.003,0.021,0.004c0.245,0.051,0.495,0.097,0.75,0.135
				c0.022,0.004,0.044,0.008,0.067,0.011c0.261,0.039,0.527,0.073,0.8,0.098c0.171,0.016,0.342,0.025,0.513,0.026
				c0.512,0.004,1.024-0.057,1.525-0.17c0.329-0.074,0.712-0.176,1.135-0.313c0.013-0.004,0.028-0.01,0.041-0.014
				c0.126-0.041,0.255-0.085,0.387-0.133c0.038-0.014,0.077-0.03,0.115-0.044c0.111-0.041,0.222-0.083,0.336-0.129
				c0.054-0.022,0.11-0.046,0.165-0.069c0.101-0.042,0.202-0.084,0.305-0.13c0.068-0.03,0.137-0.064,0.206-0.096
				c0.093-0.043,0.186-0.086,0.28-0.133c0.079-0.039,0.16-0.082,0.24-0.123c0.086-0.045,0.173-0.089,0.26-0.137
				c0.088-0.048,0.177-0.1,0.267-0.152c0.081-0.047,0.161-0.092,0.243-0.141c0.096-0.058,0.192-0.12,0.289-0.181
				c0.076-0.049,0.152-0.096,0.229-0.147c0.101-0.067,0.202-0.138,0.303-0.21c0.073-0.052,0.146-0.102,0.22-0.156
				c0.105-0.077,0.209-0.158,0.314-0.24c0.07-0.054,0.14-0.108,0.21-0.165c0.108-0.087,0.216-0.18,0.323-0.272
				c0.066-0.057,0.132-0.113,0.198-0.173c0.11-0.099,0.219-0.202,0.329-0.306c0.063-0.06,0.126-0.12,0.189-0.182
				c0.111-0.11,0.221-0.225,0.331-0.341c0.046-0.049,0.092-0.099,0.139-0.149l-0.001-1.365
				C190.105,333.104,190.059,333.154,190.013,333.203z"/>
			<g>
				<g>
					<path style="fill:#E48C87;" d="M171.013,322.113c-0.682,1.684-2.6,2.496-4.284,1.814c-1.684-0.682-2.496-2.6-1.814-4.284
						c0.682-1.684,2.6-2.496,4.284-1.814C170.883,318.511,171.695,320.429,171.013,322.113z"/>
				</g>
			</g>
			<g>
				<g>
					<path style="fill:#E48C87;" d="M198.831,320.956c-0.682,1.684-2.6,2.496-4.284,1.814c-1.684-0.682-2.496-2.6-1.814-4.284
						c0.682-1.684,2.6-2.496,4.284-1.814C198.701,317.354,199.513,319.272,198.831,320.956z"/>
				</g>
			</g>
			<path style="fill:#EBAEA3;" d="M194.643,313.678c1.685,18.412-8.051,22.287-11.574,23.084c-0.668,0.151-1.355,0.209-2.037,0.145
				c-15.745-1.494-12.298-24.661-12.298-24.661s1.568-9.675,13.499-9.121C182.233,303.124,193.673,303.078,194.643,313.678z"/>
			<path style="fill:#313362;" d="M165.954,311.331c-0.221,1.689,0.15,4.26,2.451,7.849c0,0,5.614-9.459,1.2-10.52
				C167.86,308.241,166.186,309.552,165.954,311.331z"/>
			<path style="fill:#313362;" d="M196.486,311.267c0.695,1.676,0.964,4.548-2.004,8.46c0,0-5.694-10.082-1.204-10.481
				C194.66,309.124,195.955,309.985,196.486,311.267z"/>
			<polyline style="fill:none;stroke:#E48C87;stroke-width:0.5;stroke-miterlimit:10;" points="181.231,321.659 180.439,324.597 
				182.232,324.597 			"/>
			<path style="fill:#E48C87;" d="M191.918,326.734c0.001,1.483-1.201,2.687-2.684,2.688c-1.483,0.001-2.687-1.201-2.688-2.684
				c-0.001-1.483,1.201-2.687,2.684-2.688C190.713,324.049,191.917,325.251,191.918,326.734z"/>
			<path style="fill:#E48C87;" d="M176.825,326.745c0.001,1.483-1.201,2.687-2.684,2.688c-1.483,0.001-2.687-1.201-2.688-2.684
				c-0.001-1.483,1.201-2.687,2.684-2.688C175.621,324.06,176.824,325.262,176.825,326.745z"/>
			<path style="fill:#313362;" d="M175.688,320.784c0,0.422-0.341,0.763-0.762,0.764c-0.422,0-0.763-0.341-0.764-0.763
				c0-0.422,0.341-0.763,0.762-0.764C175.346,320.021,175.687,320.362,175.688,320.784z"/>
			<path style="fill:#313362;" d="M188.403,320.748c0,0.421-0.341,0.763-0.762,0.764c-0.422,0-0.763-0.341-0.764-0.762
				c0-0.421,0.341-0.763,0.763-0.764C188.061,319.985,188.403,320.327,188.403,320.748z"/>
			<g>
				<path style="fill:#313362;" d="M171.838,316.626l6.174-0.817c-0.854-0.717-2.009-1.06-3.259-0.894
					c-1.239,0.164-2.281,0.819-2.921,1.721"/>
			</g>
			<g>
				<path style="fill:#313362;" d="M190.903,316.488l-6.175-0.809c0.853-0.718,2.007-1.063,3.258-0.899
					c1.239,0.162,2.282,0.816,2.923,1.717"/>
			</g>
			<path style="fill:#313362;" d="M165.375,302.447c0,0,2.884,15.387,28.275,7.31C193.65,309.757,193.019,288.429,165.375,302.447z"
				/>
			<g>
				<path style="fill:#FFFFFF;" d="M183.662,329.437c-0.427,0.917-1.313,1.545-2.333,1.54c-1.014-0.006-1.887-0.635-2.307-1.547
					L183.662,329.437z"/>
			</g>
			<g>
				<g>
					<g>
						<path style="fill:#6F58FF;" d="M189.374,325.154c-3.034,0.002-5.504-2.454-5.506-5.474l-0.001-1.826
							c-0.001-0.832,0.678-1.509,1.514-1.51l7.975-0.006c0.835-0.001,1.515,0.675,1.516,1.507l0.001,1.826
							C194.874,322.692,192.408,325.151,189.374,325.154z M185.38,316.777c-0.595,0-1.079,0.483-1.079,1.076l0.001,1.826
							c0.002,2.782,2.277,5.043,5.07,5.041c2.794-0.002,5.065-2.266,5.063-5.048l-0.001-1.826c0-0.593-0.485-1.075-1.08-1.074
							L185.38,316.777z"/>
					</g>
				</g>
				<g>
					<g>
						<path style="fill:#6F58FF;" d="M173.889,325.165c-3.034,0.002-5.504-2.454-5.506-5.474l-0.001-1.826
							c-0.001-0.832,0.678-1.509,1.514-1.51l7.975-0.006c0.835-0.001,1.515,0.675,1.516,1.507l0.001,1.826
							C179.389,322.703,176.923,325.163,173.889,325.165z M169.896,316.789c-0.595,0-1.079,0.483-1.079,1.076l0.001,1.826
							c0.002,2.782,2.277,5.043,5.07,5.041c2.794-0.002,5.065-2.266,5.063-5.048l-0.001-1.826c0-0.593-0.485-1.075-1.08-1.074
							L169.896,316.789z"/>
					</g>
				</g>
				<g>
					<path style="fill:#6F58FF;" d="M179.361,320.007l-0.431-0.59c0.029-0.021,2.885-2.047,5.358,0.011l-0.47,0.56
						C181.779,318.291,179.385,319.989,179.361,320.007z"/>
				</g>
			</g>
		</g>
		<g>
			<g>
				<path style="fill:#232323;" d="M128.032,424.873c6.044-2.788,19.449-1.117,19.449-1.117s-3.904,6.951,2.771,9.385l-12.604,2.408
					c-2.218,0.424-4.52,0.353-6.67-0.336c-3.901-1.25-5.138-3.674-5.467-5.58C125.171,427.661,126.216,425.711,128.032,424.873z"/>
				<path style="fill:#EBAEA3;" d="M147.481,423.756l6.303-0.005l2.167,7.247l-5.699,2.142
					C143.577,430.707,147.481,423.756,147.481,423.756z"/>
			</g>
			<path style="fill:#282B54;" d="M222.546,396.998c4.434-1.426,9.031-1.967,12.35,1.887c2.575,2.99,2.984,7.388,1.014,10.807
				c-1.995,3.462-6.036,5.045-9.481,6.638c-7.191,3.325-63.478,16.848-71.045,18.642l-4.139-13.84
				c3.454-1.174,6.919-2.315,10.381-3.466c5.945-1.977,11.89-3.952,17.834-5.932c6.597-2.197,13.192-4.398,19.784-6.611
				c5.415-1.819,10.83-3.64,16.229-5.504C217.609,398.881,220.052,397.8,222.546,396.998z"/>
		</g>
		<g>
			<g>
				<path style="fill:#232323;" d="M240.642,425.872c-6.048-2.779-19.451-1.09-19.451-1.09s3.914,6.945-2.758,9.389l12.607,2.39
					c2.219,0.421,4.52,0.346,6.67-0.346c3.9-1.256,5.133-3.682,5.459-5.588C243.507,428.656,242.459,426.707,240.642,425.872z"/>
				<path style="fill:#EBAEA3;" d="M221.191,424.783l-6.303,0.005l-2.157,7.25l5.702,2.134
					C225.106,431.728,221.191,424.783,221.191,424.783z"/>
			</g>
			<path style="fill:#313362;" d="M146.089,397.753c-4.436-1.419-9.033-1.954-12.348,1.905c-2.571,2.993-2.974,7.392-0.999,10.808
				c2,3.459,6.043,5.037,9.491,6.625c7.195,3.315,63.502,16.758,71.071,18.54c0,0,4.12-13.846,4.12-13.846
				c-3.456-1.169-6.923-2.305-10.386-3.451c-5.948-1.968-11.896-3.935-17.843-5.906c-6.6-2.187-13.199-4.379-19.793-6.583
				c-5.418-1.811-10.835-3.625-16.237-5.481C151.028,399.63,148.584,398.551,146.089,397.753z"/>
		</g>
		<g>
			<path style="fill:#AEB5F0;" d="M208.573,355.926l-53.129,0.038c-3.347,0.002-6.059,2.718-6.057,6.065l1.664,39.795l61.981-0.044
				l1.607-39.797C214.636,358.635,211.921,355.924,208.573,355.926z"/>
			<path style="fill:#C3CAF1;" d="M157.894,359.905l53.129-0.038c1.318-0.001,2.534,0.423,3.529,1.137
				c-0.471-2.88-2.965-5.079-5.978-5.077l-53.129,0.038c-3.347,0.002-6.059,2.718-6.057,6.065l1.664,39.795l2.285-0.002
				l-1.499-35.853C151.835,362.622,154.546,359.907,157.894,359.905z"/>
			<path style="fill:#FFFFFF;" d="M186.364,374.815c0.001,2.24-1.813,4.057-4.052,4.058c-2.24,0.002-4.057-1.813-4.058-4.052
				c-0.002-2.24,1.813-4.056,4.052-4.058C184.546,370.761,186.363,372.576,186.364,374.815z"/>
		</g>
	</g>
	<g>
		<rect x="225.103" y="269.835" style="opacity:0.29;fill:#4139A1;" width="104.001" height="65.911"/>
		<g>
			<g>
				<g>
					<rect x="222.707" y="267.409" style="fill:#FBFFFC;" width="104.001" height="65.911"/>
					<g>
						<g>
							<path style="fill:#DB2D51;" d="M273.997,314.94c-10.719,0-19.44-8.721-19.44-19.44c0-10.719,8.721-19.44,19.44-19.44
								c10.721,0,19.442,8.721,19.442,19.44C293.438,306.22,284.717,314.94,273.997,314.94z M273.997,277.828
								c-9.744,0-17.673,7.929-17.673,17.673c0,9.744,7.929,17.673,17.673,17.673c9.746,0,17.675-7.929,17.675-17.673
								C291.671,285.756,283.743,277.828,273.997,277.828z"/>
						</g>
						<polygon style="fill:#DB2D51;" points="285.86,295.5 268.066,284.448 268.066,306.553 						"/>
					</g>
					<g>
						<rect x="225.316" y="322.86" style="fill:#9FA5FB;" width="98.875" height="7.164"/>
						<polygon style="fill:#FBFFFC;" points="231.529,326.499 227.852,324.215 227.852,328.783 						"/>
						<path style="fill:#FBFFFC;" d="M281.478,326.442c0,1.208-0.979,2.188-2.188,2.188c-1.208,0-2.187-0.979-2.187-2.188
							c0-1.208,0.979-2.187,2.187-2.187C280.499,324.255,281.478,325.234,281.478,326.442z"/>
					</g>
				</g>
				<line style="fill:none;stroke:#FBFFFC;stroke-miterlimit:10;" x1="231.529" y1="326.499" x2="321.976" y2="326.499"/>
			</g>
		</g>
	</g>
	<g>
		<rect x="217.743" y="177.601" style="opacity:0.29;fill:#4139A1;" width="73.865" height="37.935"/>
		<rect x="217.746" y="221.247" style="opacity:0.29;fill:#4139A1;" width="73.862" height="37.935"/>
		<g>
			<g>
				<g>
					
						<rect x="149.055" y="219.139" transform="matrix(-1 -1.224647e-16 1.224647e-16 -1 438.4766 476.1921)" style="fill:#DB2D51;" width="140.366" height="37.914"/>
					
						<rect x="190.746" y="227.169" transform="matrix(-1 -1.224647e-16 1.224647e-16 -1 469.6154 458.5042)" style="fill:#FFFFFF;" width="88.124" height="4.167"/>
					
						<rect x="190.746" y="235.503" transform="matrix(-1 -1.224647e-16 1.224647e-16 -1 469.6154 475.1725)" style="fill:#FFFFFF;" width="88.124" height="4.167"/>
					
						<rect x="190.822" y="243.666" transform="matrix(-1 -1.224647e-16 1.224647e-16 -1 427.5766 491.6705)" style="fill:#FFFFFF;" width="45.933" height="4.338"/>
					
						<rect x="157.502" y="225.956" transform="matrix(-1 -1.224647e-16 1.224647e-16 -1 338.2314 475.138)" style="fill:#FFFFFF;" width="23.226" height="23.226"/>
					<g>
						<path style="fill:#D3D5FC;" d="M173.583,232.805c0,2.532-2.053,4.585-4.585,4.585c-2.532,0-4.585-2.053-4.585-4.585
							c0-2.532,2.053-4.585,4.585-4.585C171.531,228.22,173.583,230.272,173.583,232.805z"/>
						<path style="fill:#D3D5FC;" d="M177.789,249.238h-17.347v-3.174c0-4.79,3.883-8.673,8.673-8.673l0,0
							c4.79,0,8.673,3.883,8.673,8.673V249.238z"/>
					</g>
				</g>
				<g>
					
						<rect x="149.055" y="175.348" transform="matrix(-1 -1.224647e-16 1.224647e-16 -1 438.4766 388.6091)" style="fill:#ECB42A;" width="140.366" height="37.914"/>
					
						<rect x="190.746" y="183.377" transform="matrix(-1 -1.224647e-16 1.224647e-16 -1 469.6154 370.921)" style="fill:#FFFFFF;" width="88.124" height="4.167"/>
					
						<rect x="190.746" y="191.711" transform="matrix(-1 -1.224647e-16 1.224647e-16 -1 469.6154 387.5895)" style="fill:#FFFFFF;" width="88.124" height="4.167"/>
					
						<rect x="190.822" y="199.875" transform="matrix(-1 -1.224647e-16 1.224647e-16 -1 427.5766 404.0873)" style="fill:#FFFFFF;" width="45.933" height="4.338"/>
					
						<rect x="157.502" y="182.164" transform="matrix(-1 -1.224647e-16 1.224647e-16 -1 338.2314 387.5549)" style="fill:#FFFFFF;" width="23.226" height="23.226"/>
					<g>
						<path style="fill:#D3D5FC;" d="M173.466,188.958c0,2.532-2.053,4.585-4.585,4.585c-2.532,0-4.585-2.053-4.585-4.585
							c0-2.532,2.053-4.585,4.585-4.585C171.413,184.373,173.466,186.426,173.466,188.958z"/>
						<path style="fill:#D3D5FC;" d="M177.672,205.391h-17.347v-3.175c0-4.79,3.883-8.673,8.673-8.673l0,0
							c4.79,0,8.673,3.883,8.673,8.673V205.391z"/>
					</g>
				</g>
			</g>
			<polyline style="fill:none;stroke:#4C28DC;stroke-width:2;stroke-miterlimit:10;stroke-dasharray:4;" points="149.055,192.859 
				129.162,192.859 129.162,238.211 149.055,238.211 			"/>
		</g>
	</g>
	<g>
		<rect x="498.962" y="173.592" style="opacity:0.29;fill:#4139A1;" width="35.634" height="23.243"/>
		<g>
			<rect x="500.957" y="170.324" style="fill:#ECB42A;" width="62.296" height="24.533"/>
			<g>
				<rect x="509.151" y="178.042" style="fill:#FFFFFF;" width="46.433" height="2.125"/>
				<rect x="509.151" y="182.797" style="fill:#FFFFFF;" width="46.433" height="2.124"/>
				<rect x="509.151" y="187.553" style="fill:#FFFFFF;" width="31.641" height="2.124"/>
			</g>
		</g>
	</g>
	<g>
		<g>
			<rect x="73.444" y="317.522" style="fill:#6F58FF;" width="73.872" height="24.533"/>
			<g>
				<rect x="83.161" y="325.24" style="fill:#FFFFFF;" width="55.061" height="2.125"/>
				<rect x="83.161" y="329.996" style="fill:#FFFFFF;" width="55.061" height="2.124"/>
				<rect x="83.161" y="334.751" style="fill:#FFFFFF;" width="37.52" height="2.124"/>
			</g>
		</g>
	</g>
	<g>
		<rect x="327.859" y="143.146" style="opacity:0.29;fill:#4139A1;" width="158.514" height="90.035"/>
		<g>
			<rect x="323.308" y="121.453" style="fill:#9090F4;" width="158.514" height="107.5"/>
			<rect x="332.051" y="129.17" style="fill:#FFFFFF;" width="140.404" height="76.406"/>
			<rect x="331.369" y="211.064" style="fill:#FFFFFF;" width="58.894" height="12.401"/>
			<rect x="395.32" y="211.064" style="fill:#FFFFFF;" width="77.135" height="2.766"/>
			<rect x="395.32" y="220.699" style="fill:#FFFFFF;" width="62.458" height="2.766"/>
			<rect x="395.32" y="215.549" style="fill:#FFFFFF;" width="45.743" height="2.766"/>
			<polygon style="fill:#706CCA;" points="337.381,205.576 366.543,143.348 402.277,187.965 420.934,163.238 467.172,205.576 			"/>
			<circle style="fill:#FFC41D;" cx="444.349" cy="149.664" r="10.886"/>
		</g>
	</g>
	<g>
		<g>
			<g>
				<g>
					<rect x="115.75" y="291.324" style="fill:#9FA5FB;" width="16.811" height="3.067"/>
				</g>
				<g>
					<path style="fill:#9FA5FB;" d="M127.836,300.164h-7.362c-2.609,0-4.725-2.115-4.725-4.725l0,0h16.811l0,0
						C132.561,298.049,130.446,300.164,127.836,300.164z"/>
				</g>
				<g>
					<path style="fill:#ECB42A;" d="M122.293,263.497c-6.409,0.708-11.571,5.868-12.28,12.277c-0.483,4.365,1.048,8.382,3.782,11.24
						c0.338,0.353,0.73,0.651,1.052,1.019c0.556,0.636,0.866,1.471,1.076,2.278c0.013,0.051,0.199,1.014,0.172,1.014h7.787h7.787
						c0,0,0.007-0.273,0.103-0.723c0.26-1.217,0.9-2.324,1.796-3.187c2.633-2.539,4.272-6.101,4.272-10.048
						C137.84,269.135,130.713,262.567,122.293,263.497z"/>
				</g>
				<g>
					<rect x="115.75" y="294.021" style="fill:#6F58FF;" width="16.811" height="1.646"/>
				</g>
			</g>
			<g>
				<g>
					<path style="fill:#6959FA;" d="M120.983,284.885c-0.938,0-1.701-0.763-1.701-1.7c0-0.938,0.764-1.702,1.701-1.702
						c0.938,0,1.702,0.764,1.702,1.702C122.684,284.122,121.92,284.885,120.983,284.885z M120.983,282.201
						c-0.542,0-0.984,0.441-0.984,0.984c0,0.542,0.441,0.983,0.984,0.983c0.542,0,0.984-0.44,0.984-0.983
						C121.967,282.642,121.525,282.201,120.983,282.201z"/>
				</g>
				<g>
					<path style="fill:#6959FA;" d="M126.781,284.885c-0.938,0-1.701-0.763-1.701-1.7c0-0.938,0.764-1.702,1.701-1.702
						c0.938,0,1.702,0.764,1.702,1.702C128.483,284.122,127.719,284.885,126.781,284.885z M126.781,282.201
						c-0.542,0-0.984,0.441-0.984,0.984c0,0.542,0.441,0.983,0.984,0.983c0.543,0,0.984-0.44,0.984-0.983
						C127.765,282.642,127.324,282.201,126.781,282.201z"/>
				</g>
			</g>
			<g>
				<rect x="120.624" y="284.526" style="fill:#6959FA;" width="0.718" height="6.798"/>
			</g>
			<g>
				<rect x="126.422" y="284.526" style="fill:#6959FA;" width="0.718" height="6.798"/>
			</g>
			<g>
				<rect x="122.326" y="282.826" style="fill:#6959FA;" width="3.113" height="0.718"/>
			</g>
		</g>
	</g>
	<g>
		<g>
			<linearGradient id="SVGID_1_" gradientUnits="userSpaceOnUse" x1="398.85" y1="299.52" x2="406.85" y2="299.52">
				<stop  offset="0.2041" style="stop-color:#965BFF"/>
				<stop  offset="1" style="stop-color:#97A4EA"/>
			</linearGradient>
			<polygon style="fill:url(#SVGID_1_);" points="402.851,299.52 402.851,299.52 402.85,299.52 			"/>
			
				<linearGradient id="SVGID_00000103248620519626745120000004441996482036415912_" gradientUnits="userSpaceOnUse" x1="339.5581" y1="299.514" x2="401.7642" y2="299.514">
				<stop  offset="0.0047" style="stop-color:#FFA603"/>
				<stop  offset="1" style="stop-color:#FFDA05"/>
			</linearGradient>
			<polygon style="fill:url(#SVGID_00000103248620519626745120000004441996482036415912_);" points="402.859,299.514 
				402.851,299.508 402.854,299.516 402.851,299.52 402.858,299.52 			"/>
			<g>
				<path style="fill:#6F58FF;" d="M387.142,249.137c-9.763,3.395-18.627,9.344-25.509,17.453l43.942,35.583L387.142,249.137z"/>
				
					<linearGradient id="SVGID_00000004518281571536845900000012043830383496674433_" gradientUnits="userSpaceOnUse" x1="353.16" y1="284.3864" x2="405.578" y2="284.3864">
					<stop  offset="0.2041" style="stop-color:#965BFF"/>
					<stop  offset="1" style="stop-color:#97A4EA"/>
				</linearGradient>
				<path style="fill:url(#SVGID_00000004518281571536845900000012043830383496674433_);" d="M405.575,302.172l-43.942-35.583
					c-3.329,3.922-6.196,8.346-8.473,13.236l52.414,22.358h0.001c0.001-0.001,0.002-0.002,0.003-0.004L405.575,302.172z"/>
				<path style="fill:#ECB42A;" d="M405.575,302.172l-43.942-35.583l-5.094-4.125c-11.44,11.103-14.552,22.518-14.552,39.719h63.587
					h0.001c0.001-0.001,0.002-0.002,0.003-0.004L405.575,302.172z"/>
				<path style="fill:#7580EA;" d="M405.581,302.184c0,0,21.629-49.575,21.634-49.587c0.183-0.411,6.676,3.558,7.158,3.854
					c3.411,2.091,6.607,4.287,9.543,7.035c6.149,5.754,10.97,12.927,13.939,20.81c2.167,5.753,3.417,11.806,3.704,17.948
					L405.581,302.184z"/>
				<path style="fill:#DB2D51;" d="M405.582,302.184l24.792-56.852c-13.302-5.681-30.553-6.865-44.947-0.835l20.15,57.688
					C405.579,302.184,405.58,302.185,405.582,302.184z"/>
			</g>
		</g>
		<g>
			<g>
				<rect x="468.108" y="289.174" style="fill:#ECB42A;" width="9.336" height="8.012"/>
				<rect x="483.286" y="289.174" style="fill:#7580EA;" width="9.336" height="8.012"/>
				<rect x="498.464" y="289.174" style="fill:#DB2D51;" width="9.336" height="8.012"/>
			</g>
			<g>
				<rect x="464.474" y="263.441" style="fill:#FFFFFF;" width="46.961" height="2.689"/>
				<rect x="464.474" y="269.214" style="fill:#FFFFFF;" width="46.961" height="2.689"/>
				<rect x="464.474" y="274.987" style="fill:#FFFFFF;" width="46.961" height="2.689"/>
				<rect x="464.474" y="280.76" style="fill:#FFFFFF;" width="46.961" height="2.689"/>
			</g>
		</g>
	</g>
	<g>
		<g>
			<rect x="632.769" y="175.686" style="fill:#FFFFFF;" width="65.797" height="96.052"/>
			<g>
				<g>
					<line style="fill:#FFFFFF;" x1="659.91" y1="228.291" x2="659.91" y2="196.843"/>
					<path style="fill:#ECB42A;" d="M659.911,230.791c-1.381,0-2.5-1.119-2.5-2.5v-31.448c0-1.381,1.119-2.5,2.5-2.5
						c1.381,0,2.5,1.119,2.5,2.5v31.448C662.411,229.672,661.292,230.791,659.911,230.791z"/>
				</g>
				<g>
					<line style="fill:#FFFFFF;" x1="659.91" y1="244.023" x2="659.91" y2="228.291"/>
					<path style="fill:#D3D5FC;" d="M659.911,246.523c-1.381,0-2.5-1.119-2.5-2.5v-15.732c0-1.381,1.119-2.5,2.5-2.5
						c1.381,0,2.5,1.119,2.5,2.5v15.732C662.411,245.403,661.292,246.523,659.911,246.523z"/>
				</g>
				<g>
					<line style="fill:#FFFFFF;" x1="684.193" y1="227.555" x2="684.193" y2="186.851"/>
					<path style="fill:#DB2D51;" d="M684.193,230.056c-1.381,0-2.5-1.119-2.5-2.5v-40.705c0-1.381,1.119-2.5,2.5-2.5
						s2.5,1.119,2.5,2.5v40.705C686.693,228.936,685.574,230.056,684.193,230.056z"/>
				</g>
				<g>
					<line style="fill:#FFFFFF;" x1="684.193" y1="244.023" x2="684.193" y2="227.555"/>
					<path style="fill:#D3D5FC;" d="M684.193,246.523c-1.381,0-2.5-1.119-2.5-2.5v-16.467c0-1.381,1.119-2.5,2.5-2.5
						s2.5,1.119,2.5,2.5v16.467C686.693,245.403,685.574,246.523,684.193,246.523z"/>
				</g>
				<g>
					<line style="fill:#FFFFFF;" x1="672.941" y1="219.036" x2="672.941" y2="210.048"/>
					<path style="fill:#6F58FF;" d="M672.942,221.536c-1.381,0-2.5-1.119-2.5-2.5v-8.988c0-1.381,1.119-2.5,2.5-2.5
						c1.381,0,2.5,1.119,2.5,2.5v8.988C675.442,220.417,674.323,221.536,672.942,221.536z"/>
				</g>
				<g>
					<line style="fill:#FFFFFF;" x1="672.941" y1="244.023" x2="672.941" y2="219.036"/>
					<path style="fill:#D3D5FC;" d="M672.942,246.523c-1.381,0-2.5-1.119-2.5-2.5v-24.987c0-1.381,1.119-2.5,2.5-2.5
						c1.381,0,2.5,1.119,2.5,2.5v24.987C675.442,245.403,674.323,246.523,672.942,246.523z"/>
				</g>
				<g>
					<line style="fill:#FFFFFF;" x1="647.143" y1="219.036" x2="647.143" y2="203.27"/>
					<path style="fill:#7580EA;" d="M647.143,221.536c-1.381,0-2.5-1.119-2.5-2.5V203.27c0-1.381,1.119-2.5,2.5-2.5
						c1.381,0,2.5,1.119,2.5,2.5v15.766C649.643,220.417,648.524,221.536,647.143,221.536z"/>
				</g>
				<g>
					<line style="fill:#FFFFFF;" x1="647.143" y1="244.023" x2="647.143" y2="219.036"/>
					<path style="fill:#D3D5FC;" d="M647.143,246.523c-1.381,0-2.5-1.119-2.5-2.5v-24.987c0-1.381,1.119-2.5,2.5-2.5
						c1.381,0,2.5,1.119,2.5,2.5v24.987C649.643,245.403,648.524,246.523,647.143,246.523z"/>
				</g>
			</g>
		</g>
		<g>
			<rect x="640.151" y="252.418" style="fill:#7580EA;" width="9.809" height="5.285"/>
			<rect x="640.151" y="260.953" style="fill:#DB2D51;" width="9.809" height="5.285"/>
			<rect x="668.14" y="252.418" style="fill:#ECB42A;" width="9.81" height="5.285"/>
			<rect x="668.14" y="260.953" style="fill:#6F58FF;" width="9.81" height="5.285"/>
			<rect x="651.929" y="253.581" style="fill:#D3D5FC;" width="12.138" height="1.76"/>
			<rect x="651.929" y="263.058" style="fill:#D3D5FC;" width="12.138" height="1.76"/>
			<rect x="679.624" y="253.581" style="fill:#D3D5FC;" width="12.138" height="1.76"/>
			<rect x="679.624" y="263.058" style="fill:#D3D5FC;" width="12.138" height="1.76"/>
		</g>
	</g>
	<g>
		<rect x="241.187" y="143.146" style="opacity:0.29;fill:#4139A1;" width="68.337" height="27.62"/>
		<g>
			<g>
				<rect x="238.199" y="112.69" style="fill:#9090F4;" width="68.18" height="54.968"/>
				<rect x="242.719" y="116.921" style="fill:#FFFFFF;" width="59.14" height="46.218"/>
			</g>
			<g>
				<g>
					<g>
						<g>
							<path style="fill:#ECB42A;" d="M271.534,120.556c1.534-0.107,2.863,1.053,2.97,2.591c0.107,1.538-1.05,2.871-2.584,2.978
								c-5.677,0.395-9.975,5.348-9.581,11.041c0.107,1.538-1.051,2.871-2.584,2.978s-2.863-1.053-2.97-2.591
								C256.178,128.79,262.794,121.165,271.534,120.556z"/>
						</g>
					</g>
					<g>
						<g>
							<path style="fill:#7580EA;" d="M256.746,136.42c0.009-1.542,1.262-2.784,2.799-2.776c1.537,0.009,2.777,1.265,2.768,2.807
								c-0.032,5.706,4.572,10.374,10.263,10.406c1.537,0.009,2.777,1.265,2.768,2.807c-0.008,1.542-1.262,2.784-2.799,2.776
								C263.785,152.391,256.697,145.205,256.746,136.42z"/>
						</g>
					</g>
					<g>
						<g>
							<path style="fill:#DB2D51;" d="M272.646,152.44c-1.537,0-2.784-1.25-2.784-2.791c0-1.542,1.246-2.791,2.784-2.791
								c5.691,0,10.321-4.643,10.321-10.349c0-1.542,1.246-2.791,2.784-2.791c1.537,0,2.784,1.25,2.784,2.791
								C288.534,145.293,281.406,152.44,272.646,152.44z"/>
						</g>
					</g>
					<g>
						<g>
							<path style="fill:#6F58FF;" d="M271.419,120.554c8.74-0.609,16.343,6.028,16.95,14.792c0.107,1.538-1.05,2.871-2.584,2.978
								c-1.534,0.107-2.863-1.053-2.97-2.591c-0.394-5.693-5.333-10.005-11.01-9.61c0.099-0.007,0.199-0.029,0.295-0.052
								c0.24-0.058,0.474-0.143,0.695-0.254c0.296-0.148,0.569-0.343,0.797-0.585c0.28-0.297,0.483-0.659,0.602-1.049
								c0.178-0.581,0.186-1.172-0.003-1.751c-0.105-0.321-0.267-0.622-0.484-0.88c-0.304-0.362-0.706-0.628-1.142-0.806
								c-0.073-0.03-0.147-0.057-0.221-0.082c0,0-0.381-0.115-0.733-0.11"/>
						</g>
					</g>
				</g>
				<g>
					<rect x="246.438" y="154.68" style="fill:#D3D5FC;" width="36.016" height="1.995"/>
					<rect x="285.401" y="154.68" style="fill:#ECB42A;" width="4.536" height="1.995"/>
					<rect x="293.604" y="154.68" style="fill:#6F58FF;" width="4.536" height="1.995"/>
					<rect x="285.401" y="158.116" style="fill:#7580EA;" width="4.536" height="1.995"/>
					<rect x="293.604" y="158.116" style="fill:#DB2D51;" width="4.536" height="1.995"/>
					<rect x="246.438" y="158.116" style="fill:#D3D5FC;" width="36.016" height="1.995"/>
				</g>
			</g>
		</g>
	</g>
	<g>
		<ellipse style="fill:#D3D5FC;" cx="579.178" cy="434.001" rx="47.332" ry="5.824"/>
		<g>
			<path style="fill:#313362;" d="M599.333,230.897c-0.154,0.402-0.184,9.753-0.187,10.183c-0.01,1.616-0.02,3.232-0.032,4.848
				c-0.009,1.279-0.015,2.581,0.349,3.808c0.48,1.617,1.56,2.617,3.093,3.233c3.007,1.209,6.776,1.1,9.898,0.4
				c0.309-0.069,3.273-1.096,3.296-1.068c-1.428-1.732-2.725-3.784-3.354-5.954c-0.879-3.033-0.572-6.152-0.181-9.227
				c0.205-1.611,0.34-3.231,0.406-4.853c0.064-1.566,0.057-9.346-0.246-10.887c-0.799,0.305-2.562,4.092-3.21,4.695
				c-0.805,0.75-1.117,1.436-1.922,2.186c-1.61,1.5-3.609,0.515-5.227,2.004c-0.687,0.639-0.614,0.682-1.33,1.286
				C600.083,232.058,599.634,230.121,599.333,230.897z"/>
			<g>
				<path style="fill:#232323;" d="M566.408,433.614l-0.077-3.722l-0.028-1.375l-0.879,1.059l-4.016-1.399l-21.046,3.705
					c-0.765,0.135-0.838,1.203-0.098,1.438c4.603,1.456,14.074,3.939,21.176,2.415l-0.064,0.731l5.1,0.472L566.408,433.614z"/>
				<path style="fill:#FFBCB5;" d="M561.409,428.177l-12.301,2.165c0,0,13.916,3.916,17.051-1.574"/>
			</g>
			<path style="fill:#242856;" d="M571.32,358.173c-0.091-0.202-0.175-0.406-0.251-0.61c-0.37-0.993-0.437-2.073-0.281-3.121
				l8.335-58.039l8.389-0.484l-2.839,51.427c0.361,0.392,0.726,0.821,1.095,1.282l-12.124,14.699L571.32,358.173z"/>
			<g>
				<path style="fill:#232323;" d="M612.881,431.775l-0.484-3.265c-0.041-0.278-0.095-0.555-0.16-0.829l-0.193-0.809l-0.648,1.021
					l-4.16-0.882l-20.411,6.329c-0.741,0.23-0.685,1.299,0.079,1.438c4.748,0.864,14.461,2.135,21.316-0.273l0.029,0.733
					l5.119-0.175L612.881,431.775z"/>
				<path style="fill:#FFBCB5;" d="M607.236,427.011l-12.045,3.735c0,0,14.459,2.107,16.877-3.735"/>
			</g>
			<path style="fill:#242856;" d="M586.761,382.052l8.12-36.136c1.12,4.539,8.329,30.084,9.529,35.324
				c1.254,5.476,2.185,11.024,2.8,16.608l4.857,29.163l-4.832,0L586.761,382.052z"/>
			<path style="fill:#2D2F64;" d="M573.252,349.114l5.871-52.711l20.686,1.117c9.636,12.096,5.729,25.846-0.25,39.258
				c-3.21,7.201-6.453,19.929-14.361,51.65c-1.359,5.451-3.039,10.82-5.016,16.078l-14.127,24.327l-4.793-0.609L573.252,349.114z"/>
			<polygon style="fill:#333333;" points="579.123,296.403 578.846,298.256 601.076,299.255 599.809,297.52 			"/>
			<polygon style="fill:#14183A;" points="595.53,348.468 586.761,382.052 588.174,385.154 597.016,353.86 			"/>
			<path style="fill:#E8426D;" d="M577.782,281.424c1.739,0.328,3.302-1.126,3.075-2.881c-0.827-6.396-0.7-13.001,0.01-18.771
				c0.477-3.88,1.037-6.632,2.619-9.808c1.308-2.626,8.435-3.227,10.114,2.151c1.551,4.967-0.913,6.439-1.557,11.563
				c-0.589,4.685-1.444,9.348-2.803,13.875c-0.679,2.262-1.484,4.488-2.431,6.652c-0.309,0.707-0.61,1.439-0.922,2.18
				c-0.493,1.169-1.012,2.34-1.639,3.414c-0.007,0.012-0.013,0.024-0.019,0.037l-0.117,0.244c-0.68,1.416-2.282,2.137-3.793,1.707
				c-1.938-0.547-3.876-1.094-5.813-1.642l-3.028-9.758C573.58,280.69,575.682,281.028,577.782,281.424z"/>
			<path style="fill:#FF5076;" d="M589.206,244.561l-8.451,15.488c-1.921,3.294-2.3,7.264-1.036,10.862l1.612,4.589l-2.208,20.932
				l20.686,1.117c4.702-17.765,9.998-26.651,9.998-26.651s8.706-18.909-7.359-23.839L589.206,244.561z"/>
			<path style="fill:#E8426D;" d="M602.173,287.94c1.974,0.185-0.269-16.292-0.084-21.973c0.127-3.907-0.069-8.828,1.222-12.132
				c1.067-2.732,5.789-5.425,7.943-0.219c1.99,4.808,2.498,10.079,2.316,15.24c-0.167,4.719-0.6,9.44-1.548,14.07
				c-0.474,2.314-1.075,4.603-1.825,6.843c-0.245,0.731-0.478,1.488-0.723,2.254c-0.386,1.208-0.799,2.421-1.326,3.548
				c-0.006,0.013-0.011,0.025-0.016,0.038l-0.095,0.253c-0.55,1.469-2.076,2.331-3.618,2.041c-1.982-0.372-3.963-0.744-5.944-1.115
				l-3.89-9.448C596.573,287.448,600.179,287.754,602.173,287.94z"/>
			<g>
				<path style="fill:#FF8D88;" d="M595.956,228.811l1.307-1.943l-6.325,3.449l-4.066,5.199c0,0,0.592,2.73,1.389,6.383
					C590.675,241.89,598.305,232.879,595.956,228.811z"/>
				<path style="fill:#FFBCB5;" d="M600.021,231.432c0,0,5.468-1.682,5.76-4.973l-3.969,1.168l-5.315-3.14
					c-3.288,10.806-6.181,15.759-8.595,15.767c0.34,1.56,0.647,3.133,0.948,4.705c-0.133,2.496-0.406,5.153,2.035,5.943
					c2.347,0.759,5.691-0.708,7.294-2.124c1.108-0.978,1.672-1.023,2.78-2.001c0,0-0.64-3.041-1.311-6.284
					C599.119,237.111,598.899,233.654,600.021,231.432z"/>
			</g>
			<path style="fill:#FFBCB5;" d="M574.561,225.664l2.973,2.59l1.539,9.353c0,0,13.489,2.977,18.515-9.346
				c0,0,8.193-0.459,9.403-7.659c1.21-7.2-5.203-18.383-19.086-13.424c0,0-6.656,2.884-8.11,8.453
				c-0.262,1.002-0.247,2.054-0.061,3.073C580.108,220.758,580.347,225.52,574.561,225.664z"/>
			<g>
				<path style="fill:#FF8D88;" d="M588.901,226.669c0.593,1.516-0.155,3.226-1.671,3.819c-1.516,0.593-3.226-0.155-3.819-1.671
					c-0.593-1.516,0.155-3.225,1.671-3.819C586.598,224.406,588.307,225.154,588.901,226.669z"/>
				<path style="fill:none;stroke:#FF8D88;stroke-width:0.25;stroke-miterlimit:10;" d="M577.948,231.071
					c0,0,1.978,0.393,4.831-0.806"/>
				<path style="fill:#FF8D88;" d="M577.948,231.071l3.064-0.174c0,0-2.649-1.117-3.211-0.53
					C577.675,230.497,577.948,231.071,577.948,231.071z"/>
				<path style="fill:#F88080;" d="M578.022,231.052c-0.18,0.005-0.227,0.307-0.222,0.435c0.01,0.252,0.147,0.515,0.372,0.639
					c0.353,0.195,0.812-0.007,1.15-0.149c0.607-0.256,1.158-0.695,1.689-1.08C581.011,230.897,578.036,231.051,578.022,231.052z"/>
				<path style="fill:#313362;" d="M580.527,219.439c0,0,3.544-1.828,5.628,1.589C586.156,221.028,583.928,218.859,580.527,219.439z
					"/>
				<path style="fill:#313362;" d="M582.145,223.445c0.377,0.342,0.959,0.313,1.301-0.064c0.342-0.377,0.313-0.959-0.063-1.301
					c-0.377-0.342-0.959-0.313-1.301,0.063C581.74,222.52,581.768,223.103,582.145,223.445z"/>
			</g>
			<g>
				<path style="fill:#313362;" d="M592.615,201.716c12.751-1.276,17.376,7.413,19.038,13.251
					c0.997,3.504,1.337,11.993,0.046,15.399c-3.458,9.121-12.433,4.066-12.433,4.066l-0.155-4.652l-0.906-6.189
					c-4.341-1.02-5.591-6.999-5.591-6.999s-0.574,0.023-1.488,0.055l-0.884-3.168v3.198c-0.307,0.01-0.636,0.021-0.982,0.032
					l-0.856-4.839v4.864c-0.472,0.014-0.964,0.027-1.468,0.04l0.026-0.002l-0.725-3.208l-0.161,3.231
					c-3.955,0.09-8.245,0.115-8.277-0.204C576.277,201.209,592.615,201.716,592.615,201.716z"/>
			</g>
			<g>
				<path style="fill:#FFBCB5;" d="M603.189,220.804c1.301,1.536,1.11,3.836-0.426,5.138c-1.536,1.301-4.506,1.914-5.807,0.378
					c-1.301-1.536-0.441-4.64,1.095-5.941C599.587,219.077,601.888,219.268,603.189,220.804z"/>
				<path style="fill:#FFFFFF;" d="M598.268,227.685c0.182,0.466,0.707,0.696,1.173,0.513c0.466-0.182,0.695-0.708,0.513-1.173
					c-0.182-0.466-0.707-0.696-1.173-0.513S598.086,227.22,598.268,227.685z"/>
			</g>
			<path style="fill:#333333;" d="M583.355,293.953c5.039,0.946,10.079,1.891,15.118,2.837c0.489,0.092,0.978,0.183,1.466,0.275
				c-0.043,0.162-0.087,0.32-0.13,0.483l-6.176-0.333c-3.426-0.643-6.852-1.286-10.278-1.929c-1.363-0.256-2.702-0.53-4.028-0.787
				l0.138-1.307C580.746,293.441,582.039,293.706,583.355,293.953z"/>
			<g>
				<path style="fill:#FFFFFF;" d="M590.489,250.747c0,0-3.179,0.629-3.53-1.603c-0.351-2.232,1.904-3.956,1.904-3.956
					L590.489,250.747z"/>
				<path style="fill:#FFFFFF;" d="M601.076,246.178l-10.586,4.569C590.489,250.747,599.194,256.945,601.076,246.178"/>
			</g>
			<g>
				<path style="fill:#ECB42A;" d="M542.317,233.199l26.748,81.335c0,0,8.58-0.708,21.662-7.124l-26.748-81.335L542.317,233.199z"/>
				
					<rect x="560.813" y="227.492" transform="matrix(0.95 -0.3124 0.3124 0.95 -56.3369 190.5945)" style="fill:#FFC950;" width="11.696" height="87.255"/>
				<g>
					<path style="fill:#EDEDFC;" d="M569.064,314.534l0.433,1.316l3.677,11.181l21.662-7.124l-3.677-11.181l-0.433-1.316
						C577.644,313.826,569.064,314.534,569.064,314.534z"/>
					<path style="fill:#9FA5FB;" d="M569.064,314.534l0.433,1.316l0.078,0.237c0,0,8.58-0.708,21.662-7.124l-0.078-0.237
						l-0.433-1.316C577.644,313.826,569.064,314.534,569.064,314.534z"/>
					<path style="fill:#9FA5FB;" d="M570.163,317.873l0.433,1.316l0.078,0.237c0,0,8.58-0.708,21.662-7.124l-0.078-0.237
						l-0.433-1.316C578.742,317.165,570.163,317.873,570.163,317.873z"/>
					<path style="fill:#9FA5FB;" d="M571.261,321.213l0.433,1.316l0.078,0.237c0,0,8.58-0.708,21.662-7.124l-0.078-0.237
						l-0.433-1.316C579.84,320.504,571.261,321.213,571.261,321.213z"/>
					<path style="fill:#DB2D51;" d="M573.06,326.685l0.221,0.67l2.966,9.021c0.79,2.403,3.331,3.726,5.675,2.955L595.096,335
						c2.344-0.771,3.604-3.344,2.813-5.747l-2.966-9.021l-0.221-0.67L573.06,326.685z"/>
					<path style="fill:#9FA5FB;" d="M572.612,325.322l0.433,1.316l0.078,0.237c0,0,8.58-0.708,21.662-7.124l-0.078-0.237
						l-0.433-1.316C581.192,324.613,572.612,325.322,572.612,325.322z"/>
				</g>
				<g>
					<path style="fill:#2D2F64;" d="M551.133,213.747l-4.88-4.683l-1.097,6.725C546.462,215.626,548.605,215.138,551.133,213.747z"
						/>
					<path style="fill:#FFE7B6;" d="M563.979,226.076l-12.846-12.329c-2.528,1.391-4.671,1.878-5.977,2.041l-2.839,17.411
						L563.979,226.076z"/>
				</g>
			</g>
			<path style="fill:#666666;" d="M581.314,340.896l13.173-4.332c1.579-0.519,2.646-1.862,2.946-3.414
				c-0.53,0.848-1.323,1.529-2.336,1.862l-13.173,4.332c-2.344,0.771-4.885-0.552-5.675-2.955l-1.994-6.064l-0.34,2.371l1.725,5.245
				C576.429,340.344,578.969,341.667,581.314,340.896z"/>
			<path style="fill:#FFBCB5;" d="M598.473,296.789l-3.89-9.448c-5.05-0.269-10.093-0.317-15.155-0.317
				c-2.597-0.015-12.245-0.225-12.245-0.225c-2.052-1.461-2.955-2.306-4.586-2.953c-0.746-0.296-1.937-0.843-2.653-1.332
				c-0.627-0.428-1.488-0.072-1.645,0.671l3.067,2.616l-2.391-0.53c-0.85-0.189-1.668,0.426-1.723,1.296l-0.257,4.087
				c0.238,1.479,1.708,2.377,3.202,2.259l3.203,0.091c0.672,0.019,1.339-0.065,1.985-0.251c1.176-0.337,2.416-0.633,3.638-0.702
				c1.963-0.111,3.906,0.321,5.841,0.591c1.802,0.251,3.604,0.51,5.401,0.791c1.032,0.161,2.064,0.328,3.09,0.521
				C588.394,294.898,593.434,295.844,598.473,296.789z"/>
			<g>
				<path style="fill:#FFB1A5;" d="M553.914,278.199l3.72,1.577l-1.241-3.773l2.535-2.693c0.483-0.515,0.575-1.284,0.228-1.899
					l-0.743-1.317c-0.365-0.647-1.083-1.011-1.82-0.922l-5.474,0.659l-1.341,2.724L553.914,278.199z"/>
				<polygon style="fill:#FFC1BB;" points="553.914,278.199 555.087,275.992 551.119,269.83 549.777,272.554 				"/>
			</g>
		</g>
	</g>
</g>
</svg>
